<?xml version="1.0" standalone="no"?>
<!DOCTYPE svg PUBLIC "-//W3C//DTD SVG 1.1//EN" "http://www.w3.org/Graphics/SVG/1.1/DTD/svg11.dtd" >
<!--
2009-1-25: Created.
-->
<svg>
<metadata>
Created by FontForge 20080925 at Sun Jan 25 01:36:22 2009
 By Han-Wen Nienhuys
This font is distributed under the GNU General Public License. As a special exception, if you create a document which uses this font, and embed this font or unaltered portions of this font into the document, this font does not by itself cause the resulting document to be covered by the GNU General Public License.
</metadata>
<defs>
<font id="Emmentaler-18" horiz-adv-x="200" >
  <font-face 
    font-family="Emmentaler"
    font-weight="400"
    font-stretch="normal"
    units-per-em="1000"
    panose-1="2 0 5 3 0 0 0 0 0 0"
    ascent="800"
    descent="-200"
    x-height="267"
    bbox="-518 -1325 800 1249"
    underline-thickness="50"
    underline-position="-100"
    unicode-range="U+0020-U+E27A"
  />
    <missing-glyph />
    <glyph glyph-name="rests.0" unicode="&#xe100;" horiz-adv-x="376" 
d="M364 -156h-353c-6 0 -11 5 -11 11v134c0 6 5 11 11 11h353c6 0 11 -5 11 -11v-134c0 -6 -5 -11 -11 -11z" />
    <glyph glyph-name="rests.1" unicode="&#xe101;" horiz-adv-x="376" 
d="M364 0h-353c-6 0 -11 5 -11 11v134c0 6 5 11 11 11h353c6 0 11 -5 11 -11v-134c0 -6 -5 -11 -11 -11z" />
    <glyph glyph-name="rests.0o" unicode="&#xe102;" horiz-adv-x="376" 
d="M364 -156h-353c-6 0 -11 5 -11 11v118h-129c-15 0 -27 12 -27 27s12 27 27 27h633c15 0 27 -12 27 -27s-12 -27 -27 -27h-129v-118c0 -6 -5 -11 -11 -11z" />
    <glyph glyph-name="rests.1o" unicode="&#xe103;" horiz-adv-x="376" 
d="M504 -27h-633c-15 0 -27 12 -27 27s12 27 27 27h129v118c0 6 5 11 11 11h353c6 0 11 -5 11 -11v-118h129c15 0 27 -12 27 -27s-12 -27 -27 -27z" />
    <glyph glyph-name="rests.M3" unicode="&#xe104;" horiz-adv-x="451" 
d="M439 -250h-128c-6 0 -11 5 -11 11v478c0 6 5 11 11 11h128c6 0 11 -5 11 -11v-478c0 -6 -5 -11 -11 -11zM139 -250h-128c-6 0 -11 5 -11 11v478c0 6 5 11 11 11h128c6 0 11 -5 11 -11v-478c0 -6 -5 -11 -11 -11z" />
    <glyph glyph-name="rests.M2" unicode="&#xe105;" horiz-adv-x="150" 
d="M139 -250h-128c-6 0 -11 5 -11 11v478c0 6 5 11 11 11h128c6 0 11 -5 11 -11v-478c0 -6 -5 -11 -11 -11z" />
    <glyph glyph-name="rests.M1" unicode="&#xe106;" horiz-adv-x="150" 
d="M139 0h-128c-6 0 -11 5 -11 11v228c0 6 5 11 11 11h128c6 0 11 -5 11 -11v-228c0 -6 -5 -11 -11 -11z" />
    <glyph glyph-name="rests.2" unicode="&#xe107;" horiz-adv-x="238" 
d="M-8 78c0 59 125 84 125 182c0 25 -9 49 -26 69l-33 40c-3 3 -4 7 -4 11c0 9 9 17 18 17c4 0 8 -2 12 -6l150 -179c7 -9 11 -17 11 -26c0 -59 -125 -84 -125 -182c0 -25 9 -49 25 -69l82 -97c3 -4 4 -7 4 -11c0 -9 -8 -17 -17 -17c-13 0 -37 42 -106 42
c-27 0 -54 -9 -54 -66c0 -34 11 -73 27 -93c6 -6 0 -14 -6 -14c-14 0 -99 131 -99 204c0 36 19 42 43 42c32 0 74 -11 113 -27l-129 154c-7 9 -11 18 -11 26z" />
    <glyph glyph-name="rests.2classical" unicode="&#xe108;" horiz-adv-x="250" 
d="M180 205c40 0 73 -32 73 -72c0 -46 -41 -79 -87 -79c-35 0 -70 10 -103 22l118 -326c-9 -7 -20 -11 -30 -11c-11 0 -21 4 -30 11l-121 417c5 13 24 14 31 0c6 -14 44 -59 59 -59c45 0 7 97 90 97z" />
    <glyph glyph-name="rests.3" unicode="&#xe109;" horiz-adv-x="250" 
d="M70 205c83 0 45 -97 90 -97c15 0 53 45 59 59c7 14 26 13 31 0l-121 -417c-9 -7 -19 -11 -30 -11c-10 0 -21 4 -30 11l118 326c-33 -12 -68 -22 -103 -22c-46 0 -87 33 -87 79c0 40 33 72 73 72z" />
    <glyph glyph-name="rests.4" unicode="&#xe10a;" horiz-adv-x="301" 
d="M125 205c83 0 45 -97 90 -97c14 0 48 46 54 59c7 14 26 13 31 0l-177 -667c-9 -7 -19 -11 -30 -11c-10 0 -21 4 -29 11l100 326c-33 -12 -68 -22 -103 -22c-47 0 -87 33 -87 79c0 40 32 72 73 72c83 0 44 -97 90 -97c16 0 53 51 58 67l46 151c-33 -12 -67 -22 -102 -22
c-47 0 -87 33 -87 79c0 40 33 72 73 72z" />
    <glyph glyph-name="rests.5" unicode="&#xe10b;" horiz-adv-x="326" 
d="M154 455c83 0 45 -97 91 -97c14 0 43 46 49 59c7 14 26 13 31 0l-214 -917c-9 -7 -20 -11 -30 -11c-11 0 -21 4 -30 11l87 327c-35 -12 -70 -23 -107 -23c-47 0 -87 33 -87 79c0 40 33 72 73 72c83 0 45 -97 90 -97c16 0 53 53 57 69l40 149c-34 -12 -69 -22 -104 -22
c-47 0 -87 33 -87 79c0 40 32 72 73 72c83 0 44 -97 90 -97c15 0 50 51 54 67l40 151c-33 -12 -67 -22 -102 -22c-46 0 -87 33 -87 79c0 40 33 72 73 72z" />
    <glyph glyph-name="rests.6" unicode="&#xe10c;" horiz-adv-x="351" 
d="M184 455c83 0 45 -97 90 -97c14 0 39 47 45 59c7 14 26 13 31 0l-234 -1167c-9 -7 -19 -11 -30 -11c-10 0 -21 4 -29 11l73 328c-36 -13 -72 -24 -111 -24c-46 0 -87 33 -87 79c0 40 33 72 73 72c83 0 45 -97 91 -97c16 0 53 54 57 72l33 147c-34 -12 -70 -23 -107 -23
c-46 0 -87 33 -87 79c0 40 33 72 73 72c83 0 45 -97 90 -97c16 0 50 53 54 70l33 148c-33 -12 -68 -22 -103 -22c-47 0 -88 33 -88 79c0 40 33 72 74 72c82 0 44 -97 90 -97c15 0 46 51 49 67l34 151c-32 -12 -65 -22 -100 -22c-46 0 -87 33 -87 79c0 40 33 72 73 72z" />
    <glyph glyph-name="rests.7" unicode="&#xe10d;" horiz-adv-x="376" 
d="M214 705c83 0 44 -97 90 -97c23 0 33 75 59 69c6 -1 10 -5 12 -10l-236 -1417c-8 -7 -19 -11 -30 -11c-10 0 -21 4 -29 11l61 329c-37 -14 -76 -25 -115 -25c-47 0 -87 33 -87 79c0 40 33 72 73 72c83 0 45 -97 90 -97c17 0 55 56 58 74l27 146c-36 -13 -73 -24 -111 -24
c-46 0 -87 33 -87 79c0 40 33 72 73 72c83 0 45 -97 90 -97c17 0 51 54 54 72l28 147c-35 -12 -70 -23 -107 -23c-47 0 -87 33 -87 79c0 40 33 72 73 72c83 0 45 -97 90 -97c15 0 46 53 50 70l27 148c-33 -12 -67 -22 -103 -22c-46 0 -87 33 -87 79c0 40 33 72 73 72
c83 0 45 -97 90 -97c15 0 43 51 46 67l28 150c-32 -11 -65 -21 -99 -21c-47 0 -87 33 -87 79c0 40 32 72 73 72z" />
    <glyph glyph-name="accidentals.sharp" unicode="&#xe10e;" horiz-adv-x="276" 
d="M217 -311c0 -11 -8 -19 -19 -19s-20 8 -20 19v142l-81 -30v-156c0 -11 -9 -20 -20 -20s-19 9 -19 20v142l-28 -11c-2 -1 -5 -1 -8 -1c-11 0 -22 10 -22 23v57c0 9 6 17 15 21l43 16v157l-28 -10c-2 -1 -5 -1 -8 -1c-11 0 -22 9 -22 22v57c0 10 6 18 15 21l43 16v157
c0 11 8 19 19 19s20 -8 20 -19v-142l81 30v156c0 11 9 20 20 20s19 -9 19 -20v-142l28 11c2 1 5 1 8 1c11 0 22 -10 22 -23v-57c0 -9 -6 -17 -15 -21l-43 -16v-157l28 10c2 1 5 1 8 1c11 0 22 -9 22 -22v-57c0 -10 -6 -18 -15 -21l-43 -16v-157zM178 94l-81 -30v-158l81 30
v158z" />
    <glyph glyph-name="accidentals.sharp.arrowup" unicode="&#xe10f;" horiz-adv-x="276" 
d="M217 -311c0 -11 -8 -19 -19 -19s-20 8 -20 19v142l-81 -30v-156c0 -11 -9 -20 -20 -20s-19 9 -19 20v142l-28 -11c-2 -1 -5 -1 -8 -1c-11 0 -22 10 -22 23v57c0 9 6 17 15 21l43 16v157l-28 -10c-2 -1 -5 -1 -8 -1c-11 0 -22 9 -22 22v57c0 10 6 18 15 21l43 16v157
c0 11 8 19 19 19s20 -8 20 -19v-142l81 30v225c0 13 -5 18 -13 18c-17 0 -49 -22 -77 -39c-9 -5 -20 6 -14 15c80 114 108 240 124 240s42 -125 123 -240c1 -2 2 -4 2 -6c0 -33 -62 30 -92 30c-9 0 -14 -5 -14 -18v-211l28 11c2 1 5 1 8 1c11 0 22 -10 22 -23v-57
c0 -9 -6 -17 -15 -21l-43 -16v-157l28 10c2 1 5 1 8 1c11 0 22 -9 22 -22v-57c0 -10 -6 -18 -15 -21l-43 -16v-157zM178 94l-81 -30v-158l81 30v158z" />
    <glyph glyph-name="accidentals.sharp.arrowdown" unicode="&#xe110;" horiz-adv-x="276" 
d="M217 -311c0 -11 -8 -19 -19 -19s-20 8 -20 19v142l-81 -30v-225c0 -13 5 -18 13 -18c17 0 49 22 77 39c9 5 20 -6 14 -15c-80 -114 -108 -240 -124 -240s-42 125 -123 240c-1 2 -2 4 -2 6c0 33 62 -30 92 -30c9 0 14 5 14 18v211l-28 -11c-2 -1 -5 -1 -8 -1
c-11 0 -22 10 -22 23v57c0 9 6 17 15 21l43 16v157l-28 -10c-2 -1 -5 -1 -8 -1c-11 0 -22 9 -22 22v57c0 10 6 18 15 21l43 16v157c0 11 8 19 19 19s20 -8 20 -19v-142l81 30v156c0 11 9 20 20 20s19 -9 19 -20v-142l28 11c2 1 5 1 8 1c11 0 22 -10 22 -23v-57
c0 -9 -6 -17 -15 -21l-43 -16v-157l28 10c2 1 5 1 8 1c11 0 22 -9 22 -22v-57c0 -10 -6 -18 -15 -21l-43 -16v-157zM178 94l-81 -30v-158l81 30v158z" />
    <glyph glyph-name="accidentals.sharp.arrowboth" unicode="&#xe111;" horiz-adv-x="276" 
d="M217 -311c0 -11 -8 -19 -19 -19s-20 8 -20 19v142l-81 -30v-225c0 -13 5 -18 13 -18c17 0 49 22 77 39c9 5 20 -6 14 -15c-80 -114 -108 -240 -124 -240s-42 125 -123 240c-1 2 -2 4 -2 6c0 33 62 -30 92 -30c9 0 14 5 14 18v211l-28 -11c-2 -1 -5 -1 -8 -1
c-11 0 -22 10 -22 23v57c0 9 6 17 15 21l43 16v157l-28 -10c-2 -1 -5 -1 -8 -1c-11 0 -22 9 -22 22v57c0 10 6 18 15 21l43 16v157c0 11 8 19 19 19s20 -8 20 -19v-142l81 30v225c0 13 -5 18 -13 18c-17 0 -49 -22 -77 -39c-9 -5 -20 6 -14 15c80 114 108 240 124 240
s42 -125 123 -240c1 -2 2 -4 2 -6c0 -33 -62 30 -92 30c-9 0 -14 -5 -14 -18v-211l28 11c2 1 5 1 8 1c11 0 22 -10 22 -23v-57c0 -9 -6 -17 -15 -21l-43 -16v-157l28 10c2 1 5 1 8 1c11 0 22 -9 22 -22v-57c0 -10 -6 -18 -15 -21l-43 -16v-157zM178 94l-81 -30v-158l81 30
v158z" />
    <glyph glyph-name="accidentals.sharp.slashslash.stem" unicode="&#xe112;" horiz-adv-x="175" 
d="M107 -317c0 -11 -9 -20 -19 -20c-11 0 -20 9 -20 20v120l-34 -20c-4 -2 -8 -3 -12 -3c-11 0 -22 9 -22 22v57c0 8 4 16 11 20l57 33v153l-34 -20c-4 -2 -8 -3 -12 -3c-11 0 -22 10 -22 23v57c0 8 4 15 11 19l57 33v143c0 11 9 20 20 20c10 0 19 -9 19 -20v-120l34 20
c4 2 8 3 12 3c11 0 22 -9 22 -22v-57c0 -8 -4 -16 -11 -20l-57 -33v-153l34 20c4 2 8 3 12 3c11 0 22 -10 22 -23v-57c0 -8 -4 -15 -11 -19l-57 -33v-143z" />
    <glyph glyph-name="accidentals.sharp.slashslashslash.stemstem" unicode="&#xe113;" horiz-adv-x="276" 
d="M217 -314c0 -11 -8 -20 -19 -20s-20 9 -20 20v135l-81 -27v-149c0 -11 -9 -20 -20 -20s-19 9 -19 20v136l-12 -4c-2 -1 -5 -1 -7 -1c-12 0 -23 9 -23 22v37c0 10 7 18 16 21l26 9v60l-28 -9c-3 -1 -5 -2 -8 -2c-12 0 -22 10 -22 23v48c0 10 6 18 15 21l43 15v60l-12 -4
c-2 -1 -5 -1 -7 -1c-12 0 -23 9 -23 22v37c0 10 7 18 16 21l26 9v149c0 11 8 20 19 20s20 -9 20 -20v-135l81 27v149c0 11 9 20 20 20s19 -9 19 -20v-136l12 4c2 1 5 1 7 1c12 0 23 -9 23 -22v-37c0 -10 -7 -18 -16 -21l-26 -9v-60l28 9c3 1 5 2 8 2c12 0 22 -10 22 -23v-48
c0 -10 -6 -18 -15 -21l-43 -15v-60l12 4c2 1 5 1 7 1c12 0 23 -9 23 -22v-37c0 -10 -7 -18 -16 -21l-26 -9v-149zM178 -34l-81 -28v-59l81 27v60zM178 62v59l-81 -27v-60z" />
    <glyph glyph-name="accidentals.sharp.slashslashslash.stem" unicode="&#xe114;" horiz-adv-x="238" 
d="M139 -303c0 -11 -9 -20 -20 -20s-20 9 -20 20v101l-44 -18c-3 -2 -6 -2 -9 -2c-12 0 -22 9 -22 22v37c0 9 5 17 13 21l62 26v54l-68 -29c-3 -1 -6 -2 -9 -2c-11 0 -22 10 -22 23v57c0 9 5 17 14 21l85 37v53l-44 -18c-3 -2 -6 -2 -9 -2c-12 0 -22 9 -22 22v37
c0 9 5 17 13 21l62 26v119c0 11 9 20 20 20s20 -9 20 -20v-101l43 18c3 2 6 2 9 2c12 0 23 -9 23 -22v-37c0 -9 -6 -17 -14 -21l-61 -26v-54l67 29c3 1 6 2 9 2c12 0 22 -10 22 -23v-57c0 -9 -5 -17 -13 -21l-85 -37v-53l43 18c3 2 6 2 9 2c12 0 23 -9 23 -22v-37
c0 -9 -6 -17 -14 -21l-61 -26v-119z" />
    <glyph glyph-name="accidentals.sharp.slashslash.stemstemstem" unicode="&#xe115;" horiz-adv-x="401" 
d="M332 -298c0 -11 -9 -20 -19 -20c-11 0 -20 9 -20 20v139l-73 -19v-149c0 -10 -9 -19 -20 -19s-20 9 -20 19v139l-73 -19v-148c0 -11 -9 -20 -19 -20c-11 0 -20 9 -20 20v138l-40 -10c-2 0 -4 -1 -6 -1c-12 0 -22 10 -22 23v57c0 10 7 19 17 22l51 13v159l-40 -10
c-2 -1 -4 -1 -6 -1c-12 0 -22 10 -22 22v58c0 10 7 19 17 21l51 13v149c0 11 9 20 20 20c10 0 19 -9 19 -20v-139l73 19v149c0 10 9 19 20 19s20 -9 20 -19v-139l73 19v148c0 11 9 20 20 20c10 0 19 -9 19 -20v-138l40 10c2 0 4 1 6 1c12 0 22 -10 22 -23v-57
c0 -10 -7 -19 -17 -22l-51 -13v-159l40 10c2 1 4 1 6 1c12 0 22 -10 22 -22v-58c0 -10 -7 -19 -17 -21l-51 -13v-149zM293 103l-73 -18v-159l73 18v159zM180 74l-73 -18v-159l73 18v159z" />
    <glyph glyph-name="accidentals.natural" unicode="&#xe116;" horiz-adv-x="167" 
d="M-8 375c8 5 17 7 26 7s18 -2 26 -7l-3 -187l104 21h4c10 0 18 -8 18 -18l8 -566c-8 -5 -17 -7 -26 -7s-18 2 -26 7l2 187l-103 -21h-4c-10 0 -18 8 -18 18zM127 -93l3 204l-90 -18l-3 -204z" />
    <glyph glyph-name="accidentals.natural.arrowup" unicode="&#xe117;" horiz-adv-x="167" 
d="M145 209h4c10 0 18 -8 18 -18l8 -566c-8 -5 -17 -7 -26 -7s-18 2 -26 7l2 187l-103 -21h-4c-10 0 -18 8 -18 18l-4 616c-1 13 -5 18 -13 18c-17 0 -48 -23 -77 -39c-8 -5 -17 2 -17 10c0 16 33 23 120 239c2 4 5 6 9 6c17 0 39 -114 127 -239c7 -10 -5 -23 -15 -16
c-29 16 -60 39 -77 39c-8 0 -12 -5 -13 -18l-1 -238zM127 -93l3 204l-92 -18l-1 -205z" />
    <glyph glyph-name="accidentals.natural.arrowdown" unicode="&#xe118;" horiz-adv-x="167" 
d="M-8 375c8 5 17 7 26 7s18 -2 26 -7l-3 -187l104 21h4c10 0 18 -8 18 -18l4 -616c0 -13 5 -18 13 -18c17 0 48 23 76 39c9 5 18 -2 18 -10c0 -16 -33 -23 -120 -239c-2 -4 -6 -6 -9 -6c-17 0 -40 114 -127 239c-7 10 4 23 15 16c28 -16 59 -39 76 -39c8 0 13 5 13 18
l2 238l-106 -22h-4c-10 0 -18 8 -18 18zM129 -93l1 205l-90 -19l-3 -204z" />
    <glyph glyph-name="accidentals.natural.arrowboth" unicode="&#xe119;" horiz-adv-x="167" 
d="M167 191l4 -616c0 -13 5 -18 13 -18c17 0 48 23 76 39c9 5 18 -2 18 -10c0 -16 -33 -23 -120 -239c-2 -4 -6 -6 -9 -6c-17 0 -40 114 -127 239c-7 10 4 23 15 16c28 -16 59 -39 76 -39c8 0 13 5 13 18l2 238l-106 -22h-4c-10 0 -18 8 -18 18l-4 616c-1 13 -5 18 -13 18
c-17 0 -48 -23 -77 -39c-8 -5 -17 2 -17 10c0 16 33 23 120 239c2 4 5 6 9 6c17 0 39 -114 127 -239c7 -10 -5 -23 -15 -16c-29 16 -60 39 -77 39c-8 0 -12 -5 -13 -18l-1 -238l106 22h4c10 0 18 -8 18 -18zM129 -93l1 205l-92 -19l-1 -205z" />
    <glyph glyph-name="accidentals.flat" unicode="&#xe11a;" 
d="M29 39l-2 -64v-11c0 -22 2 -43 5 -65c44 38 91 80 91 138c0 33 -14 66 -42 66c-31 0 -51 -30 -52 -64zM-16 -139l-12 593c9 5 18 8 28 8s19 -3 28 -8l-7 -343c25 23 58 36 92 36c51 0 87 -49 87 -103c0 -79 -85 -117 -144 -169c-17 -14 -25 -41 -47 -41
c-14 0 -25 13 -25 27z" />
    <glyph glyph-name="accidentals.flat.arrowup" unicode="&#xe11b;" 
d="M29 39l-2 -64v-11c0 -22 2 -43 5 -65c44 38 91 80 91 138c0 33 -14 66 -42 66c-31 0 -51 -30 -52 -64zM118 402c-10 0 -59 41 -82 41c-8 0 -13 -5 -13 -18l-4 -314c26 23 60 36 94 36c51 0 87 -49 87 -103c0 -79 -85 -117 -144 -169c-17 -14 -25 -41 -47 -41
c-14 0 -25 13 -25 27l-7 564c0 13 -5 18 -13 18c-23 0 -72 -41 -82 -41c-6 0 -12 6 -12 12c0 16 36 28 121 239c2 4 5 6 9 6c17 0 38 -111 128 -239c1 -2 2 -4 2 -6c0 -6 -6 -12 -12 -12z" />
    <glyph glyph-name="accidentals.flat.arrowdown" unicode="&#xe11c;" 
d="M29 39l-2 -64v-11c0 -22 2 -43 5 -65c44 38 91 80 91 138c0 33 -14 66 -42 66c-31 0 -51 -30 -52 -64zM200 44c0 -111 -181 -156 -181 -223v-118c0 -14 5 -19 13 -19c18 0 49 21 77 38c9 5 18 -5 12 -13c-75 -107 -104 -242 -119 -242c-16 0 -44 133 -120 242
c-1 2 -2 3 -2 5c0 30 59 -30 91 -30c8 0 13 5 13 19v158l-12 593c9 5 18 8 28 8s19 -3 28 -8l-7 -343c25 23 58 36 92 36c51 0 87 -49 87 -103z" />
    <glyph glyph-name="accidentals.flat.arrowboth" unicode="&#xe11d;" 
d="M29 39l-2 -64v-11c0 -22 2 -43 5 -65c44 38 91 80 91 138c0 33 -14 66 -42 66c-31 0 -51 -30 -52 -64zM-118 402c-6 0 -12 6 -12 12c0 2 1 4 2 6c90 128 111 239 128 239c4 0 7 -2 9 -6c85 -211 121 -223 121 -239c0 -6 -6 -12 -12 -12c-10 0 -59 41 -82 41
c-8 0 -13 -5 -13 -18l-4 -314c26 23 60 36 94 36c51 0 87 -49 87 -103c0 -111 -181 -156 -181 -223v-118c0 -14 5 -19 13 -19c18 0 49 21 77 38c9 5 18 -5 12 -13c-76 -109 -104 -242 -119 -242s-45 135 -120 242c-5 8 4 18 12 13c28 -17 59 -38 77 -38c8 0 13 5 13 19v158
l-7 564c0 13 -5 18 -13 18c-23 0 -72 -41 -82 -41z" />
    <glyph glyph-name="accidentals.flat.slash" unicode="&#xe11e;" 
d="M29 39l-2 -64v-11c0 -22 2 -43 5 -65c44 38 91 80 91 138c0 33 -14 66 -42 66c-31 0 -51 -30 -52 -64zM-100 167c-10 0 -20 9 -20 20c0 8 4 15 11 19l85 42l-4 206c9 5 18 8 28 8s19 -3 28 -8l-4 -182l67 34c3 1 6 2 9 2c10 0 20 -9 20 -20c0 -8 -4 -15 -11 -19l-86 -42
l-2 -116c25 23 58 36 92 36c51 0 87 -49 87 -103c0 -79 -85 -117 -144 -169c-17 -14 -25 -41 -47 -41c-14 0 -25 13 -25 27l-7 342l-68 -34c-3 -1 -6 -2 -9 -2z" />
    <glyph glyph-name="accidentals.flat.slashslash" unicode="&#xe11f;" 
d="M29 39l-2 -64v-11c0 -22 2 -43 5 -65c44 38 91 80 91 138c0 33 -14 66 -42 66c-31 0 -51 -30 -52 -64zM-100 246c-10 0 -20 9 -20 21c0 7 4 14 11 18l84 42l-3 127c9 5 18 8 28 8s19 -3 28 -8l-2 -102l65 33c3 1 6 2 9 2c10 0 20 -8 20 -20c0 -8 -4 -15 -11 -18l-84 -42
l-2 -75l68 34c3 1 6 2 9 2c10 0 20 -8 20 -20c0 -7 -4 -15 -11 -18l-87 -43l-1 -76c25 23 58 36 92 36c51 0 87 -49 87 -103c0 -79 -85 -117 -144 -169c-17 -14 -25 -41 -47 -41c-14 0 -25 13 -25 27l-6 303l-69 -34c-3 -2 -6 -2 -9 -2c-10 0 -20 8 -20 20c0 7 4 14 11 18
l86 43l-1 73l-67 -33c-3 -2 -6 -3 -9 -3z" />
    <glyph glyph-name="accidentals.mirroredflat.flat" unicode="&#xe120;" horiz-adv-x="401" 
d="M209 -166h-18c-22 0 -30 27 -47 41c-59 52 -144 90 -144 169c0 54 36 103 87 103c34 0 67 -13 92 -36l-7 343c9 5 18 8 28 8s19 -3 28 -8l-7 -343c25 23 58 36 92 36c51 0 87 -49 87 -103c0 -79 -85 -117 -144 -169c-17 -14 -25 -41 -47 -41zM171 39c-1 34 -21 64 -52 64
c-28 0 -42 -33 -42 -66c0 -58 47 -100 91 -138c3 22 5 43 5 65v11zM229 39l-2 -64v-11c0 -22 2 -43 5 -65c44 38 91 80 91 138c0 33 -14 66 -42 66c-31 0 -51 -30 -52 -64z" />
    <glyph glyph-name="accidentals.mirroredflat" unicode="&#xe121;" 
d="M139 39c-1 34 -21 64 -52 64c-29 0 -42 -33 -42 -66c0 -58 47 -100 91 -138c3 22 4 43 4 65v11zM183 -139c0 -14 -10 -27 -24 -27c-23 0 -31 27 -47 41c-60 52 -144 90 -144 169c0 54 35 103 86 103c34 0 67 -13 93 -36l-8 343c9 5 19 8 29 8c9 0 19 -3 28 -8z" />
    <glyph glyph-name="accidentals.mirroredflat.backslash" unicode="&#xe122;" 
d="M71 39c-1 34 -21 64 -52 64c-28 0 -42 -33 -42 -66c0 -58 47 -100 91 -138c3 22 5 43 5 65v11zM200 167c-3 0 -6 1 -9 2l-68 34l-7 -342c0 -14 -11 -27 -25 -27c-22 0 -30 27 -47 41c-59 52 -144 90 -144 169c0 54 36 103 87 103c34 0 67 -13 92 -36l-2 116l-86 42
c-7 4 -11 11 -11 19c0 11 10 20 20 20c3 0 6 -1 9 -2l67 -34l-4 182c9 5 18 8 28 8s19 -3 28 -8l-4 -206l85 -42c7 -4 11 -11 11 -19c0 -11 -10 -20 -20 -20z" />
    <glyph glyph-name="accidentals.flatflat" unicode="&#xe123;" horiz-adv-x="363" 
d="M191 39l-1 -64v-11c0 -22 1 -43 4 -65c43 37 85 82 85 138c0 33 -11 66 -39 66c-30 0 -48 -31 -49 -64zM147 -139l-2 105c-26 -33 -64 -60 -95 -91c-15 -14 -20 -41 -41 -41c-14 0 -25 13 -25 27l-12 593c9 5 18 8 28 8s19 -3 28 -8l-7 -343c17 23 43 36 71 36
c19 0 36 -8 49 -20l-7 327c9 5 19 8 28 8c10 0 20 -3 29 -8l-8 -343c25 23 56 36 89 36c52 0 90 -48 90 -102c0 -80 -84 -118 -144 -170c-16 -14 -24 -41 -46 -41c-15 0 -25 13 -25 27zM18 -25v-11c0 -23 1 -46 4 -68c39 38 70 87 70 141c0 32 -6 66 -33 66s-39 -32 -40 -64
z" />
    <glyph glyph-name="accidentals.flatflat.slash" unicode="&#xe124;" horiz-adv-x="363" 
d="M191 39l-1 -64v-11c0 -22 1 -43 4 -65c43 37 85 82 85 138c0 33 -11 66 -39 66c-30 0 -48 -31 -49 -64zM-123 110c-14 0 -27 12 -27 27c0 10 5 19 14 24l113 64l-5 229c9 5 18 8 28 8s19 -3 28 -8l-4 -202l113 65l-3 137c9 5 19 8 28 8c10 0 20 -3 29 -8l-3 -108l71 40
c4 2 8 4 13 4c13 0 27 -12 27 -27c0 -10 -5 -19 -14 -24l-98 -56l-4 -172c25 23 56 36 89 36c52 0 90 -48 90 -102c0 -80 -84 -118 -144 -170c-16 -14 -24 -41 -46 -41c-15 0 -25 13 -25 27l-2 105c-26 -33 -64 -60 -95 -91c-15 -14 -20 -41 -41 -41c-14 0 -25 13 -25 27
l-6 303l-88 -50c-4 -2 -8 -4 -13 -4zM139 255l-116 -66l-2 -78c17 23 43 36 71 36c19 0 36 -8 49 -20zM18 -25v-11c0 -23 1 -46 4 -68c39 38 70 87 70 141c0 32 -6 66 -33 66s-39 -32 -40 -64z" />
    <glyph glyph-name="accidentals.doublesharp" unicode="&#xe125;" horiz-adv-x="250" 
d="M153 0c23 -23 56 -27 88 -27c7 0 12 -5 12 -12l8 -86c1 -6 -4 -11 -10 -11h-1l-86 8c-7 1 -12 6 -12 12c0 32 -4 65 -27 88c-23 -23 -27 -56 -27 -88c0 -6 -5 -11 -12 -12l-86 -8h-1c-6 0 -11 5 -10 11l8 86c0 7 5 12 12 12c32 0 65 4 88 27c-23 23 -56 27 -88 27
c-7 0 -12 5 -12 12l-8 86c-1 6 4 11 10 11h1l86 -8c7 -1 12 -6 12 -12c0 -32 4 -65 27 -88c23 23 27 56 27 88c0 6 5 11 12 12l86 8h1c6 0 11 -5 10 -11l-8 -86c0 -7 -5 -12 -12 -12c-32 0 -65 -4 -88 -27z" />
    <glyph glyph-name="accidentals.rightparen" unicode="&#xe126;" horiz-adv-x="152" 
d="M36 -250c0 15 63 61 63 250s-63 235 -63 250c0 8 7 14 14 14c16 0 101 -132 101 -264c0 -93 -37 -181 -90 -258c-3 -4 -7 -6 -11 -6c-7 0 -14 6 -14 14z" />
    <glyph glyph-name="accidentals.leftparen" unicode="&#xe127;" horiz-adv-x="0" 
d="M-50 -264c-16 0 -101 132 -101 264s85 264 101 264c7 0 14 -6 14 -14c0 -15 -63 -61 -63 -250s63 -235 63 -250c0 -8 -7 -14 -14 -14z" />
    <glyph glyph-name="arrowheads.open.01" unicode="&#xe128;" horiz-adv-x="21" 
d="M-228 125c22 0 77 -103 228 -103c14 0 22 -11 22 -22s-8 -22 -22 -22c-81 0 -159 -35 -212 -96c-4 -5 -10 -7 -16 -7c-12 0 -22 8 -22 22c0 18 62 76 133 103c-72 28 -133 85 -133 103c0 14 10 22 22 22z" />
    <glyph glyph-name="arrowheads.open.0M1" unicode="&#xe129;" horiz-adv-x="250" 
d="M228 -125c-22 0 -77 103 -228 103c-14 0 -22 11 -22 22s8 22 22 22c151 0 206 103 228 103c12 0 22 -8 22 -22c0 -18 -61 -75 -133 -103c71 -27 133 -85 133 -103c0 -14 -10 -22 -22 -22z" />
    <glyph glyph-name="arrowheads.open.11" unicode="&#xe12a;" horiz-adv-x="125" 
d="M-125 -228c0 22 103 77 103 228c0 14 11 22 22 22s22 -8 22 -22c0 -81 35 -159 96 -212c5 -4 7 -10 7 -16c0 -12 -8 -22 -22 -22c-18 0 -76 62 -103 133c-28 -72 -85 -133 -103 -133c-14 0 -22 10 -22 22z" />
    <glyph glyph-name="arrowheads.open.1M1" unicode="&#xe12b;" horiz-adv-x="125" 
d="M125 228c0 -22 -103 -77 -103 -228c0 -14 -11 -22 -22 -22s-22 8 -22 22c0 151 -103 206 -103 228c0 12 8 22 22 22c18 0 75 -61 103 -133c27 71 85 133 103 133c14 0 22 -10 22 -22z" />
    <glyph glyph-name="arrowheads.close.01" unicode="&#xe12c;" horiz-adv-x="0" 
d="M-250 -114c0 3 14 53 14 114s-14 111 -14 114c0 9 8 11 11 11c4 0 7 -1 9 -4c37 -46 170 -110 230 -110c7 0 11 -5 11 -11s-4 -11 -11 -11c-60 0 -193 -64 -230 -110c-2 -3 -5 -4 -9 -4c-6 0 -11 4 -11 11z" />
    <glyph glyph-name="arrowheads.close.0M1" unicode="&#xe12d;" horiz-adv-x="250" 
d="M250 -114c0 -7 -5 -11 -11 -11c-4 0 -7 1 -9 4c-37 46 -170 110 -230 110c-7 0 -11 5 -11 11s4 11 11 11c60 0 193 64 230 110c2 3 5 4 9 4c3 0 11 -2 11 -11c0 -3 -14 -53 -14 -114s14 -111 14 -114z" />
    <glyph glyph-name="arrowheads.close.11" unicode="&#xe12e;" horiz-adv-x="125" 
d="M114 -250c-3 0 -53 14 -114 14s-111 -14 -114 -14c-9 0 -11 8 -11 11c0 4 1 7 4 9c46 37 110 170 110 230c0 7 5 11 11 11s11 -4 11 -11c0 -60 64 -193 110 -230c3 -2 4 -5 4 -9c0 -6 -4 -11 -11 -11z" />
    <glyph glyph-name="arrowheads.close.1M1" unicode="&#xe12f;" horiz-adv-x="125" 
d="M-114 250c3 0 53 -14 114 -14s111 14 114 14c9 0 11 -8 11 -11c0 -4 -1 -7 -4 -9c-46 -37 -110 -170 -110 -230c0 -7 -5 -11 -11 -11s-11 4 -11 11c0 60 -64 193 -110 230c-3 2 -4 5 -4 9c0 6 4 11 11 11z" />
    <glyph glyph-name="dots.dot" unicode="&#xe130;" horiz-adv-x="111" 
d="M0 0c0 31 25 56 56 56s55 -25 55 -56s-24 -56 -55 -56s-56 25 -56 56z" />
    <glyph glyph-name="noteheads.uM2" unicode="&#xe131;" horiz-adv-x="500" 
d="M249 139c147 0 219 -62 238 -97v819c0 15 12 28 27 28s27 -13 27 -28v-972c0 -15 -12 -28 -27 -28s-27 13 -27 28v69c-19 -35 -91 -97 -238 -97c-146 0 -218 62 -238 97v-69c0 -15 -12 -28 -27 -28s-27 13 -27 28v222c0 15 12 28 27 28s27 -13 27 -28v-69
c20 35 92 97 238 97zM217 111c-47 0 -68 -37 -68 -87c0 -98 85 -135 133 -135c47 0 68 37 68 87c0 98 -85 135 -133 135z" />
    <glyph glyph-name="noteheads.dM2" unicode="&#xe132;" horiz-adv-x="500" 
d="M249 139c147 0 219 -62 238 -97v69c0 15 12 28 27 28s27 -13 27 -28v-222c0 -15 -12 -28 -27 -28s-27 13 -27 28v69c-19 -35 -91 -97 -238 -97c-146 0 -218 62 -238 97v-819c0 -15 -12 -28 -27 -28s-27 13 -27 28v972c0 15 12 28 27 28s27 -13 27 -28v-69
c20 35 92 97 238 97zM217 111c-47 0 -68 -37 -68 -87c0 -98 85 -135 133 -135c47 0 68 37 68 87c0 98 -85 135 -133 135z" />
    <glyph glyph-name="noteheads.sM1" unicode="&#xe133;" horiz-adv-x="500" 
d="M249 139c147 0 219 -62 238 -97v69c0 15 12 28 27 28s27 -13 27 -28v-222c0 -15 -12 -28 -27 -28s-27 13 -27 28v69c-19 -35 -91 -97 -238 -97c-146 0 -218 62 -238 97v-69c0 -15 -12 -28 -27 -28s-27 13 -27 28v222c0 15 12 28 27 28s27 -13 27 -28v-69
c20 35 92 97 238 97zM217 111c-47 0 -68 -37 -68 -87c0 -98 85 -135 133 -135c47 0 68 37 68 87c0 98 -85 135 -133 135z" />
    <glyph glyph-name="noteheads.s0" unicode="&#xe134;" horiz-adv-x="493" 
d="M214 111c-55 0 -68 -49 -68 -88c0 -105 94 -134 132 -134c54 0 67 49 67 88c0 105 -94 134 -131 134zM246 139c140 0 245 -64 245 -139s-106 -139 -245 -139c-140 0 -246 64 -246 139s106 139 246 139z" />
    <glyph glyph-name="noteheads.s1" unicode="&#xe135;" horiz-adv-x="349" 
d="M314 64c0 23 -19 41 -42 41c-39 0 -202 -112 -227 -142c-7 -8 -10 -18 -10 -27c0 -23 18 -41 41 -41c40 0 202 112 227 142c7 8 11 18 11 27zM262 139c63 0 87 -30 87 -75c0 -38 -23 -118 -75 -153c-60 -41 -136 -50 -187 -50c-63 0 -87 30 -87 75c0 38 22 118 74 153
c61 41 136 50 188 50z" />
    <glyph glyph-name="noteheads.s2" unicode="&#xe136;" horiz-adv-x="330" 
d="M217 139c67 0 112 -38 112 -94c0 -90 -111 -184 -217 -184c-67 0 -112 38 -112 94c0 90 111 184 217 184z" />
    <glyph glyph-name="noteheads.s0diamond" unicode="&#xe137;" horiz-adv-x="500" 
d="M212 75c-16 0 -26 -6 -26 -74c0 -47 18 -54 60 -67c13 -4 28 -9 40 -9c16 0 27 6 27 74c0 47 -18 54 -61 67c-12 4 -28 9 -40 9zM499 0c0 -58 -81 -43 -126 -69c-43 -23 -74 -70 -124 -70c-49 0 -81 47 -123 70c-46 26 -126 11 -126 69s80 43 126 69c42 23 74 70 123 70
c50 0 81 -47 124 -70c45 -26 126 -11 126 -69z" />
    <glyph glyph-name="noteheads.s1diamond" unicode="&#xe138;" horiz-adv-x="368" 
d="M293 54c0 16 -12 27 -29 27c-34 0 -160 -88 -181 -112c-6 -6 -9 -15 -9 -23c0 -16 11 -27 29 -27c34 0 160 88 180 112c6 6 10 15 10 23zM325 139c25 0 42 -23 42 -41c0 -29 -33 -56 -43 -87c-14 -47 13 -122 -83 -122c-25 0 -52 6 -79 6c-48 0 -84 -34 -120 -34
c-25 0 -42 23 -42 41c0 29 33 56 43 87c14 47 -13 122 83 122c25 0 52 -6 79 -6c48 0 84 34 120 34z" />
    <glyph glyph-name="noteheads.s2diamond" unicode="&#xe139;" horiz-adv-x="372" 
d="M334 139c30 0 37 -30 37 -39c0 -37 -62 -64 -86 -103c-27 -44 -44 -135 -103 -135c-24 0 -49 12 -74 12c-23 0 -49 -13 -70 -13c-30 0 -38 30 -38 39c0 37 63 64 86 103c27 44 45 135 104 135c23 0 48 -12 73 -12c24 0 50 13 71 13z" />
    <glyph glyph-name="noteheads.s0triangle" unicode="&#xe13a;" horiz-adv-x="587" 
d="M136 82c25 -46 44 -105 44 -175v-15c63 52 135 96 217 126c-94 13 -181 35 -261 64zM0 162c0 19 31 23 44 23c17 0 202 -123 498 -123h1h5c19 0 37 -9 37 -25c0 -47 -205 -19 -429 -254c-4 -4 -9 -5 -15 -5c-15 0 -47 5 -47 25c0 1 10 42 10 89c0 49 -10 151 -87 245
c-7 9 -17 14 -17 25z" />
    <glyph glyph-name="noteheads.d1triangle" unicode="&#xe13b;" horiz-adv-x="424" 
d="M105 68c19 -45 31 -95 31 -154c41 40 89 75 142 101c-62 11 -120 29 -173 53zM0 143c0 15 16 25 33 25c23 0 138 -110 360 -110c16 0 30 -10 30 -25c0 -45 -159 -27 -301 -223c-5 -7 -14 -10 -22 -10c-18 0 -33 11 -33 26c0 8 7 32 7 80c0 145 -74 219 -74 237z" />
    <glyph glyph-name="noteheads.u1triangle" unicode="&#xe13c;" horiz-adv-x="424" 
d="M105 68c19 -45 31 -95 31 -154c41 40 89 75 142 101c-62 11 -120 29 -173 53zM0 143c0 15 16 25 33 25c23 0 138 -110 360 -110c16 0 30 -10 30 -25c0 -45 -159 -27 -301 -223c-5 -7 -14 -10 -22 -10c-18 0 -33 11 -33 26c0 8 7 32 7 80c0 145 -74 219 -74 237z" />
    <glyph glyph-name="noteheads.u2triangle" unicode="&#xe13d;" horiz-adv-x="353" 
d="M56 -174c0 8 6 32 6 80c0 141 -62 218 -62 235c0 15 12 26 26 26c22 0 115 -109 302 -109c13 0 25 -11 25 -25c0 -37 -52 -20 -151 -103c-94 -79 -89 -130 -120 -130c-15 0 -26 12 -26 26z" />
    <glyph glyph-name="noteheads.d2triangle" unicode="&#xe13e;" horiz-adv-x="353" 
d="M56 -174c0 8 6 32 6 80c0 141 -62 218 -62 235c0 15 12 26 26 26c22 0 115 -109 302 -109c13 0 25 -11 25 -25c0 -37 -52 -20 -151 -103c-94 -79 -89 -130 -120 -130c-15 0 -26 12 -26 26z" />
    <glyph glyph-name="noteheads.s0slash" unicode="&#xe13f;" horiz-adv-x="757" 
d="M114 -195h288l239 390h-288zM11 -264c-6 0 -11 6 -11 12c0 2 1 4 2 6l310 504c2 3 5 6 9 6h423c6 0 11 -6 11 -12c0 -2 0 -4 -2 -6l-310 -504c-2 -3 -5 -6 -9 -6h-423z" />
    <glyph glyph-name="noteheads.s1slash" unicode="&#xe140;" horiz-adv-x="589" 
d="M114 -195h120l239 390h-120zM11 -264c-6 0 -11 6 -11 12c0 2 1 4 2 6l310 504c2 3 5 6 9 6h255c7 0 12 -6 12 -12c0 -2 -1 -4 -2 -6l-310 -504c-2 -3 -6 -6 -10 -6h-255z" />
    <glyph glyph-name="noteheads.s2slash" unicode="&#xe141;" horiz-adv-x="431" 
d="M11 -264c-6 0 -11 6 -11 12c0 2 1 4 2 6l310 504c2 3 5 6 9 6h98c6 0 11 -6 11 -12c0 -2 0 -4 -2 -6l-310 -504c-2 -3 -5 -6 -9 -6h-98z" />
    <glyph glyph-name="noteheads.s0cross" unicode="&#xe142;" horiz-adv-x="438" 
d="M228 48c-3 -2 -6 -3 -10 -3c-3 0 -6 1 -9 3l-102 68l-62 -41l92 -62c4 -3 7 -8 7 -13s-3 -10 -7 -13l-92 -62l62 -41l102 68c3 2 6 3 9 3c4 0 7 -1 10 -3l102 -68l62 41l-92 62c-4 3 -7 8 -7 13s3 10 7 13l92 62l-62 41zM218 81l103 68c3 2 6 3 9 3s6 -1 9 -3l91 -61
c4 -3 7 -8 7 -13c0 -6 -3 -11 -7 -14l-92 -61l92 -61c4 -3 7 -8 7 -14c0 -5 -3 -10 -7 -13l-91 -61c-3 -2 -6 -3 -9 -3s-6 1 -9 3l-103 68l-102 -68c-3 -2 -6 -3 -9 -3s-6 1 -9 3l-91 61c-4 3 -7 8 -7 13c0 6 3 11 7 14l92 61l-92 61c-4 3 -7 8 -7 14c0 5 3 10 7 13l91 61
c3 2 6 3 9 3s6 -1 9 -3z" />
    <glyph glyph-name="noteheads.s1cross" unicode="&#xe143;" horiz-adv-x="384" 
d="M201 37c-3 -2 -6 -3 -10 -3c-3 0 -6 1 -9 3l-97 72l-41 -30l89 -66c4 -3 6 -8 6 -13s-2 -10 -6 -13l-89 -66l41 -30l97 72c3 2 6 3 9 3c4 0 7 -1 10 -3l97 -72l41 30l-89 66c-4 3 -6 8 -6 13s2 10 6 13l89 66l-41 30zM191 70l98 72c3 2 6 3 9 3c4 0 7 -1 10 -3l68 -50
c4 -3 7 -8 7 -13s-3 -10 -7 -13l-89 -66l89 -66c4 -3 7 -8 7 -13s-3 -10 -7 -13l-68 -50c-3 -2 -6 -3 -10 -3c-3 0 -6 1 -9 3l-98 72l-97 -72c-3 -2 -6 -3 -9 -3c-4 0 -7 1 -10 3l-68 50c-5 3 -7 8 -7 13s2 10 7 13l89 66l-89 66c-5 3 -7 8 -7 13s2 10 7 13l68 50
c3 2 6 3 10 3c3 0 6 -1 9 -3z" />
    <glyph glyph-name="noteheads.s2cross" unicode="&#xe144;" horiz-adv-x="330" 
d="M164 39l117 96c3 2 7 4 10 4c4 0 8 -2 11 -4l21 -18c4 -3 6 -7 6 -12s-2 -10 -6 -13l-112 -92l112 -92c4 -3 6 -8 6 -13s-2 -9 -6 -12l-21 -18c-3 -2 -7 -4 -11 -4c-3 0 -7 2 -10 4l-117 96l-116 -96c-3 -2 -7 -4 -11 -4c-3 0 -7 2 -10 4l-21 18c-4 3 -6 7 -6 12
s2 10 6 13l112 92l-112 92c-4 3 -6 8 -6 13s2 9 6 12l21 18c3 2 7 4 10 4c4 0 8 -2 11 -4z" />
    <glyph glyph-name="noteheads.s2xcircle" unicode="&#xe145;" horiz-adv-x="392" 
d="M196 175c107 0 195 -78 195 -175s-88 -175 -195 -175c-108 0 -196 78 -196 175s88 175 196 175zM196 26l93 82c-27 18 -60 27 -93 27c-34 0 -67 -9 -94 -27zM166 0l-94 83c-21 -24 -33 -53 -33 -83s12 -59 33 -83zM225 0l94 -83c21 24 33 53 33 83s-12 59 -33 83z
M196 -26l-94 -82c27 -18 60 -27 94 -27c33 0 66 9 93 27z" />
    <glyph glyph-name="noteheads.s0do" unicode="&#xe146;" horiz-adv-x="493" 
d="M92 -64h308l-154 122zM24 -111c-13 0 -24 10 -24 23c0 7 3 14 9 19l222 175c4 4 9 5 15 5c5 0 10 -1 14 -5l222 -175c6 -5 9 -12 9 -19c0 -13 -10 -23 -23 -23h-444z" />
    <glyph glyph-name="noteheads.d1do" unicode="&#xe147;" horiz-adv-x="349" 
d="M75 -64h199l-100 116zM24 -111c-13 0 -24 10 -24 23c0 6 2 11 6 16l150 175c5 5 11 8 18 8s14 -3 18 -8l151 -175c4 -5 6 -10 6 -16c0 -13 -11 -23 -24 -23h-301z" />
    <glyph glyph-name="noteheads.u1do" unicode="&#xe148;" horiz-adv-x="349" 
d="M75 -64h199l-100 116zM24 -111c-13 0 -24 10 -24 23c0 6 2 11 6 16l150 175c5 5 11 8 18 8s14 -3 18 -8l151 -175c4 -5 6 -10 6 -16c0 -13 -11 -23 -24 -23h-301z" />
    <glyph glyph-name="noteheads.d2do" unicode="&#xe149;" horiz-adv-x="330" 
d="M24 -111c-13 0 -24 10 -24 23c0 6 2 11 5 15l141 176c4 5 11 8 18 8c8 0 14 -3 19 -8l141 -176c3 -4 5 -9 5 -15c0 -13 -11 -23 -24 -23h-281z" />
    <glyph glyph-name="noteheads.u2do" unicode="&#xe14a;" horiz-adv-x="330" 
d="M24 -111c-13 0 -24 10 -24 23c0 6 2 11 5 15l141 176c4 5 11 8 18 8c8 0 14 -3 19 -8l141 -176c3 -4 5 -9 5 -15c0 -13 -11 -23 -24 -23h-281z" />
    <glyph glyph-name="noteheads.s0re" unicode="&#xe14b;" horiz-adv-x="493" 
d="M47 64v-29c0 -81 104 -99 199 -99s198 18 198 99v29h-397zM0 88c0 13 11 23 24 23h444c13 0 23 -10 23 -23v-53c0 -105 -125 -146 -245 -146c-121 0 -246 41 -246 146v53z" />
    <glyph glyph-name="noteheads.u1re" unicode="&#xe14c;" horiz-adv-x="349" 
d="M47 64v-29c0 -60 62 -99 127 -99c66 0 127 39 127 99v29h-254zM0 88c0 13 11 23 24 23h301c13 0 24 -10 24 -23v-53c0 -86 -83 -146 -175 -146c-91 0 -174 60 -174 146v53z" />
    <glyph glyph-name="noteheads.d1re" unicode="&#xe14d;" horiz-adv-x="349" 
d="M47 64v-29c0 -60 62 -99 127 -99c66 0 127 39 127 99v29h-254zM0 88c0 13 11 23 24 23h301c13 0 24 -10 24 -23v-53c0 -86 -83 -146 -175 -146c-91 0 -174 60 -174 146v53z" />
    <glyph glyph-name="noteheads.u2re" unicode="&#xe14e;" horiz-adv-x="330" 
d="M0 88c0 13 11 23 24 23h281c13 0 24 -10 24 -23v-53c0 -84 -77 -146 -165 -146c-87 0 -164 62 -164 146v53z" />
    <glyph glyph-name="noteheads.d2re" unicode="&#xe14f;" horiz-adv-x="330" 
d="M0 88c0 13 11 23 24 23h281c13 0 24 -10 24 -23v-53c0 -84 -77 -146 -165 -146c-87 0 -164 62 -164 146v53z" />
    <glyph glyph-name="noteheads.s0mi" unicode="&#xe150;" horiz-adv-x="493" 
d="M104 6l158 -62l125 50l-157 62zM15 -22c-9 4 -15 12 -15 22s6 18 15 22l222 88c3 1 6 1 9 1s6 0 8 -1l222 -88c9 -4 15 -12 15 -22s-6 -18 -15 -22l-222 -88c-2 -1 -5 -1 -8 -1s-6 0 -9 1z" />
    <glyph glyph-name="noteheads.s1mi" unicode="&#xe151;" horiz-adv-x="330" 
d="M79 7l97 -60l73 46l-96 60zM11 -20c-7 4 -11 12 -11 20s4 16 11 20l141 88c4 2 8 3 12 3c5 0 9 -1 13 -3l141 -88c7 -4 11 -12 11 -20s-4 -16 -11 -20l-141 -88c-4 -2 -8 -3 -13 -3c-4 0 -8 1 -12 3z" />
    <glyph glyph-name="noteheads.s2mi" unicode="&#xe152;" horiz-adv-x="330" 
d="M11 -20c-7 4 -11 12 -11 20s4 16 11 20l141 88c4 2 8 3 12 3c5 0 9 -1 13 -3l141 -88c7 -4 11 -12 11 -20s-4 -16 -11 -20l-141 -88c-4 -2 -8 -3 -13 -3c-4 0 -8 1 -12 3z" />
    <glyph glyph-name="noteheads.u0fa" unicode="&#xe153;" horiz-adv-x="493" 
d="M148 64l296 -117v117h-296zM0 88c0 13 11 23 24 23h444c13 0 23 -10 23 -23v-176c0 -13 -10 -23 -23 -23c-3 0 -6 0 -9 1l-444 176c-9 3 -15 12 -15 22z" />
    <glyph glyph-name="noteheads.d0fa" unicode="&#xe154;" horiz-adv-x="493" 
d="M344 -64l-297 117v-117h297zM491 -88c0 -13 -10 -23 -23 -23h-444c-13 0 -24 10 -24 23v176c0 13 11 23 24 23c3 0 6 0 8 -1l444 -176c9 -3 15 -12 15 -22z" />
    <glyph glyph-name="noteheads.u1fa" unicode="&#xe155;" horiz-adv-x="349" 
d="M111 64l190 -111v111h-190zM0 88c0 13 11 23 24 23h301c13 0 24 -10 24 -23v-176c0 -13 -11 -23 -24 -23c-4 0 -8 1 -12 3l-301 175c-8 5 -12 12 -12 21z" />
    <glyph glyph-name="noteheads.d1fa" unicode="&#xe156;" horiz-adv-x="349" 
d="M237 -64l-190 111v-111h190zM349 -88c0 -13 -11 -23 -24 -23h-301c-13 0 -24 10 -24 23v176c0 13 11 23 24 23c4 0 8 -1 12 -3l301 -175c7 -5 12 -12 12 -21z" />
    <glyph glyph-name="noteheads.u2fa" unicode="&#xe157;" horiz-adv-x="330" 
d="M0 88c0 13 11 23 24 23h281c13 0 24 -10 24 -23v-176c0 -13 -11 -23 -24 -23c-4 0 -8 1 -12 3l-282 176c-7 4 -11 12 -11 20z" />
    <glyph glyph-name="noteheads.d2fa" unicode="&#xe158;" horiz-adv-x="330" 
d="M329 -88c0 -13 -11 -23 -24 -23h-281c-13 0 -24 10 -24 23v176c0 13 11 23 24 23c4 0 8 -1 12 -3l282 -176c7 -4 11 -12 11 -20z" />
    <glyph glyph-name="noteheads.s0la" unicode="&#xe159;" horiz-adv-x="493" 
d="M47 64v-128h397v128h-397zM24 111h444c13 0 23 -10 23 -23v-176c0 -13 -10 -23 -23 -23h-444c-13 0 -24 10 -24 23v176c0 13 11 23 24 23z" />
    <glyph glyph-name="noteheads.s1la" unicode="&#xe15a;" horiz-adv-x="349" 
d="M47 64v-128h254v128h-254zM24 111h301c13 0 24 -10 24 -23v-176c0 -13 -11 -23 -24 -23h-301c-13 0 -24 10 -24 23v176c0 13 11 23 24 23z" />
    <glyph glyph-name="noteheads.s2la" unicode="&#xe15b;" horiz-adv-x="330" 
d="M24 111h281c13 0 24 -10 24 -23v-176c0 -13 -11 -23 -24 -23h-281c-13 0 -24 10 -24 23v176c0 13 11 23 24 23z" />
    <glyph glyph-name="noteheads.s0ti" unicode="&#xe15c;" horiz-adv-x="493" 
d="M246 -61l171 86c-54 26 -112 39 -171 39c-60 0 -118 -13 -172 -39zM246 111c117 0 245 -56 245 -87c0 -9 -5 -17 -13 -20l-222 -113c-3 -2 -7 -2 -10 -2c-4 0 -8 0 -11 2l-222 113c-8 3 -13 11 -13 20c0 33 133 87 246 87z" />
    <glyph glyph-name="noteheads.u1ti" unicode="&#xe15d;" horiz-adv-x="349" 
d="M174 -58l114 84c-33 25 -73 38 -114 38s-80 -13 -113 -38zM174 111c101 0 175 -66 175 -87c0 -8 -4 -14 -10 -18l-151 -113c-4 -3 -9 -4 -14 -4s-10 1 -14 4l-151 113c-5 4 -9 10 -9 18c0 22 75 87 174 87z" />
    <glyph glyph-name="noteheads.d1ti" unicode="&#xe15e;" horiz-adv-x="349" 
d="M174 -58l114 84c-33 25 -73 38 -114 38s-80 -13 -113 -38zM174 111c101 0 175 -66 175 -87c0 -8 -4 -14 -10 -18l-151 -113c-4 -3 -9 -4 -14 -4s-10 1 -14 4l-151 113c-5 4 -9 10 -9 18c0 22 75 87 174 87z" />
    <glyph glyph-name="noteheads.u2ti" unicode="&#xe15f;" horiz-adv-x="330" 
d="M164 111c95 0 165 -65 165 -88c0 -6 -3 -13 -9 -17l-141 -112c-4 -4 -9 -5 -15 -5c-5 0 -10 1 -14 5l-141 112c-6 4 -9 11 -9 17c0 22 69 88 164 88z" />
    <glyph glyph-name="noteheads.d2ti" unicode="&#xe160;" horiz-adv-x="330" 
d="M164 111c95 0 165 -65 165 -88c0 -6 -3 -13 -9 -17l-141 -112c-4 -4 -9 -5 -15 -5c-5 0 -10 1 -14 5l-141 112c-6 4 -9 11 -9 17c0 22 69 88 164 88z" />
    <glyph glyph-name="scripts.ufermata" unicode="&#xe161;" horiz-adv-x="334" 
d="M-69 48c0 38 31 69 69 69s69 -31 69 -69s-31 -68 -69 -68s-69 30 -69 68zM0 364c259 0 333 -337 333 -367c0 -10 -10 -17 -20 -17c-9 0 -18 6 -21 20c-26 147 -145 261 -292 261s-266 -114 -292 -261c-3 -14 -12 -20 -21 -20c-10 0 -20 7 -20 17c0 30 74 367 333 367z
" />
    <glyph glyph-name="scripts.dfermata" unicode="&#xe162;" horiz-adv-x="334" 
d="M-69 -48c0 38 31 68 69 68s69 -30 69 -68s-31 -69 -69 -69s-69 31 -69 69zM0 -364c-259 0 -333 337 -333 367c0 10 10 17 20 17c9 0 18 -6 21 -20c26 -147 145 -261 292 -261s266 114 292 261c3 14 12 20 21 20c10 0 20 -7 20 -17c0 -30 -74 -367 -333 -367z" />
    <glyph glyph-name="scripts.ushortfermata" unicode="&#xe163;" horiz-adv-x="250" 
d="M-94 69c0 39 31 70 70 70c38 0 69 -31 69 -70c0 -38 -31 -69 -69 -69c-39 0 -70 31 -70 69zM-230 0c-11 0 -20 10 -20 20c0 3 1 6 2 9l230 509c3 7 10 12 18 12s15 -5 18 -12l230 -509c1 -3 2 -6 2 -9c0 -10 -9 -20 -20 -20h-49c-8 0 -15 5 -19 12l-187 413l-186 -413
c-4 -7 -11 -12 -19 -12z" />
    <glyph glyph-name="scripts.dshortfermata" unicode="&#xe164;" horiz-adv-x="250" 
d="M94 -69c0 -39 -31 -70 -70 -70c-38 0 -69 31 -69 70c0 38 31 69 69 69c39 0 70 -31 70 -69zM230 0c11 0 20 -10 20 -20c0 -3 -1 -6 -2 -9l-230 -509c-3 -7 -10 -12 -18 -12s-15 5 -18 12l-230 509c-1 3 -2 6 -2 9c0 10 9 20 20 20h49c8 0 15 -5 19 -12l187 -413l186 413
c4 7 11 12 19 12z" />
    <glyph glyph-name="scripts.ulongfermata" unicode="&#xe165;" horiz-adv-x="313" 
d="M-69 69c0 39 31 70 69 70s69 -31 69 -70c0 -38 -31 -69 -69 -69s-69 31 -69 69zM-301 375h602c6 0 12 -5 12 -11v-344c0 -11 -10 -20 -21 -20s-20 9 -20 20v253h-544v-253c0 -11 -9 -20 -20 -20s-20 9 -20 20v344c0 6 5 11 11 11z" />
    <glyph glyph-name="scripts.dlongfermata" unicode="&#xe166;" horiz-adv-x="313" 
d="M-69 -69c0 38 31 69 69 69s69 -31 69 -69c0 -39 -31 -70 -69 -70s-69 31 -69 70zM-301 -375c-6 0 -11 5 -11 11v344c0 11 9 20 20 20s20 -9 20 -20v-253h544v253c0 11 9 20 20 20s21 -9 21 -20v-344c0 -6 -6 -11 -12 -11h-602z" />
    <glyph glyph-name="scripts.uverylongfermata" unicode="&#xe167;" horiz-adv-x="376" 
d="M-60 60c0 33 27 60 60 60s60 -27 60 -60s-27 -60 -60 -60s-60 27 -60 60zM-239 225h478c6 0 11 -5 11 -11v-194c0 -11 -9 -20 -20 -20s-21 9 -21 20v130h-418v-130c0 -11 -10 -20 -21 -20s-20 9 -20 20v194c0 6 5 11 11 11zM-364 400h728c6 0 11 -5 11 -11v-369
c0 -11 -9 -20 -20 -20s-21 9 -21 20v255h-668v-255c0 -11 -10 -20 -21 -20s-20 9 -20 20v369c0 6 5 11 11 11z" />
    <glyph glyph-name="scripts.dverylongfermata" unicode="&#xe168;" horiz-adv-x="376" 
d="M-60 -60c0 33 27 60 60 60s60 -27 60 -60s-27 -60 -60 -60s-60 27 -60 60zM-239 -225c-6 0 -11 5 -11 11v194c0 11 9 20 20 20s21 -9 21 -20v-130h418v130c0 11 10 20 21 20s20 -9 20 -20v-194c0 -6 -5 -11 -11 -11h-478zM-364 -400c-6 0 -11 5 -11 11v369
c0 11 9 20 20 20s21 -9 21 -20v-255h668v255c0 11 10 20 21 20s20 -9 20 -20v-369c0 -6 -5 -11 -11 -11h-728z" />
    <glyph glyph-name="scripts.thumb" unicode="&#xe169;" horiz-adv-x="100" 
d="M22 -125l2 -51c0 -13 -11 -24 -24 -24s-24 11 -24 24l2 51v3c-48 12 -78 65 -78 122c0 65 40 125 100 125s100 -60 100 -125c0 -57 -30 -110 -78 -122v-3zM47 0c0 45 -8 94 -47 94s-47 -49 -47 -94s8 -94 47 -94s47 49 47 94z" />
    <glyph glyph-name="scripts.sforzato" unicode="&#xe16a;" horiz-adv-x="225" 
d="M-210 86c-9 2 -15 10 -15 19c0 11 9 20 20 20c2 0 3 0 5 -1l405 -104c14 0 20 -6 20 -20s-6 -20 -20 -20l-405 -104c-2 -1 -3 -1 -5 -1c-11 0 -20 9 -20 20c0 9 6 17 15 19l248 64l140 22l-140 22z" />
    <glyph glyph-name="scripts.espr" unicode="&#xe16b;" horiz-adv-x="476" 
d="M-45 86l-245 -64l-142 -22l142 -22l245 -64c9 -2 15 -10 15 -19c0 -11 -9 -20 -20 -20c-1 0 -3 0 -5 1l-400 104c-14 0 -20 6 -20 20s6 20 20 20l400 104c2 1 4 1 5 1c11 0 20 -9 20 -20c0 -9 -6 -17 -15 -19zM45 86c-9 2 -15 10 -15 19c0 11 9 20 20 20c1 0 3 0 5 -1
l400 -104c14 0 20 -6 20 -20s-6 -20 -20 -20l-400 -104c-2 -1 -4 -1 -5 -1c-11 0 -20 9 -20 20c0 9 6 17 15 19l245 64l142 22l-142 22z" />
    <glyph glyph-name="scripts.staccato" unicode="&#xe16c;" horiz-adv-x="50" 
d="M-50 0c0 28 22 50 50 50s50 -22 50 -50s-22 -50 -50 -50s-50 22 -50 50z" />
    <glyph glyph-name="scripts.ustaccatissimo" unicode="&#xe16d;" horiz-adv-x="52" 
d="M-14 0l-38 200c0 3 -1 5 -1 7c0 25 25 45 53 45s53 -20 53 -45c0 -2 -1 -4 -1 -7l-38 -200c-2 -7 -7 -14 -14 -14s-12 7 -14 14z" />
    <glyph glyph-name="scripts.dstaccatissimo" unicode="&#xe16e;" horiz-adv-x="52" 
d="M-14 0c2 7 7 14 14 14s12 -7 14 -14l38 -200c0 -3 1 -5 1 -7c0 -25 -25 -45 -53 -45s-53 20 -53 45c0 2 1 4 1 7z" />
    <glyph glyph-name="scripts.tenuto" unicode="&#xe16f;" horiz-adv-x="150" 
d="M128 -22h-256c-12 0 -22 10 -22 22s10 22 22 22h256c12 0 22 -10 22 -22s-10 -22 -22 -22z" />
    <glyph glyph-name="scripts.uportato" unicode="&#xe170;" horiz-adv-x="150" 
d="M-42 167c0 24 19 43 42 43s42 -19 42 -43c0 -23 -19 -42 -42 -42s-42 19 -42 42zM131 -19h-262c-11 0 -19 9 -19 19s8 19 19 19h262c11 0 19 -9 19 -19s-8 -19 -19 -19z" />
    <glyph glyph-name="scripts.dportato" unicode="&#xe171;" horiz-adv-x="150" 
d="M-42 -167c0 23 19 42 42 42s42 -19 42 -42c0 -24 -19 -43 -42 -43s-42 19 -42 43zM131 19c11 0 19 -9 19 -19s-8 -19 -19 -19h-262c-11 0 -19 9 -19 19s8 19 19 19h262z" />
    <glyph glyph-name="scripts.umarcato" unicode="&#xe172;" horiz-adv-x="125" 
d="M-111 0c-8 0 -14 6 -14 14c0 1 0 3 1 5l112 248c2 5 7 8 12 8s10 -3 12 -8l112 -248c1 -2 1 -4 1 -5c0 -8 -6 -14 -14 -14h-66c-5 0 -10 3 -12 8l-66 146l-66 -146c-2 -5 -7 -8 -12 -8z" />
    <glyph glyph-name="scripts.dmarcato" unicode="&#xe173;" horiz-adv-x="125" 
d="M111 0c8 0 14 -6 14 -14c0 -1 0 -3 -1 -5l-112 -248c-2 -5 -7 -8 -12 -8s-10 3 -12 8l-112 248c-1 2 -1 4 -1 5c0 8 6 14 14 14h66c5 0 10 -3 12 -8l66 -146l66 146c2 5 7 8 12 8z" />
    <glyph glyph-name="scripts.open" unicode="&#xe174;" horiz-adv-x="100" 
d="M100 0c0 -65 -40 -125 -100 -125s-100 60 -100 125s40 125 100 125s100 -60 100 -125zM56 0c0 46 -16 94 -56 94s-56 -48 -56 -94s16 -94 56 -94s56 48 56 94z" />
    <glyph glyph-name="scripts.stopped" unicode="&#xe175;" horiz-adv-x="138" 
d="M0 -138c-15 0 -27 13 -27 28v83h-83c-15 0 -28 12 -28 27s13 27 28 27h83v83c0 15 12 28 27 28s27 -13 27 -28v-83h83c15 0 28 -12 28 -27s-13 -27 -28 -27h-83v-83c0 -15 -12 -28 -27 -28z" />
    <glyph glyph-name="scripts.upbow" unicode="&#xe176;" horiz-adv-x="163" 
d="M125 506c3 9 10 14 19 14c10 0 18 -8 19 -19c0 -2 -1 -4 -1 -5l-143 -477c0 -13 -6 -19 -19 -19s-19 6 -19 19l-143 477c0 1 -1 3 -1 5c1 11 9 19 19 19c9 0 16 -5 19 -14l86 -291l39 -162l39 162z" />
    <glyph glyph-name="scripts.downbow" unicode="&#xe177;" horiz-adv-x="188" 
d="M-176 333h352c6 0 12 -5 12 -11v-306c0 -9 -8 -16 -17 -16s-16 7 -16 16v184h-310v-184c0 -9 -7 -16 -16 -16s-17 7 -17 16v306c0 6 6 11 12 11z" />
    <glyph glyph-name="scripts.reverseturn" unicode="&#xe178;" horiz-adv-x="274" 
d="M138 132c74 0 135 -58 135 -132c0 -70 -47 -132 -113 -132c-36 0 -69 21 -69 53c0 33 24 54 54 54c20 0 40 -10 49 -31c26 4 49 26 49 56c0 31 -28 53 -60 53c-117 0 -187 -185 -321 -185c-74 0 -135 58 -135 132c0 70 47 132 113 132c36 0 69 -21 69 -53
c0 -33 -24 -54 -54 -54c-20 0 -40 10 -49 31c-26 -4 -49 -26 -49 -56c0 -31 28 -53 60 -53c117 0 187 185 321 185z" />
    <glyph glyph-name="scripts.turn" unicode="&#xe179;" horiz-adv-x="274" 
d="M138 -132c-134 0 -204 185 -321 185c-32 0 -60 -22 -60 -53c0 -30 23 -52 49 -56c9 21 29 31 49 31c30 0 54 -21 54 -54c0 -32 -33 -53 -69 -53c-66 0 -113 62 -113 132c0 74 61 132 135 132c134 0 204 -185 321 -185c32 0 60 22 60 53c0 30 -23 52 -49 56
c-9 -21 -29 -31 -49 -31c-30 0 -54 21 -54 54c0 32 33 53 69 53c66 0 113 -62 113 -132c0 -74 -61 -132 -135 -132z" />
    <glyph glyph-name="scripts.trill" unicode="&#xe17a;" horiz-adv-x="213" 
d="M-322 222c0 34 27 82 97 82c30 0 57 -10 81 -24l46 230c6 -3 13 -5 20 -5c22 0 48 15 68 35l-53 -265l64 35c26 15 51 21 74 21c28 0 51 -10 63 -28c18 19 44 29 68 29c37 0 70 -22 70 -70c0 -46 -27 -91 -65 -91c-26 0 -39 22 -39 48c0 52 40 64 61 64h3
c-8 15 -23 21 -38 21c-23 0 -48 -16 -54 -42l-54 -270c-11 7 -24 11 -38 11c-15 0 -29 -4 -44 -11l54 270c1 3 1 5 1 7c0 15 -13 25 -29 25c-7 0 -15 -2 -23 -7l-81 -44l-5 -29c26 -32 49 -67 49 -110c0 -65 -52 -114 -98 -114c-40 0 -56 43 -56 90c0 13 2 28 4 41l15 75
c-47 -20 -81 -24 -101 -24c-51 0 -60 30 -60 50zM-295 228c0 -12 5 -30 38 -30c30 0 70 13 102 28l5 22c-23 17 -50 29 -81 29c-50 0 -64 -30 -64 -49zM-87 39c23 0 34 37 34 61c0 29 -13 53 -30 76l-5 -25c-4 -19 -14 -58 -14 -84c0 -17 4 -28 15 -28z" />
    <glyph glyph-name="scripts.upedalheel" unicode="&#xe17b;" horiz-adv-x="125" 
d="M0 -84c47 0 84 37 84 84v146c0 12 10 21 21 21s20 -9 20 -21v-146c0 -69 -56 -125 -125 -125s-125 56 -125 125v146c0 12 9 21 20 21s21 -9 21 -21v-146c0 -47 37 -84 84 -84z" />
    <glyph glyph-name="scripts.dpedalheel" unicode="&#xe17c;" horiz-adv-x="125" 
d="M0 84c-47 0 -84 -37 -84 -84v-146c0 -12 -10 -21 -21 -21s-20 9 -20 21v146c0 69 56 125 125 125s125 -56 125 -125v-146c0 -12 -9 -21 -20 -21s-21 9 -21 21v146c0 47 -37 84 -84 84z" />
    <glyph glyph-name="scripts.upedaltoe" unicode="&#xe17d;" horiz-adv-x="125" 
d="M85 361c3 8 11 14 20 14c11 0 20 -9 20 -20c0 -2 0 -4 -1 -6l-104 -329c0 -14 -6 -20 -20 -20s-20 6 -20 20l-104 329c-1 2 -1 4 -1 6c0 11 9 20 20 20c9 0 17 -6 20 -14l63 -203l22 -101l22 101z" />
    <glyph glyph-name="scripts.dpedaltoe" unicode="&#xe17e;" horiz-adv-x="125" 
d="M85 -361l-63 203l-22 101l-22 -101l-63 -203c-3 -8 -11 -14 -20 -14c-11 0 -20 9 -20 20c0 2 0 4 1 6l104 329c0 14 6 20 20 20s20 -6 20 -20l104 -329c1 -2 1 -4 1 -6c0 -11 -9 -20 -20 -20c-9 0 -17 6 -20 14z" />
    <glyph glyph-name="scripts.flageolet" unicode="&#xe17f;" horiz-adv-x="133" 
d="M0 133c74 0 133 -59 133 -133s-59 -133 -133 -133s-133 59 -133 133s59 133 133 133zM0 111c-61 0 -111 -50 -111 -111s50 -111 111 -111s111 50 111 111s-50 111 -111 111z" />
    <glyph glyph-name="scripts.segno" unicode="&#xe180;" horiz-adv-x="250" 
d="M-201 -54c0 17 14 31 31 31s31 -14 31 -31s-14 -31 -31 -31s-31 14 -31 31zM139 54c0 17 14 31 31 31s31 -14 31 -31s-14 -31 -31 -31s-31 14 -31 31zM-36 -227c0 28 11 60 55 60c40 0 59 -31 59 -63c0 -28 -14 -56 -39 -65c8 -28 34 -49 66 -49c37 0 65 34 65 73
c0 99 -81 167 -170 218l-188 -322h-62l203 348c-103 58 -203 133 -203 245c0 86 63 157 145 157c79 0 141 -67 141 -148c0 -28 -11 -60 -55 -60c-40 0 -59 31 -59 63c0 28 14 56 39 65c-8 28 -34 49 -66 49c-37 0 -65 -34 -65 -73c0 -99 81 -167 170 -218l188 322h62
l-203 -348c103 -58 203 -133 203 -245c0 -86 -63 -157 -145 -157c-79 0 -141 67 -141 148z" />
    <glyph glyph-name="scripts.coda" unicode="&#xe181;" horiz-adv-x="255" 
d="M16 -338c0 -8 -7 -16 -16 -16s-16 8 -16 16v89c-96 11 -146 120 -150 233h-88c-9 0 -16 7 -16 16s7 16 16 16h88c4 113 54 222 150 233v89c0 8 7 16 16 16s16 -8 16 -16v-89c96 -11 146 -120 150 -233h88c9 0 16 -7 16 -16s-7 -16 -16 -16h-88
c-4 -113 -54 -222 -150 -233v-89zM16 16h77c-1 91 -9 187 -77 200v-200zM16 -16v-200c68 13 76 109 77 200h-77zM-16 16v200c-68 -13 -76 -109 -77 -200h77zM-16 -16h-77c1 -91 9 -187 77 -200v200z" />
    <glyph glyph-name="scripts.varcoda" unicode="&#xe182;" horiz-adv-x="257" 
d="M16 -340c0 -8 -7 -16 -16 -16s-16 8 -16 16v90h-139c-7 0 -12 5 -12 11v223h-89c-9 0 -16 7 -16 16s7 16 16 16h89v223c0 6 5 11 12 11h139v90c0 8 7 16 16 16s16 -8 16 -16v-90h139c7 0 12 -5 12 -11v-223h89c9 0 16 -7 16 -16s-7 -16 -16 -16h-89v-223
c0 -6 -5 -11 -12 -11h-67h-72v-90zM16 16h61v202h-61v-202zM16 -16v-202h61v202h-61zM-16 16v202h-61v-202h61zM-16 -16h-61v-202h61v202z" />
    <glyph glyph-name="scripts.rcomma" unicode="&#xe183;" horiz-adv-x="125" 
d="M51 14c0 64 -32 75 -32 103c0 22 18 40 41 40c38 0 58 -56 58 -96c0 -68 -46 -142 -91 -207c-4 -5 -9 -7 -14 -7c-9 0 -16 7 -16 16c0 13 54 70 54 151z" />
    <glyph glyph-name="scripts.lcomma" unicode="&#xe184;" horiz-adv-x="0" 
d="M-51 -14c0 -64 32 -75 32 -103c0 -22 -18 -40 -41 -40c-38 0 -58 56 -58 96c0 68 46 142 91 207c4 5 9 7 14 7c9 0 16 -7 16 -16c0 -13 -54 -70 -54 -151z" />
    <glyph glyph-name="scripts.rvarcomma" unicode="&#xe185;" horiz-adv-x="62" 
d="M-63 -166c-10 0 -15 8 -15 16c0 2 0 4 1 6l102 310c5 15 20 25 37 25c24 0 42 -20 42 -40c0 -6 -1 -11 -4 -17l-148 -290c-3 -6 -9 -10 -15 -10z" />
    <glyph glyph-name="scripts.lvarcomma" unicode="&#xe186;" horiz-adv-x="62" 
d="M63 166c10 0 15 -8 15 -16c0 -2 0 -4 -1 -6l-102 -310c-5 -15 -20 -25 -37 -25c-24 0 -42 20 -42 40c0 6 1 11 4 17l148 290c3 6 9 10 15 10z" />
    <glyph glyph-name="scripts.arpeggio" unicode="&#xe187;" 
d="M-2 76c0 41 91 64 91 129c0 17 -6 33 -17 47l-30 26c-4 3 -6 8 -6 12c0 8 7 16 16 16c4 0 7 -1 10 -3l129 -109c8 -6 11 -13 11 -20c0 -41 -91 -64 -91 -129c0 -17 6 -33 17 -47l30 -26c5 -3 6 -8 6 -12c0 -9 -7 -17 -16 -17c-3 0 -7 2 -10 4l-129 109
c-8 6 -11 13 -11 20z" />
    <glyph glyph-name="scripts.trill_element" unicode="&#xe188;" horiz-adv-x="250" 
d="M174 -2c-41 0 -64 91 -129 91c-17 0 -33 -6 -47 -17l-26 -30c-3 -4 -8 -6 -12 -6c-8 0 -16 7 -16 16c0 4 1 7 3 10l109 129c6 8 13 11 20 11c41 0 64 -91 129 -91c17 0 33 6 47 17l26 30c3 5 8 6 12 6c9 0 17 -7 17 -16c0 -3 -2 -7 -4 -10l-109 -129
c-6 -8 -13 -11 -20 -11z" />
    <glyph glyph-name="scripts.arpeggio.arrow.M1" unicode="&#xe189;" 
d="M42 278c-5 4 -7 8 -7 13c0 9 8 17 17 17c3 0 7 -2 10 -5l86 -93c11 -12 17 -26 20 -42l78 37c13 6 14 -2 14 -5c0 -19 -120 -105 -154 -197c0 -1 -1 -3 -7 -3c-2 0 -4 0 -4 2c-34 92 -155 179 -155 198c0 7 5 10 13 6l92 -44c17 21 41 42 41 64c0 8 -4 17 -14 26z" />
    <glyph glyph-name="scripts.arpeggio.arrow.1" unicode="&#xe18a;" 
d="M158 -28c5 -4 7 -8 7 -13c0 -9 -8 -17 -17 -17c-3 0 -7 2 -10 5l-86 93c-11 12 -17 26 -20 42l-78 -37c-13 -6 -14 2 -14 5c0 19 120 105 154 197c0 1 1 3 7 3c2 0 4 0 4 -2c34 -92 155 -179 155 -198c0 -7 -5 -10 -13 -6l-92 44c-17 -21 -41 -42 -41 -64
c0 -8 4 -17 14 -26z" />
    <glyph glyph-name="scripts.trilelement" unicode="&#xe18b;" horiz-adv-x="104" 
d="M-79 0l-8 -11l-34 22l69 105c4 6 11 9 17 9c7 0 12 -3 16 -7l98 -118l8 11l34 -22l-69 -105c-4 -6 -11 -9 -17 -9c-7 0 -12 3 -16 7z" />
    <glyph glyph-name="scripts.prall" unicode="&#xe18c;" horiz-adv-x="209" 
d="M214 46c4 6 11 9 17 9c12 0 21 -9 21 -20c0 -4 -1 -8 -3 -12l-93 -139c-4 -6 -10 -9 -17 -9c-6 0 -12 3 -16 7l-98 118l-77 -116c-4 -6 -11 -9 -18 -9c-6 0 -12 3 -15 7l-98 118l-31 -46c-4 -6 -11 -9 -17 -9c-12 0 -21 9 -21 20c0 4 1 8 3 12l93 139c4 6 10 9 17 9
c6 0 12 -3 16 -7l98 -118l77 116c4 6 11 9 18 9c6 0 12 -3 15 -7l98 -118z" />
    <glyph glyph-name="scripts.mordent" unicode="&#xe18d;" horiz-adv-x="209" 
d="M0 -167c-11 0 -21 10 -21 21v78l-31 -48c-4 -6 -11 -9 -18 -9c-6 0 -12 3 -15 7l-98 118l-31 -46c-4 -6 -11 -9 -17 -9c-12 0 -21 9 -21 20c0 4 1 8 3 12l93 139c4 6 10 9 17 9c6 0 12 -3 16 -7l98 -118l4 6v140c0 11 10 21 21 21s21 -10 21 -21v-78l31 48c4 6 11 9 18 9
c6 0 12 -3 15 -7l98 -118l31 46c4 6 11 9 17 9c12 0 21 -9 21 -20c0 -4 -1 -8 -3 -12l-93 -139c-4 -6 -10 -9 -17 -9c-6 0 -12 3 -16 7l-98 118l-4 -6v-140c0 -11 -10 -21 -21 -21z" />
    <glyph glyph-name="scripts.prallprall" unicode="&#xe18e;" horiz-adv-x="313" 
d="M318 46c4 6 11 9 18 9c11 0 20 -9 20 -20c0 -4 -1 -8 -3 -12l-93 -139c-4 -6 -10 -9 -17 -9c-6 0 -12 3 -16 7l-98 118l-77 -116c-4 -6 -11 -9 -17 -9c-7 0 -12 3 -16 7l-98 118l-78 -116c-3 -6 -10 -9 -17 -9c-6 0 -12 3 -16 7l-98 118l-30 -46c-4 -6 -11 -9 -18 -9
c-11 0 -20 9 -20 20c0 4 1 8 3 12l93 139c4 6 10 9 17 9c6 0 12 -3 16 -7l98 -118l77 116c4 6 11 9 17 9c7 0 12 -3 16 -7l98 -118l78 116c3 6 10 9 17 9c6 0 12 -3 16 -7l98 -118z" />
    <glyph glyph-name="scripts.prallmordent" unicode="&#xe18f;" horiz-adv-x="313" 
d="M104 -167c-11 0 -20 10 -20 21v78l-32 -48c-4 -6 -11 -9 -17 -9c-7 0 -12 3 -16 7l-98 118l-78 -116c-3 -6 -10 -9 -17 -9c-6 0 -12 3 -16 7l-98 118l-30 -46c-4 -6 -11 -9 -18 -9c-11 0 -20 9 -20 20c0 4 1 8 3 12l93 139c4 6 10 9 17 9c6 0 12 -3 16 -7l98 -118l77 116
c4 6 11 9 17 9c7 0 12 -3 16 -7l98 -118l5 6v140c0 11 9 21 20 21c12 0 21 -10 21 -21v-78l32 48c3 6 10 9 17 9c6 0 12 -3 16 -7l98 -118l30 46c4 6 11 9 18 9c11 0 20 -9 20 -20c0 -4 -1 -8 -3 -12l-93 -139c-4 -6 -10 -9 -17 -9c-6 0 -12 3 -16 7l-98 118l-4 -6v-140
c0 -11 -9 -21 -21 -21z" />
    <glyph glyph-name="scripts.upprall" unicode="&#xe190;" horiz-adv-x="313" 
d="M-336 -305c-27 0 -58 85 -58 145c0 48 14 95 41 137l93 139c4 6 10 9 17 9c6 0 12 -3 16 -7l98 -118l77 116c4 6 11 9 17 9c7 0 12 -3 16 -7l98 -118l78 116c3 6 10 9 17 9c6 0 12 -3 16 -7l98 -118l30 46c4 6 11 9 18 9c11 0 20 -9 20 -20c0 -4 -1 -8 -3 -12l-93 -139
c-4 -6 -10 -9 -17 -9c-6 0 -12 3 -16 7l-98 118l-77 -116c-4 -6 -11 -9 -17 -9c-7 0 -12 3 -16 7l-98 118l-78 -116c-3 -6 -10 -9 -17 -9c-6 0 -12 3 -16 7l-98 118l-30 -46c-23 -34 -35 -74 -35 -114c0 -76 38 -111 38 -125c0 -11 -9 -20 -21 -20z" />
    <glyph glyph-name="scripts.upmordent" unicode="&#xe191;" horiz-adv-x="313" 
d="M-336 -305c-27 0 -58 85 -58 145c0 48 14 95 41 137l93 139c4 6 10 9 17 9c6 0 12 -3 16 -7l98 -118l77 116c4 6 11 9 17 9c7 0 12 -3 16 -7l98 -118l5 6v140c0 11 9 21 20 21c12 0 21 -10 21 -21v-78l32 48c3 6 10 9 17 9c6 0 12 -3 16 -7l98 -118l30 46c4 6 11 9 18 9
c11 0 20 -9 20 -20c0 -4 -1 -8 -3 -12l-93 -139c-4 -6 -10 -9 -17 -9c-6 0 -12 3 -16 7l-98 118l-4 -6v-140c0 -11 -9 -21 -21 -21c-11 0 -20 10 -20 21v78l-32 -48c-4 -6 -11 -9 -17 -9c-7 0 -12 3 -16 7l-98 118l-78 -116c-3 -6 -10 -9 -17 -9c-6 0 -12 3 -16 7l-98 118
l-30 -46c-23 -34 -35 -74 -35 -114c0 -76 38 -111 38 -125c0 -11 -9 -20 -21 -20z" />
    <glyph glyph-name="scripts.pralldown" unicode="&#xe192;" horiz-adv-x="313" 
d="M336 -305c-12 0 -21 9 -21 20c0 14 38 49 38 125c0 40 -12 80 -35 114l-30 46l-98 -118c-4 -4 -10 -7 -16 -7c-7 0 -14 3 -17 9l-78 116l-98 -118c-4 -4 -9 -7 -16 -7c-6 0 -13 3 -17 9l-77 116l-98 -118c-4 -4 -10 -7 -16 -7c-7 0 -13 3 -17 9l-93 139c-2 4 -3 8 -3 12
c0 11 9 20 20 20c7 0 14 -3 18 -9l30 -46l98 118c4 4 10 7 16 7c7 0 14 -3 17 -9l78 -116l98 118c4 4 9 7 16 7c6 0 13 -3 17 -9l77 -116l98 118c4 4 10 7 16 7c7 0 13 -3 17 -9l93 -139c27 -42 41 -89 41 -137c0 -60 -31 -145 -58 -145z" />
    <glyph glyph-name="scripts.downprall" unicode="&#xe193;" horiz-adv-x="313" 
d="M-394 90c0 63 32 146 58 146c16 0 27 -18 18 -32c-23 -34 -35 -74 -35 -114c0 -29 6 -58 19 -85l74 111c4 6 10 9 17 9c6 0 12 -3 16 -7l98 -118l77 116c4 6 11 9 17 9c7 0 12 -3 16 -7l98 -118l78 116c3 6 10 9 17 9c6 0 12 -3 16 -7l98 -118l30 46c4 6 11 9 18 9
c11 0 20 -9 20 -20c0 -4 -1 -8 -3 -12l-93 -139c-4 -6 -10 -9 -17 -9c-6 0 -12 3 -16 7l-98 118l-77 -116c-4 -6 -11 -9 -17 -9c-7 0 -12 3 -16 7l-98 118l-78 -116c-3 -6 -10 -9 -17 -9c-6 0 -12 3 -16 7l-98 118l-30 -46c-4 -6 -11 -9 -18 -9c-28 0 -58 87 -58 145z" />
    <glyph glyph-name="scripts.downmordent" unicode="&#xe194;" horiz-adv-x="313" 
d="M-394 90c0 63 32 146 58 146c16 0 27 -18 18 -32c-23 -34 -35 -74 -35 -114c0 -29 6 -58 19 -85l74 111c4 6 10 9 17 9c6 0 12 -3 16 -7l98 -118l77 116c4 6 11 9 17 9c7 0 12 -3 16 -7l98 -118l5 6v140c0 11 9 21 20 21c12 0 21 -10 21 -21v-78l32 48c3 6 10 9 17 9
c6 0 12 -3 16 -7l98 -118l30 46c4 6 11 9 18 9c11 0 20 -9 20 -20c0 -4 -1 -8 -3 -12l-93 -139c-4 -6 -10 -9 -17 -9c-6 0 -12 3 -16 7l-98 118l-4 -6v-140c0 -11 -9 -21 -21 -21c-11 0 -20 10 -20 21v78l-32 -48c-4 -6 -11 -9 -17 -9c-7 0 -12 3 -16 7l-98 118l-78 -116
c-3 -6 -10 -9 -17 -9c-6 0 -12 3 -16 7l-98 118l-30 -46c-4 -6 -11 -9 -18 -9c-28 0 -58 87 -58 145z" />
    <glyph glyph-name="scripts.prallup" unicode="&#xe195;" horiz-adv-x="313" 
d="M394 90c0 -58 -30 -145 -58 -145c-7 0 -14 3 -18 9l-30 46l-98 -118c-4 -4 -10 -7 -16 -7c-7 0 -14 3 -17 9l-78 116l-98 -118c-4 -4 -9 -7 -16 -7c-6 0 -13 3 -17 9l-77 116l-98 -118c-4 -4 -10 -7 -16 -7c-7 0 -13 3 -17 9l-93 139c-2 4 -3 8 -3 12c0 11 9 20 20 20
c7 0 14 -3 18 -9l30 -46l98 118c4 4 10 7 16 7c7 0 14 -3 17 -9l78 -116l98 118c4 4 9 7 16 7c6 0 13 -3 17 -9l77 -116l98 118c4 4 10 7 16 7c7 0 13 -3 17 -9l74 -111c13 27 19 56 19 85c0 40 -12 80 -35 114c-9 14 2 32 18 32c26 0 58 -83 58 -146z" />
    <glyph glyph-name="scripts.lineprall" unicode="&#xe196;" horiz-adv-x="313" 
d="M318 46c4 6 11 9 18 9c11 0 20 -9 20 -20c0 -4 -1 -8 -3 -12l-93 -139c-4 -6 -10 -9 -17 -9c-6 0 -12 3 -16 7l-98 118l-77 -116c-4 -6 -11 -9 -17 -9c-7 0 -12 3 -16 7l-98 118l-78 -116c-3 -6 -10 -9 -17 -9c-6 0 -12 3 -16 7l-98 118l-30 -46c-4 -6 -11 -9 -18 -9
c-11 0 -20 9 -20 20v500c0 12 9 21 20 21c12 0 21 -9 21 -21v-432l55 83c4 6 10 9 17 9c6 0 12 -3 16 -7l98 -118l77 116c4 6 11 9 17 9c7 0 12 -3 16 -7l98 -118l78 116c3 6 10 9 17 9c6 0 12 -3 16 -7l98 -118z" />
    <glyph glyph-name="scripts.caesura.curved" unicode="&#xe197;" horiz-adv-x="501" 
d="M170 -200c-12 0 -20 10 -20 20c0 21 77 130 98 462c1 18 16 32 33 32c20 0 34 -16 34 -34c0 -69 -26 -239 -126 -468c-3 -7 -11 -12 -19 -12zM20 -200c-12 0 -20 10 -20 20c0 21 77 130 98 462c1 18 16 32 33 32c20 0 34 -16 34 -34c0 -69 -26 -239 -126 -468
c-3 -7 -11 -12 -19 -12z" />
    <glyph glyph-name="scripts.caesura.straight" unicode="&#xe198;" horiz-adv-x="501" 
d="M150 -180l230 460c6 12 19 20 32 20h33c8 0 14 -7 14 -14c0 -2 0 -4 -1 -6l-230 -460c-6 -12 -19 -20 -33 -20h-33c-10 0 -17 11 -12 20zM10 -180l230 460c6 12 19 20 32 20h33c8 0 14 -7 14 -14c0 -2 0 -4 -1 -6l-230 -460c-6 -12 -19 -20 -33 -20h-33
c-8 0 -13 7 -13 14c0 2 0 4 1 6z" />
    <glyph glyph-name="flags.u3" unicode="&#xe199;" horiz-adv-x="227" 
d="M-18 -250v250h18c0 -197 209 -335 209 -532c0 -71 -16 -141 -42 -207c-5 -8 -12 -12 -20 -12c-14 0 -27 12 -24 28c26 61 42 125 42 191c0 103 -94 207 -165 282h-18z" />
    <glyph glyph-name="flags.u4" unicode="&#xe19a;" horiz-adv-x="227" 
d="M0 0c0 -178 203 -291 203 -469c0 -33 -9 -65 -23 -95c18 -37 29 -75 29 -117c0 -64 -16 -125 -42 -183c-5 -8 -12 -12 -20 -12c-14 0 -27 12 -24 28c26 52 42 109 42 167c0 96 -94 190 -165 256v-75h-18v500h18zM151 -514c5 14 8 30 8 45c0 96 -91 189 -159 256
c0 -116 89 -204 151 -301z" />
    <glyph glyph-name="flags.u5" unicode="&#xe19b;" horiz-adv-x="210" 
d="M0 -212v-5c0 -112 85 -196 145 -288c2 10 4 20 4 31c0 94 -85 191 -149 262zM0 0c0 -177 193 -297 193 -474c0 -29 -7 -56 -19 -82c18 -35 29 -73 29 -113c0 -36 -9 -71 -23 -104c17 -35 29 -73 29 -114c0 -61 -16 -120 -42 -175c-5 -9 -12 -13 -20 -13
c-14 0 -27 12 -24 29c26 49 42 103 42 159c0 93 -94 179 -165 240v-103h-18v750h18zM0 -430v-5c0 -113 88 -196 150 -288c6 17 9 35 9 54c0 91 -91 178 -159 239z" />
    <glyph glyph-name="flags.u6" unicode="&#xe19c;" horiz-adv-x="210" 
d="M0 -213v-12c0 -113 84 -198 144 -291c3 11 5 22 5 34c0 97 -85 197 -149 269zM0 0c0 -179 193 -303 193 -482c0 -30 -7 -60 -19 -87c18 -36 29 -74 29 -115c0 -39 -11 -76 -29 -111c18 -35 29 -73 29 -114c0 -33 -13 -64 -35 -89c24 -42 41 -86 41 -136
c0 -62 -16 -122 -42 -178c-5 -9 -12 -13 -20 -13c-14 0 -27 12 -24 29c26 50 42 105 42 162c0 94 -94 184 -165 247v-113h-18v1000h18zM0 -438v-12c0 -114 87 -201 147 -296c7 20 12 41 12 62c0 93 -91 183 -159 246zM0 -662v-13c0 -111 82 -194 144 -284c9 15 15 32 15 50
c0 93 -91 183 -159 247z" />
    <glyph glyph-name="flags.d3" unicode="&#xe19d;" horiz-adv-x="270" 
d="M195 725c33 0 74 -131 74 -212c0 -205 -269 -308 -269 -513h-18v250h18c97 60 225 151 225 263c0 65 -21 128 -54 183c-3 17 10 29 24 29z" />
    <glyph glyph-name="flags.ugrace" unicode="&#xe19e;" horiz-adv-x="210" 
d="M209 -224c15 0 27 -11 27 -27c0 -7 -4 -15 -10 -20l-360 -290c-5 -3 -10 -5 -16 -5h-1c-14 0 -26 12 -26 27c0 7 4 15 10 20l360 290c4 3 10 5 16 5z" />
    <glyph glyph-name="flags.dgrace" unicode="&#xe19f;" horiz-adv-x="270" 
d="M-207 490c-8 5 -13 13 -13 23c0 15 11 26 26 26c5 0 9 -1 13 -3l463 -266c9 -4 14 -13 14 -22c0 -15 -12 -27 -27 -27c-5 0 -9 1 -13 4z" />
    <glyph glyph-name="flags.d4" unicode="&#xe1a0;" horiz-adv-x="270" 
d="M0 200c91 53 212 134 212 237c0 23 -5 47 -14 69c-80 -88 -198 -159 -198 -281v-25zM269 662c0 -44 -15 -82 -38 -116c15 -34 25 -71 25 -109c0 -181 -256 -256 -256 -437h-18v500h18v-75c97 51 225 130 225 237c0 21 -5 41 -14 61c-3 16 11 28 24 28c33 0 34 -77 34 -89
z" />
    <glyph glyph-name="flags.d5" unicode="&#xe1a1;" horiz-adv-x="270" 
d="M0 210c88 58 204 144 204 247c0 18 -4 34 -11 50c-77 -88 -193 -161 -193 -282v-15zM269 886c0 -44 -15 -81 -38 -115c19 -34 30 -72 30 -110c0 -44 -14 -80 -37 -114c15 -28 24 -58 24 -90c0 -184 -248 -272 -248 -457h-18v750h18v-90c97 46 225 122 225 226
c0 21 -5 41 -14 60c-3 17 11 29 24 29c33 0 34 -77 34 -89zM0 435c94 48 217 124 217 226c0 25 -6 49 -17 71c-80 -88 -200 -159 -200 -282v-15z" />
    <glyph glyph-name="flags.d6" unicode="&#xe1a2;" horiz-adv-x="270" 
d="M269 1026c0 -28 -7 -51 -19 -72c7 -27 11 -55 11 -83c0 -30 -7 -56 -19 -81c7 -33 11 -68 11 -102c0 -37 -9 -70 -25 -101c2 -32 3 -64 3 -97c0 -188 -231 -297 -231 -486v-4h-18v1000h18v-125c98 16 225 61 225 151c0 27 -6 43 -6 50c0 14 12 24 25 24
c20 0 25 -18 25 -74zM0 205c80 73 186 177 186 285v34c-75 -95 -186 -175 -186 -299v-20zM0 425c90 62 209 155 209 263c0 16 -1 32 -3 48c-77 -92 -206 -161 -206 -286v-25zM0 650c94 46 217 120 217 221c0 13 -1 26 -4 39c-79 -74 -213 -119 -213 -235v-25z" />
    <glyph glyph-name="clefs.C" unicode="&#xe1a3;" horiz-adv-x="684" 
d="M322 0c0 -36 7 -73 44 -73c30 0 56 32 87 32c123 0 229 -90 229 -209c0 -168 -91 -250 -262 -250c-82 0 -152 61 -152 142c0 42 34 76 76 76s76 -34 76 -76c0 -39 -48 -38 -48 -76c0 -23 23 -37 48 -37c115 0 138 89 138 221c0 106 -12 181 -105 181
c-71 0 -116 -72 -116 -148c0 -10 -8 -15 -15 -15s-14 5 -14 15c0 75 -30 146 -83 198v-470c0 -6 -5 -11 -11 -11h-21c-6 0 -11 5 -11 11v978c0 6 5 11 11 11h21c6 0 11 -5 11 -11v-470c53 52 83 123 83 198c0 10 7 15 14 15s15 -5 15 -15c0 -76 45 -148 116 -148
c93 0 105 75 105 181c0 132 -23 221 -138 221c-25 0 -48 -14 -48 -37c0 -38 48 -37 48 -76c0 -42 -34 -76 -76 -76s-76 34 -76 76c0 81 70 142 152 142c171 0 262 -82 262 -250c0 -119 -106 -209 -229 -209c-31 0 -57 32 -87 32c-36 0 -44 -37 -44 -73zM128 -500h-117
c-6 0 -11 5 -11 11v978c0 6 5 11 11 11h117c6 0 11 -5 11 -11v-978c0 -6 -5 -11 -11 -11z" />
    <glyph glyph-name="clefs.C_change" unicode="&#xe1a4;" horiz-adv-x="553" 
d="M269 0c0 -25 2 -57 33 -57c23 0 43 29 68 29c98 0 181 -75 181 -172c0 -133 -69 -200 -203 -200c-65 0 -120 49 -120 112c0 33 27 60 60 60s60 -27 60 -60c0 -30 -35 -30 -35 -60c0 -16 17 -26 35 -26c91 0 108 70 108 174c0 86 -11 146 -86 146c-54 0 -89 -55 -89 -114
c0 -8 -6 -13 -12 -13c-7 0 -13 5 -13 13c0 58 -25 113 -67 152v-373c0 -6 -5 -11 -11 -11h-16c-6 0 -11 5 -11 11v778c0 6 5 11 11 11h16c6 0 11 -5 11 -11v-373c42 39 67 94 67 152c0 8 6 13 13 13c6 0 12 -5 12 -13c0 -59 35 -114 89 -114c75 0 86 60 86 146
c0 104 -17 174 -108 174c-18 0 -35 -10 -35 -26c0 -30 35 -30 35 -60c0 -33 -27 -60 -60 -60s-60 27 -60 60c0 63 55 112 120 112c134 0 203 -67 203 -200c0 -97 -83 -172 -181 -172c-25 0 -45 29 -68 29c-31 0 -33 -33 -33 -57zM102 -400h-91c-6 0 -11 5 -11 11v778
c0 6 5 11 11 11h91c6 0 11 -5 11 -11v-778c0 -6 -5 -11 -11 -11z" />
    <glyph glyph-name="clefs.F" unicode="&#xe1a5;" horiz-adv-x="673" 
d="M558 -125c0 28 22 51 50 51s51 -23 51 -51s-23 -51 -51 -51s-50 23 -50 51zM558 125c0 28 22 51 50 51s51 -23 51 -51s-23 -51 -51 -51s-50 23 -50 51zM231 264c173 0 294 -88 294 -251c0 -264 -263 -415 -515 -523c-3 -3 -7 -4 -10 -4c-7 0 -14 7 -14 14c0 3 1 7 4 10
c201 117 410 264 410 492c0 119 -61 234 -169 234c-72 0 -124 -52 -148 -123c10 4 20 6 29 6c56 0 100 -45 100 -100c0 -58 -43 -106 -100 -106c-59 0 -112 47 -112 106c0 133 101 245 231 245z" />
    <glyph glyph-name="clefs.F_change" unicode="&#xe1a6;" horiz-adv-x="538" 
d="M446 -100c0 22 18 41 41 41c22 0 40 -19 40 -41s-18 -41 -40 -41c-23 0 -41 19 -41 41zM446 100c0 22 18 41 41 41c22 0 40 -19 40 -41s-18 -41 -40 -41c-23 0 -41 19 -41 41zM179 214c140 0 241 -69 241 -201c0 -212 -209 -334 -410 -423c-3 -3 -7 -4 -10 -4
c-7 0 -14 7 -14 14c0 3 1 7 4 10c150 97 305 216 305 392c0 91 -36 184 -116 184c-50 0 -83 -38 -100 -88c4 0 7 1 11 1c44 0 80 -36 80 -80c0 -46 -35 -85 -80 -85c-48 0 -90 38 -90 85c0 105 77 195 179 195z" />
    <glyph glyph-name="clefs.G" unicode="&#xe1a7;" horiz-adv-x="643" 
d="M639 -3c0 -122 -82 -213 -172 -243c1 -19 1 -37 1 -56c0 -40 -2 -80 -5 -120c-11 -123 -90 -234 -206 -234c-115 0 -213 87 -213 200c0 58 53 104 112 104c54 0 95 -48 95 -104c0 -53 -42 -95 -95 -95c-9 0 -18 2 -27 5c29 -40 75 -66 128 -66c94 0 153 94 162 195
c3 39 5 77 5 116c0 14 0 29 -1 44c-24 -5 -48 -7 -73 -7c-194 0 -350 161 -350 356c0 185 125 326 237 471c-44 129 -69 224 -69 367c0 192 134 319 152 319c33 0 167 -208 167 -374c0 -151 -84 -273 -176 -392c24 -73 47 -146 68 -220c159 -2 260 -132 260 -266zM465 -202
c56 22 108 81 108 162c0 88 -64 175 -165 191c21 -86 47 -211 57 -353zM302 -131c-17 0 -140 58 -140 192c0 91 62 181 172 199c-17 61 -36 121 -56 181c-102 -132 -205 -263 -205 -430c0 -128 141 -230 277 -230c24 0 48 1 71 5c-7 126 -31 255 -58 367
c-86 -5 -134 -60 -134 -121c0 -45 28 -93 88 -124c5 -4 7 -10 7 -16c0 -12 -9 -23 -22 -23zM375 1101c-97 -61 -155 -167 -155 -281c0 -59 34 -167 49 -214c79 106 144 217 144 351c0 63 -7 89 -38 144z" />
    <glyph glyph-name="clefs.G_change" unicode="&#xe1a8;" horiz-adv-x="514" 
d="M514 -2c0 -98 -65 -170 -135 -196v-29c0 -37 -1 -74 -4 -111c-9 -101 -76 -191 -172 -191c-93 0 -172 71 -172 163c0 46 42 83 90 83c43 0 76 -39 76 -83c0 -42 -34 -76 -76 -76h-7c21 -26 53 -43 89 -43c74 0 121 73 128 152c3 35 4 69 4 104v20c-18 -3 -37 -5 -55 -5
c-156 0 -280 131 -280 288c0 145 95 258 182 374c-50 116 -69 177 -69 299c0 157 115 251 132 251c31 0 142 -167 142 -298c0 -119 -64 -216 -134 -310c22 -58 42 -117 59 -177c123 -6 202 -109 202 -215zM377 -153c40 19 76 64 76 123c0 64 -44 128 -115 145
c19 -82 34 -176 39 -268zM241 -109c-16 0 -115 50 -115 157c0 75 51 149 142 163c-13 46 -29 92 -46 138c-80 -106 -159 -212 -159 -345c0 -98 112 -173 217 -173c18 0 36 0 54 3c-6 115 -25 216 -42 286c-67 -4 -105 -47 -105 -94c0 -35 22 -72 69 -96c5 -4 7 -10 7 -16
c0 -11 -9 -23 -22 -23zM291 872c-80 -44 -129 -128 -129 -219c0 -28 13 -66 51 -162c61 85 111 173 111 279c0 46 -6 65 -33 102z" />
    <glyph glyph-name="clefs.percussion" unicode="&#xe1a9;" horiz-adv-x="501" 
d="M489 -250h-90c-6 0 -11 5 -11 11v478c0 6 5 11 11 11h90c6 0 11 -5 11 -11v-478c0 -6 -5 -11 -11 -11zM269 -250h-90c-6 0 -11 5 -11 11v478c0 6 5 11 11 11h90c6 0 11 -5 11 -11v-478c0 -6 -5 -11 -11 -11z" />
    <glyph glyph-name="clefs.percussion_change" unicode="&#xe1aa;" horiz-adv-x="401" 
d="M389 -200h-68c-6 0 -11 5 -11 11v378c0 6 5 11 11 11h68c6 0 11 -5 11 -11v-378c0 -6 -5 -11 -11 -11zM213 -200h-68c-6 0 -11 5 -11 11v378c0 6 5 11 11 11h68c6 0 11 -5 11 -11v-378c0 -6 -5 -11 -11 -11z" />
    <glyph glyph-name="clefs.tab" unicode="&#xe1ab;" horiz-adv-x="702" 
d="M267 -425c0 -11 -3 -27 -43 -27c-42 0 -84 29 -84 75c0 82 118 130 234 130c100 0 215 -21 215 -103c0 -44 -27 -84 -69 -110c58 -11 102 -36 102 -91c0 -81 -86 -158 -179 -158c-71 0 -111 49 -111 60c0 12 16 25 28 25c14 0 16 -25 54 -25c44 0 95 39 95 93
c0 46 -49 64 -101 64c-5 0 -8 7 -8 15c0 11 5 25 18 25c37 0 69 38 69 76c0 20 -7 62 -80 76c-10 -63 -30 -173 -40 -220c-19 -102 -84 -202 -159 -202c-42 0 -66 33 -96 53c-3 2 -4 5 -4 9c0 11 12 26 24 26c16 0 35 -37 72 -37c66 0 89 99 89 195v8c0 35 9 109 18 163
c-39 -13 -70 -40 -70 -70c0 -32 26 -27 26 -50zM70 -119c11 0 34 -20 57 -20c37 0 74 36 91 54c100 102 175 219 214 336c9 27 33 37 57 37c28 0 57 -14 57 -31c0 -2 -18 -365 -18 -365c0 -16 3 -30 21 -30c17 0 47 20 55 20c5 0 9 -9 9 -17s-3 -16 -12 -19
c-31 -10 -57 -34 -87 -34c-32 0 -45 29 -53 58c-16 61 -26 125 -31 191c-26 -35 -55 -69 -87 -101c12 -21 34 -33 64 -33c7 0 11 1 12 1c5 0 8 -7 8 -15c0 -9 -4 -19 -13 -22c-15 -4 -30 -7 -43 -7c-32 0 -56 12 -70 33l-39 -35c-42 -36 -90 -70 -134 -70
c-34 0 -52 21 -78 32c-3 1 -5 5 -5 9c0 11 11 28 25 28zM288 540c0 -14 -9 -24 -42 -24c-48 0 -91 37 -91 84c0 96 131 120 232 120c46 0 121 -41 171 -41c71 0 107 44 119 44c11 0 23 -11 23 -19c0 -7 -64 -75 -150 -75c-17 0 -31 3 -44 6c-8 -58 -25 -152 -35 -193
c-21 -96 -88 -185 -163 -185c-50 0 -75 38 -115 64c-3 2 -4 5 -4 9c0 11 11 26 23 26c17 0 43 -48 82 -48c56 0 83 77 85 150c2 45 13 150 22 208c-12 3 -23 5 -32 5c-63 0 -113 -28 -113 -70c0 -40 32 -35 32 -61z" />
    <glyph glyph-name="clefs.tab_change" unicode="&#xe1ac;" horiz-adv-x="562" 
d="M213 -340c0 -8 0 -21 -33 -21c-35 0 -68 23 -68 59c0 66 95 104 187 104c82 0 173 -17 173 -82c0 -35 -24 -68 -56 -88c46 -9 82 -29 82 -73c0 -64 -69 -126 -144 -126c-56 0 -88 38 -88 48c0 9 13 20 22 20c12 0 12 -20 44 -20c34 0 76 31 76 74c0 37 -40 51 -81 51
c-5 0 -7 6 -7 12c0 9 4 20 15 20c29 0 55 31 55 62c0 15 -6 49 -64 60l-32 -176c-16 -82 -68 -161 -127 -161c-34 0 -54 26 -77 42c-3 2 -4 4 -4 7c0 9 10 21 19 21c13 0 29 -30 59 -30c52 0 71 80 71 156v7c0 28 6 87 14 130c-32 -11 -56 -32 -56 -56c0 -25 20 -22 20 -40z
M56 -95c9 0 28 -16 46 -16c55 0 193 160 243 312c8 22 27 29 46 29c23 0 45 -11 45 -24c0 -2 -14 -292 -14 -292c0 -13 3 -25 17 -25c13 0 37 16 44 16c4 0 7 -6 7 -13c0 -6 -2 -13 -9 -15c-25 -8 -46 -28 -70 -28c-26 0 -54 28 -67 200c-21 -28 -44 -55 -69 -81
c16 -29 47 -26 60 -26c4 0 6 -6 6 -12c0 -20 -30 -23 -45 -23c-25 0 -44 10 -55 27l-31 -28c-34 -29 -72 -56 -108 -56c-24 0 -66 26 -66 32c0 9 9 23 20 23zM230 432c0 -11 -7 -19 -33 -19c-39 0 -73 29 -73 67c0 77 105 96 186 96c37 0 95 -33 136 -33c57 0 86 35 95 35
s19 -9 19 -15s-51 -60 -120 -60c-14 0 -25 2 -35 5c-7 -47 -20 -122 -28 -155c-17 -76 -71 -148 -130 -148c-40 0 -60 31 -92 52c-3 2 -4 4 -4 7c0 9 9 21 18 21c14 0 36 -39 66 -39c78 0 65 150 86 287c-10 2 -19 4 -26 4c-49 0 -90 -23 -90 -56c0 -32 25 -28 25 -49z" />
    <glyph glyph-name="timesig.C44" unicode="&#xe1ad;" horiz-adv-x="424" 
d="M358 29c-25 0 -74 19 -74 73c0 38 27 76 71 76c4 0 8 0 11 -1c-27 36 -69 59 -116 59c-106 0 -113 -74 -113 -188c0 -15 1 -31 1 -48s-1 -33 -1 -48c0 -114 7 -188 113 -188c79 0 136 69 155 150c1 7 7 10 13 10c7 0 14 -5 14 -13c0 -19 -48 -175 -182 -175
c-119 0 -250 63 -250 264c0 202 133 264 250 264c118 0 174 -112 174 -165c0 -39 -30 -70 -66 -70z" />
    <glyph glyph-name="timesig.C22" unicode="&#xe1ae;" horiz-adv-x="424" 
d="M358 29c-25 0 -74 19 -74 73c0 38 27 76 71 76c4 0 8 0 11 -1c-27 36 -69 59 -116 59h-14v-472h14c79 0 136 69 155 150c1 7 7 10 13 10c7 0 14 -5 14 -13c0 -19 -48 -175 -182 -175c-5 0 -9 1 -14 1v-76c0 -6 -5 -11 -11 -11h-17c-6 0 -12 5 -12 11v80
c-117 20 -196 105 -196 259c0 153 79 239 196 259v80c0 6 6 11 12 11h17c6 0 11 -5 11 -11v-76c5 0 9 1 14 1c118 0 174 -112 174 -165c0 -39 -30 -70 -66 -70zM196 -227v454c-55 -23 -59 -88 -59 -179c0 -15 1 -31 1 -48s-1 -33 -1 -48c0 -91 4 -156 59 -179z" />
    <glyph glyph-name="pedal.*" unicode="&#xe1af;" horiz-adv-x="390" 
d="M166 306c0 -16 13 -29 28 -29c16 0 29 13 29 29c0 15 -13 28 -29 28c-15 0 -28 -13 -28 -28zM205 388c0 -21 25 -31 40 -17c19 19 1 53 19 72c11 11 22 15 34 15c26 0 49 -23 49 -49c0 -11 -5 -23 -15 -34c-19 -18 -53 0 -72 -19c-14 -14 -4 -40 17 -40c26 0 38 37 64 37
c32 0 48 -24 48 -47c0 -24 -16 -48 -48 -48c-26 0 -38 37 -64 37c-21 0 -31 -25 -17 -40c19 -19 53 -1 72 -19c10 -11 15 -22 15 -34c0 -26 -23 -49 -49 -49c-12 0 -23 5 -34 15c-18 19 0 53 -19 72c-15 14 -40 4 -40 -17c0 -26 37 -38 37 -64c0 -32 -24 -48 -48 -48
c-23 0 -47 16 -47 48c0 26 37 38 37 64c0 21 -25 31 -40 17c-19 -19 -1 -53 -19 -72c-11 -10 -23 -15 -34 -15c-26 0 -49 23 -49 49c0 12 4 23 15 34c19 18 53 0 72 19c14 15 4 40 -17 40c-26 0 -38 -37 -64 -37c-32 0 -48 24 -48 48c0 23 16 47 48 47c26 0 38 -37 64 -37
c21 0 31 25 17 40c-19 19 -53 1 -72 19c-11 11 -15 23 -15 34c0 26 23 49 49 49c11 0 23 -4 34 -15c18 -19 0 -53 19 -72c14 -14 40 -4 40 17c0 26 -37 38 -37 64c0 32 24 48 47 48c24 0 48 -16 48 -48c0 -26 -37 -38 -37 -64z" />
    <glyph glyph-name="pedal.M" unicode="&#xe1b0;" horiz-adv-x="219" 
d="M0 154l36 63c14 11 33 14 53 14c25 0 52 -4 76 -4c21 0 40 3 53 14l-36 -63c-13 -11 -32 -14 -53 -14c-24 0 -52 4 -76 4c-21 0 -40 -3 -53 -14z" />
    <glyph glyph-name="pedal.." unicode="&#xe1b1;" horiz-adv-x="73" 
d="M0 36c0 21 16 37 36 37c21 0 37 -16 37 -37c0 -20 -16 -36 -37 -36c-20 0 -36 16 -36 36z" />
    <glyph glyph-name="pedal.P" unicode="&#xe1b2;" horiz-adv-x="418" 
d="M43 337c0 -37 29 -49 38 -49c22 0 43 31 43 62c0 8 19 8 19 0c0 -65 -40 -130 -83 -130c-25 0 -63 26 -63 80c0 84 91 200 253 200c108 0 168 -82 168 -146c0 -45 -32 -67 -53 -67c-36 0 -69 50 -89 93c-4 7 14 15 17 8c9 -18 28 -34 46 -34c19 0 31 16 31 35
c0 38 -44 92 -120 92h-8c-14 -30 -37 -96 -37 -106c0 -46 100 -115 100 -165c0 -14 -11 -33 -57 -90c78 -9 98 -56 124 -37l33 24c4 4 13 -4 13 -11c0 -2 -111 -108 -131 -91c-18 15 -26 87 -54 95c-8 -9 -74 -100 -122 -100c-7 0 -14 5 -14 13c0 33 86 102 126 107
c28 33 28 38 28 47c0 47 -87 112 -87 151c0 16 36 124 58 162c-112 -12 -179 -89 -179 -143z" />
    <glyph glyph-name="pedal.d" unicode="&#xe1b3;" horiz-adv-x="334" 
d="M2 438c57 0 333 -110 333 -295c0 -70 -50 -143 -113 -143c-62 0 -111 76 -111 143c0 54 45 111 96 136c-51 71 -128 126 -207 140c-3 0 -5 4 -5 8c0 5 3 11 7 11zM218 263c-36 -22 -52 -77 -52 -120c0 -46 16 -105 56 -105c31 0 43 37 43 77c0 59 -23 110 -47 148z" />
    <glyph glyph-name="pedal.e" unicode="&#xe1b4;" 
d="M73 1c-25 0 -43 15 -62 84c-5 -3 -13 5 -13 11c0 4 3 4 8 9c-5 20 -7 36 -7 50c0 63 33 133 96 133c30 0 50 -21 50 -46c0 -37 -42 -80 -77 -110l-11 -9c32 -59 47 -76 65 -67c10 6 58 43 66 51c4 5 14 -3 14 -10c0 0 -86 -96 -129 -96zM76 253c-26 0 -42 -21 -42 -53
c0 -20 6 -42 14 -60c15 13 61 49 61 82c0 19 -15 31 -33 31z" />
    <glyph glyph-name="pedal.Ped" unicode="&#xe1b5;" horiz-adv-x="800" 
d="M43 337c0 -37 29 -49 38 -49c22 0 43 31 43 62c0 8 19 8 19 0c0 -65 -40 -130 -83 -130c-25 0 -63 26 -63 80c0 84 91 200 253 200c108 0 168 -82 168 -145c0 -46 -32 -68 -53 -68c-36 0 -69 50 -89 93c-4 7 14 15 17 8c9 -18 28 -34 46 -34c19 0 31 16 31 35
c0 38 -44 92 -120 92h-8c-14 -30 -37 -96 -37 -106c0 -46 100 -115 100 -165c0 -14 -11 -33 -57 -90c78 -9 98 -56 124 -37l33 24v1c-4 19 -6 33 -6 47c0 63 33 133 96 133c30 0 50 -21 50 -46c0 -37 -42 -80 -77 -110l-11 -9c48 -89 50 -85 125 -21c-4 13 -6 27 -6 41
c0 54 44 111 95 136c-50 71 -127 126 -206 140c-9 1 -5 20 3 19c167 -30 332 -163 332 -295c0 -70 -50 -143 -113 -143c-43 0 -80 37 -99 82c-88 -81 -96 -81 -115 -81c-25 0 -43 15 -62 84c-1 -1 -2 -1 -3 -1c-53 -47 -107 -91 -121 -79c-18 15 -26 87 -54 95
c-8 -9 -74 -100 -122 -100c-7 0 -14 5 -14 13c0 33 86 102 126 107c28 33 28 38 28 47c0 47 -87 112 -87 151c0 16 36 124 58 162c-112 -12 -179 -89 -179 -143zM475 253c-25 0 -42 -21 -42 -53c0 -20 6 -42 15 -60c15 13 61 49 61 82c0 19 -15 31 -34 31zM682 263
c-35 -22 -52 -77 -52 -120c0 -46 17 -105 57 -105c31 0 42 37 42 77c0 59 -23 110 -47 148z" />
    <glyph glyph-name="brackettips.up" unicode="&#xe1b6;" horiz-adv-x="476" 
d="M448 332c9 0 17 -9 17 -17c0 -3 -1 -7 -3 -9c-96 -144 -210 -362 -381 -362h-81v85c0 15 12 27 27 27h54c157 0 265 136 353 268c3 5 9 8 14 8z" />
    <glyph glyph-name="brackettips.down" unicode="&#xe1b7;" horiz-adv-x="476" 
d="M465 -315c0 -8 -8 -17 -17 -17c-5 0 -11 3 -14 8c-88 132 -196 268 -353 268h-54c-15 0 -27 12 -27 27v85h81c171 0 285 -218 381 -362c2 -2 3 -6 3 -9z" />
    <glyph glyph-name="accordion.accDiscant" unicode="&#xe1b8;" horiz-adv-x="394" 
d="M393 387c0 -215 -177 -387 -393 -387s-393 172 -393 387s177 388 393 388s393 -173 393 -388zM331 250h-662c53 -132 181 -225 331 -225s278 93 331 225zM340 275c11 35 17 73 17 112c0 40 -6 77 -17 113h-680c-11 -36 -17 -73 -17 -113c0 -39 6 -77 17 -112h680z
M-331 525h662c-53 131 -181 225 -331 225s-278 -94 -331 -225z" />
    <glyph glyph-name="accordion.accDot" unicode="&#xe1b9;" horiz-adv-x="62" 
d="M-62 0c0 35 27 62 62 62s62 -27 62 -62s-27 -62 -62 -62s-62 27 -62 62z" />
    <glyph glyph-name="accordion.accFreebase" unicode="&#xe1ba;" horiz-adv-x="268" 
d="M268 262c0 -146 -121 -262 -268 -262s-268 116 -268 262s121 263 268 263s268 -117 268 -263zM232 250h-464c6 -125 107 -225 232 -225s226 100 232 225zM-232 275h464c-6 124 -107 225 -232 225s-226 -101 -232 -225z" />
    <glyph glyph-name="accordion.accStdbase" unicode="&#xe1bb;" horiz-adv-x="519" 
d="M518 512c0 -284 -233 -512 -518 -512s-518 228 -518 512s233 513 518 513s518 -229 518 -513zM407 250h-814c86 -135 236 -225 407 -225s321 90 407 225zM421 275c37 67 59 143 61 225h-964c2 -82 24 -158 61 -225h842zM-421 750c-37 -67 -59 -144 -61 -225h964
c-2 81 -24 158 -61 225h-842zM-407 775h814c-86 135 -236 225 -407 225s-321 -90 -407 -225z" />
    <glyph glyph-name="accordion.accBayanbase" unicode="&#xe1bc;" horiz-adv-x="268" 
d="M250 785c10 0 18 -8 18 -17v-750c0 -10 -8 -18 -18 -18h-500c-10 0 -18 8 -18 18v750c0 9 8 17 18 17h500zM232 750h-464v-215h464v215zM232 500h-464v-215h464v215zM232 250h-464v-215h464v215z" />
    <glyph glyph-name="accordion.accOldEE" unicode="&#xe1bd;" horiz-adv-x="268" 
d="M232 262c0 131 -103 238 -232 238s-232 -107 -232 -238c0 -130 103 -237 232 -237s232 107 232 237zM268 262c0 -146 -121 -262 -268 -262s-268 116 -268 262s121 263 268 263s268 -117 268 -263zM58 368c0 27 22 48 48 48s48 -21 48 -48c0 -26 -22 -47 -48 -47
c-6 0 -11 1 -16 2l-56 -47l73 7c8 16 24 27 43 27c26 0 48 -21 48 -48c0 -26 -22 -47 -48 -47c-19 0 -35 11 -43 27l-73 6l56 -47c5 2 10 3 16 3c26 0 48 -21 48 -48c0 -26 -22 -47 -48 -47s-48 21 -48 47c0 6 1 11 3 16l-47 56l6 -73c17 -7 28 -24 28 -43
c0 -26 -22 -47 -48 -47s-48 21 -48 47c0 19 11 36 28 43l6 73l-47 -56c2 -5 3 -10 3 -16c0 -26 -22 -47 -48 -47s-48 21 -48 47c0 27 22 48 48 48c6 0 11 -1 16 -3l56 47l-73 -6c-8 -16 -24 -27 -43 -27c-26 0 -48 21 -48 47c0 27 22 48 48 48c19 0 35 -11 43 -27l73 -7
l-56 47c-5 -1 -10 -2 -16 -2c-26 0 -48 21 -48 47c0 27 22 48 48 48s48 -21 48 -48c0 -5 -1 -11 -3 -16l47 -55l-6 72c-17 8 -28 24 -28 43c0 27 22 48 48 48s48 -21 48 -48c0 -19 -11 -35 -28 -43l-6 -72l47 55c-2 5 -3 11 -3 16z" />
    <glyph glyph-name="rests.M3neomensural" unicode="&#xe1be;" horiz-adv-x="301" 
d="M289 -250h-78c-6 0 -11 5 -11 11v478c0 6 5 11 11 11h78c6 0 11 -5 11 -11v-478c0 -6 -5 -11 -11 -11zM89 -250h-78c-6 0 -11 5 -11 11v478c0 6 5 11 11 11h78c6 0 11 -5 11 -11v-478c0 -6 -5 -11 -11 -11z" />
    <glyph glyph-name="rests.M2neomensural" unicode="&#xe1bf;" horiz-adv-x="100" 
d="M89 -250h-78c-6 0 -11 5 -11 11v478c0 6 5 11 11 11h78c6 0 11 -5 11 -11v-478c0 -6 -5 -11 -11 -11z" />
    <glyph glyph-name="rests.M1neomensural" unicode="&#xe1c0;" horiz-adv-x="100" 
d="M89 0h-78c-6 0 -11 5 -11 11v228c0 6 5 11 11 11h78c6 0 11 -5 11 -11v-228c0 -6 -5 -11 -11 -11z" />
    <glyph glyph-name="rests.0neomensural" unicode="&#xe1c1;" horiz-adv-x="100" 
d="M89 -156h-78c-6 0 -11 5 -11 11v134c0 6 5 11 11 11h78c6 0 11 -5 11 -11v-134c0 -6 -5 -11 -11 -11z" />
    <glyph glyph-name="rests.1neomensural" unicode="&#xe1c2;" horiz-adv-x="100" 
d="M89 0h-78c-6 0 -11 5 -11 11v134c0 6 5 11 11 11h78c6 0 11 -5 11 -11v-134c0 -6 -5 -11 -11 -11z" />
    <glyph glyph-name="rests.2neomensural" unicode="&#xe1c3;" 
d="M200 127c0 -16 -13 -27 -27 -27c-3 0 -5 0 -8 1l-111 35v-109c0 -15 -12 -27 -27 -27s-27 12 -27 27v146c0 15 13 27 27 27c3 0 5 0 8 -1l146 -46c12 -4 19 -15 19 -26z" />
    <glyph glyph-name="rests.3neomensural" unicode="&#xe1c4;" 
d="M27 100c-14 0 -27 10 -27 27c0 11 7 22 19 26l146 46c3 1 5 1 8 1c14 0 27 -12 27 -27v-146c0 -15 -12 -27 -27 -27s-27 12 -27 27v109l-111 -35c-3 -1 -5 -1 -8 -1z" />
    <glyph glyph-name="rests.4neomensural" unicode="&#xe1c5;" 
d="M27 125c-14 0 -27 11 -27 27c0 10 6 20 15 24l146 71c4 2 8 3 12 3c14 0 27 -11 27 -27v-196c0 -15 -12 -27 -27 -27s-27 12 -27 27v59l-107 -52c-4 -2 -8 -3 -12 -3c-14 0 -27 11 -27 27c0 10 6 20 15 25l131 63v34l-107 -52c-4 -2 -8 -3 -12 -3z" />
    <glyph glyph-name="rests.M3mensural" unicode="&#xe1c6;" horiz-adv-x="75" 
d="M74 510v-750l-73 -20v750z" />
    <glyph glyph-name="rests.M2mensural" unicode="&#xe1c7;" horiz-adv-x="75" 
d="M74 260v-500l-73 -20v500z" />
    <glyph glyph-name="rests.M1mensural" unicode="&#xe1c8;" horiz-adv-x="75" 
d="M74 260v-250l-73 -20v250z" />
    <glyph glyph-name="rests.0mensural" unicode="&#xe1c9;" horiz-adv-x="75" 
d="M1 -166v156l73 20v-157z" />
    <glyph glyph-name="rests.1mensural" unicode="&#xe1ca;" horiz-adv-x="75" 
d="M74 166v-156l-73 -20v157z" />
    <glyph glyph-name="rests.2mensural" unicode="&#xe1cb;" 
d="M40 188l160 -50l-65 -38l-70 22v-103l-65 -38v107l-25 62z" />
    <glyph glyph-name="rests.3mensural" unicode="&#xe1cc;" 
d="M135 -19v107l-73 48l-62 -36l40 50l65 38l95 -63v-106z" />
    <glyph glyph-name="rests.4mensural" unicode="&#xe1cd;" 
d="M105 147l30 -22v9l-67 49l-3 -5l-65 -37l40 62l65 38l95 -69v-153l-65 -38v60l-67 48l-3 -5l-65 -37l40 62z" />
    <glyph glyph-name="noteheads.slneomensural" unicode="&#xe1ce;" horiz-adv-x="501" 
d="M65 -41h370c15 0 27 13 27 27v28c0 14 -12 27 -27 27h-370c-15 0 -27 -13 -27 -27v-28c0 -14 12 -27 27 -27zM435 -139h-370c-18 0 -27 -20 -27 -40v-563c0 -10 -9 -18 -19 -18c-11 0 -19 8 -19 18v921c0 13 9 19 19 19c9 0 19 -6 19 -19c0 -20 9 -40 27 -40h370
c18 0 27 20 27 40c0 13 10 19 19 19c10 0 19 -6 19 -19v-358c0 -13 -9 -19 -19 -19c-9 0 -19 6 -19 19c0 20 -9 40 -27 40z" />
    <glyph glyph-name="noteheads.sM3neomensural" unicode="&#xe1cf;" horiz-adv-x="652" 
d="M65 -41h520c15 0 27 13 27 27v28c0 14 -12 27 -27 27h-520c-15 0 -27 -13 -27 -27v-28c0 -14 12 -27 27 -27zM585 -139h-520c-18 0 -27 -20 -27 -40c0 -13 -10 -19 -19 -19c-10 0 -19 6 -19 19v358c0 13 9 19 19 19c9 0 19 -6 19 -19c0 -20 9 -40 27 -40h520
c18 0 27 20 27 40c0 13 10 19 19 19c10 0 19 -6 19 -19v-358c9 -83 23 -242 23 -250c0 -15 -12 -23 -23 -23s-22 7 -23 21l-15 250v2c0 20 -9 40 -27 40z" />
    <glyph glyph-name="noteheads.sM2neomensural" unicode="&#xe1d0;" horiz-adv-x="501" 
d="M65 -41h370c15 0 27 13 27 27v28c0 14 -12 27 -27 27h-370c-15 0 -27 -13 -27 -27v-28c0 -14 12 -27 27 -27zM435 -139h-370c-18 0 -27 -20 -27 -40c0 -13 -10 -19 -19 -19c-10 0 -19 6 -19 19v358c0 13 9 19 19 19c9 0 19 -6 19 -19c0 -20 9 -40 27 -40h370
c18 0 27 20 27 40c0 13 10 19 19 19c10 0 19 -6 19 -19v-358c9 -83 23 -242 23 -250c0 -15 -12 -23 -23 -23s-22 7 -23 21l-15 250v2c0 20 -9 40 -27 40z" />
    <glyph glyph-name="noteheads.sM1neomensural" unicode="&#xe1d1;" horiz-adv-x="501" 
d="M65 -41h370c15 0 27 13 27 27v28c0 14 -12 27 -27 27h-370c-15 0 -27 -13 -27 -27v-28c0 -14 12 -27 27 -27zM435 -139h-370c-18 0 -27 -20 -27 -40c0 -13 -10 -19 -19 -19c-10 0 -19 6 -19 19v358c0 13 9 19 19 19c9 0 19 -6 19 -19c0 -20 9 -40 27 -40h370
c18 0 27 20 27 40c0 13 10 19 19 19c10 0 19 -6 19 -19v-358c0 -13 -9 -19 -19 -19c-9 0 -19 6 -19 19c0 20 -9 40 -27 40z" />
    <glyph glyph-name="noteheads.s0harmonic" unicode="&#xe1d2;" horiz-adv-x="326" 
d="M75 35l119 -133l56 63l-119 133zM3 -7c-2 2 -3 4 -3 7s1 5 3 7l151 169c2 3 5 4 8 4c4 0 7 -1 9 -4l151 -169c2 -2 3 -4 3 -7s-1 -5 -3 -7l-151 -169c-2 -3 -5 -4 -9 -4c-3 0 -6 1 -8 4z" />
    <glyph glyph-name="noteheads.s2harmonic" unicode="&#xe1d3;" horiz-adv-x="326" 
d="M3 -7c-2 2 -3 4 -3 7s1 5 3 7l151 169c2 3 5 4 8 4c4 0 7 -1 9 -4l151 -169c2 -2 3 -4 3 -7s-1 -5 -3 -7l-151 -169c-2 -3 -5 -4 -9 -4c-3 0 -6 1 -8 4z" />
    <glyph glyph-name="noteheads.s0neomensural" unicode="&#xe1d4;" horiz-adv-x="250" 
d="M62 21l82 -91l44 49l-82 91zM3 -7c-2 2 -3 4 -3 7s1 5 3 7l114 128c2 2 5 4 8 4s6 -2 8 -4l114 -128c2 -2 3 -4 3 -7s-1 -5 -3 -7l-114 -128c-2 -2 -5 -4 -8 -4s-6 2 -8 4z" />
    <glyph glyph-name="noteheads.s1neomensural" unicode="&#xe1d5;" horiz-adv-x="250" 
d="M62 21l82 -91l44 49l-82 91zM3 -7c-2 2 -3 4 -3 7s1 5 3 7l114 128c2 2 5 4 8 4s6 -2 8 -4l114 -128c2 -2 3 -4 3 -7s-1 -5 -3 -7l-114 -128c-2 -2 -5 -4 -8 -4s-6 2 -8 4z" />
    <glyph glyph-name="noteheads.s2neomensural" unicode="&#xe1d6;" horiz-adv-x="250" 
d="M3 -7c-2 2 -3 4 -3 7s1 5 3 7l114 128c2 2 5 4 8 4s6 -2 8 -4l114 -128c2 -2 3 -4 3 -7s-1 -5 -3 -7l-114 -128c-2 -2 -5 -4 -8 -4s-6 2 -8 4z" />
    <glyph glyph-name="noteheads.slmensural" unicode="&#xe1d7;" horiz-adv-x="250" 
d="M65 -41h120c15 0 27 13 27 27v28c0 14 -12 27 -27 27h-120c-15 0 -27 -13 -27 -27v-28c0 -14 12 -27 27 -27zM185 -139h-120c-18 0 -27 -20 -27 -40v-563c0 -10 -9 -18 -19 -18c-11 0 -19 8 -19 18v921c0 13 9 19 19 19c9 0 19 -6 19 -19c0 -20 9 -40 27 -40h120
c18 0 27 20 27 40c0 13 10 19 19 19c10 0 19 -6 19 -19v-358c0 -13 -9 -19 -19 -19c-9 0 -19 6 -19 19c0 20 -9 40 -27 40z" />
    <glyph glyph-name="noteheads.sM3mensural" unicode="&#xe1d8;" horiz-adv-x="501" 
d="M65 -41h370c15 0 27 13 27 27v28c0 14 -12 27 -27 27h-370c-15 0 -27 -13 -27 -27v-28c0 -14 12 -27 27 -27zM435 -139h-370c-18 0 -27 -20 -27 -40c0 -13 -10 -19 -19 -19c-10 0 -19 6 -19 19v358c0 13 9 19 19 19c9 0 19 -6 19 -19c0 -20 9 -40 27 -40h370
c18 0 27 20 27 40c0 13 10 19 19 19c10 0 19 -6 19 -19v-921c0 -10 -8 -18 -19 -18c-10 0 -19 8 -19 18v563c0 20 -9 40 -27 40z" />
    <glyph glyph-name="noteheads.sM2mensural" unicode="&#xe1d9;" horiz-adv-x="250" 
d="M65 -41h120c15 0 27 13 27 27v28c0 14 -12 27 -27 27h-120c-15 0 -27 -13 -27 -27v-28c0 -14 12 -27 27 -27zM185 -139h-120c-18 0 -27 -20 -27 -40c0 -13 -10 -19 -19 -19c-10 0 -19 6 -19 19v358c0 13 9 19 19 19c9 0 19 -6 19 -19c0 -20 9 -40 27 -40h120
c18 0 27 20 27 40c0 13 10 19 19 19c10 0 19 -6 19 -19v-921c0 -10 -8 -18 -19 -18c-10 0 -19 8 -19 18v563c0 20 -9 40 -27 40z" />
    <glyph glyph-name="noteheads.sM1mensural" unicode="&#xe1da;" horiz-adv-x="250" 
d="M65 -41h120c15 0 27 13 27 27v28c0 14 -12 27 -27 27h-120c-15 0 -27 -13 -27 -27v-28c0 -14 12 -27 27 -27zM185 -139h-120c-18 0 -27 -20 -27 -40c0 -13 -10 -19 -19 -19c-10 0 -19 6 -19 19v358c0 13 9 19 19 19c9 0 19 -6 19 -19c0 -20 9 -40 27 -40h120
c18 0 27 20 27 40c0 13 10 19 19 19c10 0 19 -6 19 -19v-358c0 -13 -9 -19 -19 -19c-9 0 -19 6 -19 19c0 20 -9 40 -27 40z" />
    <glyph glyph-name="noteheads.s0mensural" unicode="&#xe1db;" horiz-adv-x="144" 
d="M68 74l-36 -65l45 -83l35 65zM1 -16c-1 1 -1 3 -1 6s1 8 4 15l58 106c4 7 12 14 18 14c3 0 4 -1 5 -3l58 -106c1 -1 1 -3 1 -6s0 -8 -4 -15l-58 -106c-4 -7 -11 -14 -17 -14c-3 0 -5 1 -6 3z" />
    <glyph glyph-name="noteheads.s1mensural" unicode="&#xe1dc;" horiz-adv-x="144" 
d="M68 74l-36 -65l45 -83l35 65zM1 -16c-1 1 -1 3 -1 6s1 8 4 15l58 106c4 7 12 14 18 14c3 0 4 -1 5 -3l58 -106c1 -1 1 -3 1 -6s0 -8 -4 -15l-58 -106c-4 -7 -11 -14 -17 -14c-3 0 -5 1 -6 3z" />
    <glyph glyph-name="noteheads.s2mensural" unicode="&#xe1dd;" horiz-adv-x="144" 
d="M1 -16c-1 1 -1 3 -1 6s1 8 4 15l58 106c4 7 12 14 18 14c3 0 4 -1 5 -3l58 -106c1 -1 1 -3 1 -6s0 -8 -4 -15l-58 -106c-4 -7 -11 -14 -17 -14c-3 0 -5 1 -6 3z" />
    <glyph glyph-name="noteheads.s0petrucci" unicode="&#xe1de;" horiz-adv-x="250" 
d="M58 46l92 -172l42 80l-92 172zM1 -5c-1 1 -1 3 -1 5s0 4 1 5l114 214c2 4 6 6 10 6s8 -2 10 -6l114 -214c1 -1 1 -3 1 -5s0 -4 -1 -5l-114 -214c-2 -4 -6 -6 -10 -6s-8 2 -10 6z" />
    <glyph glyph-name="noteheads.s1petrucci" unicode="&#xe1df;" horiz-adv-x="250" 
d="M58 46l92 -172l42 80l-92 172zM1 -5c-1 1 -1 3 -1 5s0 4 1 5l114 214c2 4 6 6 10 6s8 -2 10 -6l114 -214c1 -1 1 -3 1 -5s0 -4 -1 -5l-114 -214c-2 -4 -6 -6 -10 -6s-8 2 -10 6z" />
    <glyph glyph-name="noteheads.s2petrucci" unicode="&#xe1e0;" horiz-adv-x="250" 
d="M1 -5c-1 1 -1 3 -1 5s0 4 1 5l114 214c2 4 6 6 10 6s8 -2 10 -6l114 -214c1 -1 1 -3 1 -5s0 -4 -1 -5l-114 -214c-2 -4 -6 -6 -10 -6s-8 2 -10 6z" />
    <glyph glyph-name="noteheads.svaticana.punctum" unicode="&#xe1e1;" horiz-adv-x="140" 
d="M14 -82c-8 0 -14 6 -14 13v131c0 33 140 36 140 0v-131c0 -7 -7 -13 -14 -13s-25 14 -56 14s-50 -14 -56 -14z" />
    <glyph glyph-name="noteheads.svaticana.punctum.cavum" unicode="&#xe1e2;" horiz-adv-x="140" 
d="M27 -48c14 4 28 7 43 7c14 0 29 -3 43 -7v101c-14 6 -28 9 -43 9s-29 -3 -43 -9v-101zM14 -82c-8 0 -14 6 -14 13v131c0 33 140 36 140 0v-131c0 -7 -7 -13 -14 -13s-25 14 -56 14s-50 -14 -56 -14z" />
    <glyph glyph-name="noteheads.svaticana.linea.punctum" unicode="&#xe1e3;" horiz-adv-x="223" 
d="M222 -89c0 -4 -3 -8 -8 -8c-4 0 -8 4 -8 8v178c0 4 4 8 8 8c5 0 8 -4 8 -8v-178zM16 -89c0 -4 -3 -8 -8 -8c-4 0 -8 4 -8 8v178c0 4 4 8 8 8c5 0 8 -4 8 -8v-178zM55 -82c-7 0 -14 6 -14 13v131c0 33 140 36 140 0v-131c0 -7 -6 -13 -13 -13s-25 14 -57 14
c-31 0 -49 -14 -56 -14z" />
    <glyph glyph-name="noteheads.svaticana.linea.punctum.cavum" unicode="&#xe1e4;" horiz-adv-x="223" 
d="M222 -89c0 -4 -3 -8 -8 -8c-4 0 -8 4 -8 8v178c0 4 4 8 8 8c5 0 8 -4 8 -8v-178zM16 -89c0 -4 -3 -8 -8 -8c-4 0 -8 4 -8 8v178c0 4 4 8 8 8c5 0 8 -4 8 -8v-178zM68 -48c14 4 29 7 43 7c15 0 29 -3 43 -7v101c-13 6 -28 9 -43 9s-29 -3 -43 -9v-101zM55 -82
c-7 0 -14 6 -14 13v131c0 33 140 36 140 0v-131c0 -7 -6 -13 -13 -13s-25 14 -57 14c-31 0 -49 -14 -56 -14z" />
    <glyph glyph-name="noteheads.svaticana.inclinatum" unicode="&#xe1e5;" horiz-adv-x="155" 
d="M2 -6c-1 2 -2 4 -2 6s1 4 2 6l66 100c3 3 6 5 10 5c3 0 7 -2 9 -5l66 -100c2 -2 2 -4 2 -6s0 -4 -2 -6l-66 -100c-2 -3 -6 -5 -9 -5c-4 0 -8 2 -10 5z" />
    <glyph glyph-name="noteheads.svaticana.lpes" unicode="&#xe1e6;" horiz-adv-x="140" 
d="M140 -64c0 -13 -11 -17 -70 -17c-60 0 -70 4 -70 17v130c0 7 6 13 14 13c5 0 22 -2 56 -2s51 2 56 2c7 0 14 -6 14 -13v-130z" />
    <glyph glyph-name="noteheads.svaticana.vlpes" unicode="&#xe1e7;" horiz-adv-x="140" 
d="M140 -95c0 -13 -11 -16 -70 -16c-60 0 -70 3 -70 16v130c0 8 6 14 14 14c5 0 22 -3 56 -3s51 3 56 3c7 0 14 -6 14 -14v-130z" />
    <glyph glyph-name="noteheads.svaticana.upes" unicode="&#xe1e8;" horiz-adv-x="140" 
d="M14 -79c-8 0 -14 6 -14 13v130c0 13 10 17 70 17s70 -4 70 -17v-130c0 -7 -7 -13 -14 -13c-5 0 -22 2 -56 2s-51 -2 -56 -2z" />
    <glyph glyph-name="noteheads.svaticana.vupes" unicode="&#xe1e9;" horiz-adv-x="140" 
d="M14 -57c-8 0 -14 6 -14 13v131c0 13 10 16 70 16s70 -3 70 -16v-131c0 -7 -7 -13 -14 -13c-5 0 -22 3 -56 3s-51 -3 -56 -3z" />
    <glyph glyph-name="noteheads.svaticana.plica" unicode="&#xe1ea;" horiz-adv-x="84" 
d="M14 -55c-8 0 -14 7 -14 14v78c0 13 23 22 42 22c18 0 42 -9 42 -22v-78c0 -7 -6 -14 -14 -14s-11 9 -28 9s-20 -9 -28 -9z" />
    <glyph glyph-name="noteheads.svaticana.vplica" unicode="&#xe1eb;" horiz-adv-x="84" 
d="M14 -75c-8 0 -14 6 -14 14v78c0 12 20 30 42 30c17 0 25 3 28 3c8 0 14 -6 14 -13v-79c0 -10 -9 -16 -42 -16c-17 0 -15 -17 -28 -17z" />
    <glyph glyph-name="noteheads.svaticana.epiphonus" unicode="&#xe1ec;" horiz-adv-x="140" 
d="M20 -95c-12 0 -20 17 -20 68v130c0 7 6 14 14 14c7 0 13 -7 13 -14c0 -13 1 -27 4 -40c58 4 86 33 95 33c7 0 14 -6 14 -14v-130c0 -18 -66 -47 -120 -47z" />
    <glyph glyph-name="noteheads.svaticana.vepiphonus" unicode="&#xe1ed;" horiz-adv-x="140" 
d="M20 -125c-12 0 -20 17 -20 68v130c0 7 6 13 14 13c7 0 13 -6 13 -13c0 -14 1 -27 4 -40c58 3 86 32 95 32c7 0 14 -6 14 -13v-130c0 -18 -66 -47 -120 -47z" />
    <glyph glyph-name="noteheads.svaticana.reverse.plica" unicode="&#xe1ee;" horiz-adv-x="84" 
d="M42 -59c-19 0 -42 9 -42 22v78c0 7 6 14 14 14s11 -9 28 -9s20 9 28 9s14 -7 14 -14v-78c0 -13 -24 -22 -42 -22z" />
    <glyph glyph-name="noteheads.svaticana.reverse.vplica" unicode="&#xe1ef;" horiz-adv-x="84" 
d="M42 -83c-22 0 -42 18 -42 30v78c0 7 6 13 14 13c13 0 11 -16 28 -16c33 0 42 -7 42 -17v-78c0 -7 -6 -14 -14 -14c-3 0 -11 4 -28 4z" />
    <glyph glyph-name="noteheads.svaticana.inner.cephalicus" unicode="&#xe1f0;" horiz-adv-x="140" 
d="M14 -117c-8 0 -14 7 -14 14v130c0 51 8 68 20 68c55 0 120 -29 120 -47v-130c0 -8 -7 -14 -14 -14c-9 0 -37 29 -95 33c-3 -13 -4 -27 -4 -40c0 -7 -6 -14 -13 -14z" />
    <glyph glyph-name="noteheads.svaticana.cephalicus" unicode="&#xe1f1;" horiz-adv-x="140" 
d="M27 -103c0 -7 -5 -12 -11 -13v-194c0 -5 -3 -8 -8 -8c-4 0 -8 3 -8 8v337c0 51 8 68 20 68c55 0 120 -29 120 -47v-130c0 -8 -7 -14 -14 -14c-9 0 -37 29 -95 33c-3 -13 -4 -27 -4 -40z" />
    <glyph glyph-name="noteheads.svaticana.quilisma" unicode="&#xe1f2;" horiz-adv-x="140" 
d="M49 -61c-2 -25 -7 -39 -12 -39c-1 0 -2 1 -3 2l-23 22c-7 7 -11 36 -11 59c0 14 3 61 14 61c0 0 1 0 2 -1l11 -11c3 24 8 37 13 37c1 0 1 0 2 -1l29 -22c2 24 7 37 12 37c1 0 2 0 2 -1l22 -17c3 23 8 35 13 35c4 0 9 -11 11 -30l7 -50c1 -9 2 -20 2 -31
c0 -14 -3 -61 -14 -61c-1 0 -1 0 -2 1l-28 22c-3 -24 -8 -37 -13 -37c-1 0 -1 0 -2 1z" />
    <glyph glyph-name="noteheads.ssolesmes.incl.parvum" unicode="&#xe1f3;" horiz-adv-x="97" 
d="M2 -6c-2 2 -2 4 -2 6s1 4 2 6l37 58c2 3 6 5 9 5c4 0 8 -2 10 -5l37 -58c2 -2 2 -4 2 -6s-1 -4 -2 -6l-37 -58c-2 -3 -6 -5 -10 -5c-3 0 -7 2 -9 5z" />
    <glyph glyph-name="noteheads.ssolesmes.auct.asc" unicode="&#xe1f4;" horiz-adv-x="140" 
d="M70 -85c-28 0 -70 5 -70 22v130c0 7 6 14 14 14c5 0 22 -9 56 -9c28 0 43 32 43 64c0 8 6 14 13 14s14 -6 14 -14v-130c0 -47 -27 -91 -70 -91z" />
    <glyph glyph-name="noteheads.ssolesmes.auct.desc" unicode="&#xe1f5;" horiz-adv-x="140" 
d="M14 -81c-8 0 -14 7 -14 14v130c0 19 48 22 70 22c43 0 70 -44 70 -91v-130c0 -8 -7 -14 -14 -14s-13 6 -13 14c0 32 -15 64 -43 64c-34 0 -51 -9 -56 -9z" />
    <glyph glyph-name="noteheads.ssolesmes.incl.auctum" unicode="&#xe1f6;" horiz-adv-x="155" 
d="M0 -70c13 0 18 -25 46 -25c5 0 9 1 13 3l-57 86c-2 3 -3 8 0 12l66 100c3 3 6 5 10 5c3 0 7 -2 9 -5l66 -100c2 -2 2 -4 2 -6s0 -4 -2 -6l-66 -100c-4 -6 -21 -16 -41 -16c-38 0 -60 31 -60 38s7 14 14 14z" />
    <glyph glyph-name="noteheads.ssolesmes.stropha" unicode="&#xe1f7;" horiz-adv-x="155" 
d="M68 106c3 3 6 5 10 5c3 0 7 -2 9 -5l66 -100c2 -2 2 -4 2 -6s0 -4 -2 -6l-66 -100c-2 -3 -6 -5 -9 -5c-4 0 -8 2 -10 5l-10 15c41 1 -7 101 -51 105z" />
    <glyph glyph-name="noteheads.ssolesmes.stropha.aucta" unicode="&#xe1f8;" horiz-adv-x="155" 
d="M0 -70c13 0 18 -25 46 -25c62 0 4 105 -39 109l61 92c3 3 6 5 10 5c3 0 7 -2 9 -5l66 -100c2 -2 2 -4 2 -6s0 -4 -2 -6l-66 -100c-9 -13 -23 -19 -38 -19c-32 0 -63 28 -63 41c0 7 7 14 14 14z" />
    <glyph glyph-name="noteheads.ssolesmes.oriscus" unicode="&#xe1f9;" horiz-adv-x="166" 
d="M0 -14c0 51 7 97 50 97c28 0 42 -29 71 -29c31 0 27 29 34 29c9 0 11 -54 11 -69c0 -51 -7 -97 -50 -97c-28 0 -42 29 -70 29c-32 0 -28 -29 -35 -29c-9 0 -11 54 -11 69z" />
    <glyph glyph-name="noteheads.smedicaea.inclinatum" unicode="&#xe1fa;" horiz-adv-x="210" 
d="M2 -6c-1 2 -2 4 -2 6s1 4 2 6l94 139c2 3 5 5 9 5s7 -2 9 -5l94 -139c2 -2 2 -4 2 -6s-1 -4 -2 -6l-94 -139c-2 -3 -5 -5 -9 -5s-7 2 -9 5z" />
    <glyph glyph-name="noteheads.smedicaea.punctum" unicode="&#xe1fb;" 
d="M11 -125c-9 0 -11 99 -11 125s2 125 11 125h178c9 0 11 -99 11 -125s-2 -125 -11 -125h-178z" />
    <glyph glyph-name="noteheads.smedicaea.rvirga" unicode="&#xe1fc;" 
d="M11 -125c-9 0 -11 99 -11 125v611c0 8 6 14 14 14c7 0 13 -6 13 -14v-486h162c9 0 11 -99 11 -125s-2 -125 -11 -125h-178z" />
    <glyph glyph-name="noteheads.smedicaea.virga" unicode="&#xe1fd;" 
d="M0 0c0 26 2 125 11 125h178c9 0 11 -99 11 -125s-2 -125 -11 -125h-162v-486c0 -8 -6 -14 -13 -14c-8 0 -14 6 -14 14v611z" />
    <glyph glyph-name="noteheads.shufnagel.punctum" unicode="&#xe1fe;" horiz-adv-x="358" 
d="M5 -9c-3 2 -5 5 -5 9s2 7 5 9l167 114c2 1 4 2 7 2c1 0 4 -1 6 -2l167 -114c3 -2 5 -5 5 -9s-2 -7 -5 -9l-167 -114c-2 -1 -4 -2 -6 -2s-5 1 -7 2z" />
    <glyph glyph-name="noteheads.shufnagel.virga" unicode="&#xe1ff;" horiz-adv-x="358" 
d="M109 -375c-1 0 -2 0 -2 2v295l-102 69c-3 2 -5 5 -5 9s2 7 5 9l167 114c2 1 4 2 7 2c1 0 4 -1 6 -2l167 -114c3 -2 5 -5 5 -9s-2 -7 -5 -9l-102 -69v-197c0 -16 -119 -100 -141 -100z" />
    <glyph glyph-name="noteheads.shufnagel.lpes" unicode="&#xe200;" horiz-adv-x="501" 
d="M486 101c8 0 14 -6 14 -14c0 -2 -1 -5 -2 -7l-123 -175c-3 -4 -7 -6 -11 -6h-350c-8 0 -14 6 -14 13c0 3 1 6 2 8l123 175c3 4 7 6 11 6h350z" />
    <glyph glyph-name="clefs.vaticana.do" unicode="&#xe201;" horiz-adv-x="125" 
d="M76 50c-31 0 -60 -21 -60 -50s29 -50 60 -50c24 0 37 14 41 14c6 0 8 -59 8 -75c0 -27 -2 -71 -7 -75c-12 -9 -27 -14 -42 -14c-44 0 -70 41 -74 79c-1 14 -2 33 -2 52v138c0 15 -8 131 76 131c43 0 49 -12 49 -89c0 -16 -2 -75 -8 -75c-4 0 -17 14 -41 14z" />
    <glyph glyph-name="clefs.vaticana.do_change" unicode="&#xe202;" horiz-adv-x="125" 
d="M76 50c-31 0 -60 -21 -60 -50s29 -50 60 -50c24 0 37 14 41 14c6 0 8 -59 8 -75c0 -27 -2 -71 -7 -75c-12 -9 -27 -14 -42 -14c-44 0 -70 41 -74 79c-1 14 -2 33 -2 52v138c0 15 -8 131 76 131c43 0 49 -12 49 -89c0 -16 -2 -75 -8 -75c-4 0 -17 14 -41 14z" />
    <glyph glyph-name="clefs.vaticana.fa" unicode="&#xe203;" horiz-adv-x="263" 
d="M213 50c-31 0 -59 -21 -59 -50s28 -50 59 -50c25 0 37 14 41 14c7 0 8 -59 8 -75c0 -27 -2 -71 -7 -75c-12 -9 -26 -14 -41 -14c-45 0 -70 41 -74 79c-2 14 -2 33 -2 52v138c0 15 -8 131 76 131c42 0 48 -12 48 -89c0 -16 -1 -75 -8 -75c-4 0 -16 14 -41 14zM8 -63
c-6 0 -8 50 -8 63c0 9 1 58 7 62c15 9 31 13 47 13c26 0 48 -10 64 -25c4 -5 7 -40 7 -63v-354c0 -4 -4 -8 -8 -8c-5 0 -8 4 -8 8v299c-22 16 -44 18 -55 18c-25 0 -46 -13 -46 -13z" />
    <glyph glyph-name="clefs.vaticana.fa_change" unicode="&#xe204;" horiz-adv-x="263" 
d="M213 50c-31 0 -59 -21 -59 -50s28 -50 59 -50c25 0 37 14 41 14c7 0 8 -59 8 -75c0 -27 -2 -71 -7 -75c-12 -9 -26 -14 -41 -14c-45 0 -70 41 -74 79c-2 14 -2 33 -2 52v138c0 15 -8 131 76 131c42 0 48 -12 48 -89c0 -16 -1 -75 -8 -75c-4 0 -16 14 -41 14zM8 -63
c-6 0 -8 50 -8 63c0 9 1 58 7 62c15 9 31 13 47 13c26 0 48 -10 64 -25c4 -5 7 -40 7 -63v-354c0 -4 -4 -8 -8 -8c-5 0 -8 4 -8 8v299c-22 16 -44 18 -55 18c-25 0 -46 -13 -46 -13z" />
    <glyph glyph-name="clefs.medicaea.do" unicode="&#xe205;" horiz-adv-x="250" 
d="M250 -187c0 -14 -3 -63 -14 -63h-1l-208 117v-228c0 -8 -6 -14 -13 -14c-8 0 -14 6 -14 14v722c0 8 6 14 14 14c7 0 13 -6 13 -14v-119l211 -117c7 -4 12 -34 12 -62c0 -14 -3 -63 -14 -63h-1l-208 117v-125l211 -117c7 -4 12 -34 12 -62z" />
    <glyph glyph-name="clefs.medicaea.do_change" unicode="&#xe206;" 
d="M200 -175c0 -11 -2 -50 -11 -50h-1l-166 94v-158c0 -6 -5 -11 -11 -11s-11 5 -11 11v578c0 6 5 11 11 11s11 -5 11 -11v-70l168 -94c6 -4 10 -27 10 -50c0 -11 -2 -50 -11 -50h-1l-166 94v-150l168 -94c6 -4 10 -27 10 -50z" />
    <glyph glyph-name="clefs.medicaea.fa" unicode="&#xe207;" horiz-adv-x="426" 
d="M425 -187c0 -14 -3 -63 -14 -63h-1l-208 117v-228c0 -8 -6 -14 -13 -14c-8 0 -14 6 -14 14v722c0 8 6 14 14 14c7 0 13 -6 13 -14v-119l211 -117c7 -4 12 -34 12 -62c0 -14 -3 -63 -14 -63h-1l-208 117v-125l211 -117c7 -4 12 -34 12 -62zM100 125c11 0 14 -99 14 -125
v-361c0 -8 -7 -14 -14 -14s-14 6 -14 14v236h-72c-11 0 -14 99 -14 125s3 125 14 125h86z" />
    <glyph glyph-name="clefs.medicaea.fa_change" unicode="&#xe208;" horiz-adv-x="341" 
d="M340 -175c0 -11 -2 -50 -11 -50h-1l-166 94v-158c0 -6 -5 -11 -11 -11s-11 5 -11 11v578c0 6 5 11 11 11s11 -5 11 -11v-70l168 -94c6 -4 10 -27 10 -50c0 -11 -2 -50 -11 -50h-1l-166 94v-150l168 -94c6 -4 10 -27 10 -50zM80 100c9 0 11 -79 11 -100v-289
c0 -6 -5 -11 -11 -11s-11 5 -11 11v189h-58c-9 0 -11 79 -11 100s2 100 11 100h69z" />
    <glyph glyph-name="clefs.neomensural.c" unicode="&#xe209;" horiz-adv-x="664" 
d="M119 -489c0 -7 -11 -11 -19 -11c-9 0 -19 4 -19 11v978c0 7 10 11 19 11s19 -4 19 -11v-310c0 -20 9 -40 27 -40h370c18 0 27 20 27 40v310c0 7 11 11 19 11c9 0 19 -4 19 -11v-978c0 -7 -10 -11 -19 -11c-8 0 -19 4 -19 11v310c0 20 -9 40 -27 40h-370
c-18 0 -27 -20 -27 -40v-310zM662 -489c0 -7 -10 -11 -19 -11c-8 0 -19 4 -19 11v978c0 7 11 11 19 11c9 0 19 -4 19 -11v-978zM38 -489c0 -7 -11 -11 -19 -11c-9 0 -19 4 -19 11v978c0 7 10 11 19 11c8 0 19 -4 19 -11v-978zM119 -27c0 -15 12 -27 27 -27h370
c15 0 27 12 27 27v54c0 15 -12 27 -27 27h-370c-15 0 -27 -12 -27 -27v-54z" />
    <glyph glyph-name="clefs.neomensural.c_change" unicode="&#xe20a;" horiz-adv-x="531" 
d="M95 -389c0 -6 -8 -11 -15 -11s-15 5 -15 11v778c0 6 8 11 15 11s15 -5 15 -11v-246c0 -16 7 -32 22 -32h296c14 0 22 16 22 32v246c0 6 7 11 15 11c7 0 15 -5 15 -11v-778c0 -6 -8 -11 -15 -11c-8 0 -15 5 -15 11v246c0 16 -8 32 -22 32h-296c-15 0 -22 -16 -22 -32v-246
zM530 -389c0 -6 -8 -11 -15 -11c-8 0 -16 5 -16 11v778c0 6 8 11 16 11c7 0 15 -5 15 -11v-778zM30 -389c0 -6 -8 -11 -15 -11s-15 5 -15 11v778c0 6 8 11 15 11s15 -5 15 -11v-778zM95 -22c0 -12 10 -21 22 -21h296c12 0 22 9 22 21v44c0 12 -10 21 -22 21h-296
c-12 0 -22 -9 -22 -21v-44z" />
    <glyph glyph-name="clefs.petrucci.c1" unicode="&#xe20b;" horiz-adv-x="250" 
d="M38 -152c0 -15 12 -27 27 -27h120c15 0 27 12 27 27v54c0 15 -12 27 -27 27h-120c-15 0 -27 -12 -27 -27v-54zM38 98c0 -15 12 -27 27 -27h120c15 0 27 12 27 27v54c0 15 -12 27 -27 27h-120c-15 0 -27 -12 -27 -27v-54zM212 550c0 7 11 11 19 11c9 0 19 -4 19 -11v-854
c0 -13 -9 -19 -19 -19c-9 0 -19 6 -19 19c0 20 -9 40 -27 40h-120c-18 0 -27 -20 -27 -40v-35c0 -7 -11 -11 -19 -11c-9 0 -19 4 -19 11v1128c0 7 10 11 19 11c8 0 19 -4 19 -11v-485c0 -20 9 -40 27 -40h120c18 0 27 20 27 40v246z" />
    <glyph glyph-name="clefs.petrucci.c1_change" unicode="&#xe20c;" 
d="M30 -147c0 -12 10 -21 22 -21h96c12 0 22 9 22 21v44c0 12 -10 21 -22 21h-96c-12 0 -22 -9 -22 -21v-44zM30 103c0 -12 10 -21 22 -21h96c12 0 22 9 22 21v44c0 12 -10 21 -22 21h-96c-12 0 -22 -9 -22 -21v-44zM170 492c0 7 8 11 15 11s15 -4 15 -11v-760
c0 -10 -8 -15 -15 -15c-8 0 -15 5 -15 15c0 16 -7 32 -22 32h-96c-15 0 -22 -16 -22 -32v-34c0 -6 -8 -11 -15 -11s-15 5 -15 11v1006c0 7 8 12 15 12s15 -5 15 -12v-436c0 -16 7 -32 22 -32h96c15 0 22 16 22 32v224z" />
    <glyph glyph-name="clefs.petrucci.c2" unicode="&#xe20d;" horiz-adv-x="250" 
d="M38 -152c0 -15 12 -27 27 -27h120c15 0 27 12 27 27v54c0 15 -12 27 -27 27h-120c-15 0 -27 -12 -27 -27v-54zM38 98c0 -15 12 -27 27 -27h120c15 0 27 12 27 27v54c0 15 -12 27 -27 27h-120c-15 0 -27 -12 -27 -27v-54zM250 -539c0 -7 -10 -11 -19 -11
c-8 0 -19 4 -19 11v235c0 20 -9 40 -27 40h-120c-18 0 -27 -20 -27 -40v-285c0 -7 -11 -11 -19 -11c-9 0 -19 4 -19 11v1378c0 7 10 11 19 11c8 0 19 -4 19 -11v-485c0 -20 9 -40 27 -40h120c18 0 27 20 27 40v246c0 7 11 11 19 11c9 0 19 -4 19 -11v-1089z" />
    <glyph glyph-name="clefs.petrucci.c2_change" unicode="&#xe20e;" 
d="M30 -147c0 -12 10 -21 22 -21h96c12 0 22 9 22 21v44c0 12 -10 21 -22 21h-96c-12 0 -22 -9 -22 -21v-44zM30 103c0 -12 10 -21 22 -21h96c12 0 22 9 22 21v44c0 12 -10 21 -22 21h-96c-12 0 -22 -9 -22 -21v-44zM200 -481c0 -6 -8 -11 -15 -11s-15 5 -15 11v213
c0 16 -7 32 -22 32h-96c-15 0 -22 -16 -22 -32v-257c0 -7 -8 -12 -15 -12s-15 5 -15 12v1229c0 7 8 12 15 12s15 -5 15 -12v-436c0 -16 7 -32 22 -32h96c15 0 22 16 22 32v224c0 7 8 11 15 11s15 -4 15 -11v-973z" />
    <glyph glyph-name="clefs.petrucci.c3" unicode="&#xe20f;" horiz-adv-x="250" 
d="M38 -152c0 -15 12 -27 27 -27h120c15 0 27 12 27 27v54c0 15 -12 27 -27 27h-120c-15 0 -27 -12 -27 -27v-54zM38 98c0 -15 12 -27 27 -27h120c15 0 27 12 27 27v54c0 15 -12 27 -27 27h-120c-15 0 -27 -12 -27 -27v-54zM250 -550c0 -7 -10 -11 -19 -11
c-8 0 -19 4 -19 11v246c0 20 -9 40 -27 40h-120c-18 0 -27 -20 -27 -40v-485c0 -7 -11 -11 -19 -11c-9 0 -19 4 -19 11v1578c0 7 10 11 19 11c8 0 19 -4 19 -11v-485c0 -20 9 -40 27 -40h120c18 0 27 20 27 40v246c0 7 11 11 19 11c9 0 19 -4 19 -11v-1100z" />
    </font>
</defs>
</svg>
