<?xml version="1.0" standalone="no"?>
<!DOCTYPE svg PUBLIC "-//W3C//DTD SVG 1.1//EN" "http://www.w3.org/Graphics/SVG/1.1/DTD/svg11.dtd" >
<!--
2009-1-25: Created.
-->
<svg>
<metadata>
Created by FontForge 20080925 at Sun Jan 25 01:36:23 2009
 By Han-Wen Nienhuys
This font is distributed under the GNU General Public License. As a special exception, if you create a document which uses this font, and embed this font or unaltered portions of this font into the document, this font does not by itself cause the resulting document to be covered by the GNU General Public License.
</metadata>
<defs>
<font id="Emmentaler-23" horiz-adv-x="200" >
  <font-face 
    font-family="Emmentaler"
    font-weight="400"
    font-stretch="normal"
    units-per-em="1000"
    panose-1="2 0 5 3 0 0 0 0 0 0"
    ascent="800"
    descent="-200"
    x-height="267"
    bbox="-515 -1323 800 1249"
    underline-thickness="50"
    underline-position="-100"
    unicode-range="U+0020-U+E27A"
  />
    <missing-glyph />
    <glyph glyph-name="rests.0" unicode="&#xe100;" horiz-adv-x="376" 
d="M366 -156h-357c-5 0 -9 4 -9 9v138c0 5 4 9 9 9h357c5 0 9 -4 9 -9v-138c0 -5 -4 -9 -9 -9z" />
    <glyph glyph-name="rests.1" unicode="&#xe101;" horiz-adv-x="376" 
d="M366 0h-357c-5 0 -9 4 -9 9v138c0 5 4 9 9 9h357c5 0 9 -4 9 -9v-138c0 -5 -4 -9 -9 -9z" />
    <glyph glyph-name="rests.0o" unicode="&#xe102;" horiz-adv-x="376" 
d="M366 -156h-357c-5 0 -9 4 -9 9v124h-133c-13 0 -23 10 -23 23s10 23 23 23h641c13 0 23 -10 23 -23s-10 -23 -23 -23h-133v-124c0 -5 -4 -9 -9 -9z" />
    <glyph glyph-name="rests.1o" unicode="&#xe103;" horiz-adv-x="376" 
d="M508 -23h-641c-13 0 -23 10 -23 23s10 23 23 23h133v124c0 5 4 9 9 9h357c5 0 9 -4 9 -9v-124h133c13 0 23 -10 23 -23s-10 -23 -23 -23z" />
    <glyph glyph-name="rests.M3" unicode="&#xe104;" horiz-adv-x="451" 
d="M441 -250h-132c-5 0 -9 4 -9 9v482c0 5 4 9 9 9h132c5 0 9 -4 9 -9v-482c0 -5 -4 -9 -9 -9zM141 -250h-132c-5 0 -9 4 -9 9v482c0 5 4 9 9 9h132c5 0 9 -4 9 -9v-482c0 -5 -4 -9 -9 -9z" />
    <glyph glyph-name="rests.M2" unicode="&#xe105;" horiz-adv-x="150" 
d="M141 -250h-132c-5 0 -9 4 -9 9v482c0 5 4 9 9 9h132c5 0 9 -4 9 -9v-482c0 -5 -4 -9 -9 -9z" />
    <glyph glyph-name="rests.M1" unicode="&#xe106;" horiz-adv-x="150" 
d="M141 0h-132c-5 0 -9 4 -9 9v232c0 5 4 9 9 9h132c5 0 9 -4 9 -9v-232c0 -5 -4 -9 -9 -9z" />
    <glyph glyph-name="rests.2" unicode="&#xe107;" horiz-adv-x="238" 
d="M-5 79c0 59 125 82 125 181c0 24 -8 48 -25 68l-37 44c-2 3 -3 6 -3 9c0 8 7 15 15 15c3 0 7 -2 11 -5l151 -181c7 -8 10 -17 10 -25c0 -59 -125 -83 -125 -182c0 -24 8 -48 25 -67l85 -102c2 -3 4 -6 4 -9c0 -8 -8 -15 -15 -15c-10 0 -44 46 -111 46
c-32 0 -53 -16 -53 -69c0 -35 11 -74 29 -95c4 -5 -1 -12 -6 -12c-13 0 -98 131 -98 206c0 35 18 41 38 41c34 0 82 -14 125 -34l-135 160c-7 9 -10 17 -10 26z" />
    <glyph glyph-name="rests.2classical" unicode="&#xe108;" horiz-adv-x="250" 
d="M180 205c40 0 72 -32 72 -72c0 -46 -42 -79 -87 -79c-36 0 -71 11 -106 23l117 -327c-8 -6 -17 -9 -26 -9s-18 3 -25 9l-125 423c4 10 21 12 26 0c7 -16 47 -67 63 -67c46 0 10 99 91 99z" />
    <glyph glyph-name="rests.3" unicode="&#xe109;" horiz-adv-x="250" 
d="M70 205c81 0 45 -99 91 -99c16 0 56 51 63 67c5 12 22 10 26 0l-125 -423c-7 -6 -16 -9 -25 -9s-18 3 -26 9l117 327c-35 -12 -70 -23 -106 -23c-45 0 -87 33 -87 79c0 40 32 72 72 72z" />
    <glyph glyph-name="rests.4" unicode="&#xe10a;" horiz-adv-x="301" 
d="M124 205c82 0 46 -99 92 -99c16 0 51 51 58 67c5 12 22 11 26 0l-180 -673c-8 -6 -17 -9 -26 -9s-18 3 -25 9l100 327c-35 -12 -71 -23 -107 -23c-45 0 -87 33 -87 79c0 40 32 72 71 72c82 0 46 -99 92 -99c16 0 56 52 61 69l46 152c-34 -13 -69 -23 -105 -23
c-45 0 -87 33 -87 79c0 40 32 72 71 72z" />
    <glyph glyph-name="rests.5" unicode="&#xe10b;" horiz-adv-x="326" 
d="M154 455c82 0 46 -99 92 -99c15 0 47 52 53 67c5 12 22 11 26 0l-217 -923c-8 -6 -17 -9 -26 -9s-18 3 -26 9l87 328c-36 -13 -73 -24 -111 -24c-44 0 -87 33 -87 79c0 40 32 72 72 72c81 0 45 -99 91 -99c17 0 56 54 61 71l39 150c-34 -12 -70 -23 -107 -23
c-45 0 -87 33 -87 79c0 40 32 72 72 72c81 0 45 -99 91 -99c16 0 53 52 57 69l40 151c-34 -12 -69 -22 -104 -22c-45 0 -87 33 -87 79c0 40 32 72 71 72z" />
    <glyph glyph-name="rests.6" unicode="&#xe10c;" horiz-adv-x="351" 
d="M184 455c82 0 45 -99 92 -99c15 0 42 52 48 67c5 12 22 11 26 0l-237 -1173c-7 -6 -16 -9 -25 -9s-18 3 -26 9l74 329c-38 -14 -76 -25 -115 -25c-45 0 -87 33 -87 79c0 40 32 72 72 72c81 0 45 -99 91 -99c17 0 57 56 61 74l33 148c-36 -13 -73 -24 -111 -24
c-44 0 -87 33 -87 79c0 40 32 72 72 72c82 0 45 -99 92 -99c16 0 53 54 56 72l34 149c-35 -12 -70 -23 -107 -23c-44 0 -87 33 -87 79c0 40 32 72 72 72c81 0 45 -99 91 -99c16 0 49 52 53 69l33 151c-33 -12 -67 -22 -103 -22c-44 0 -87 33 -87 79c0 40 32 72 72 72z" />
    <glyph glyph-name="rests.7" unicode="&#xe10d;" horiz-adv-x="376" 
d="M214 705c82 0 45 -99 91 -99c15 0 38 53 44 67c5 12 22 11 26 0l-238 -1423c-8 -6 -17 -9 -26 -9s-18 3 -25 9l61 330c-39 -14 -79 -26 -120 -26c-44 0 -87 33 -87 79c0 40 32 72 72 72c82 0 45 -99 92 -99c18 0 58 57 62 77l27 146c-37 -14 -76 -25 -115 -25
c-45 0 -87 33 -87 79c0 40 32 72 72 72c81 0 45 -99 91 -99c17 0 54 56 57 74l28 148c-36 -13 -73 -24 -111 -24c-44 0 -87 33 -87 79c0 40 32 72 72 72c82 0 45 -99 92 -99c16 0 49 54 52 72l28 149c-34 -12 -70 -23 -106 -23c-45 0 -87 33 -87 79c0 40 32 72 72 72
c81 0 45 -99 91 -99c15 0 45 52 48 69l28 151c-33 -12 -67 -22 -102 -22c-44 0 -87 33 -87 79c0 40 32 72 72 72z" />
    <glyph glyph-name="accidentals.sharp" unicode="&#xe10e;" horiz-adv-x="276" 
d="M216 -314c0 -10 -8 -18 -18 -18s-18 8 -18 18v148l-85 -31v-160c0 -10 -8 -18 -18 -18s-18 8 -18 18v148l-35 -13c-2 -1 -4 -1 -6 -1c-10 0 -18 8 -18 18v62c0 8 5 15 12 17l47 17v162l-35 -13c-2 0 -4 -1 -6 -1c-10 0 -18 8 -18 18v63c0 7 5 14 12 17l47 17v160
c0 10 8 18 18 18s18 -8 18 -18v-148l85 31v160c0 10 8 18 18 18s18 -8 18 -18v-148l35 13c2 1 4 1 6 1c10 0 18 -8 18 -18v-62c0 -8 -5 -15 -12 -17l-47 -17v-162l35 13c2 0 4 1 6 1c10 0 18 -8 18 -18v-63c0 -7 -5 -14 -12 -17l-47 -17v-160zM180 96l-85 -30v-162l85 30
v162z" />
    <glyph glyph-name="accidentals.sharp.arrowup" unicode="&#xe10f;" horiz-adv-x="276" 
d="M216 -314c0 -10 -8 -18 -18 -18s-18 8 -18 18v148l-85 -31v-160c0 -10 -8 -18 -18 -18s-18 8 -18 18v148l-35 -13c-2 -1 -4 -1 -6 -1c-10 0 -18 8 -18 18v62c0 8 5 15 12 17l47 17v162l-35 -13c-2 0 -4 -1 -6 -1c-10 0 -18 8 -18 18v63c0 7 5 14 12 17l47 17v160
c0 10 8 18 18 18s18 -8 18 -18v-148l85 31v224c0 13 -5 18 -14 18c-17 0 -48 -21 -77 -37c-8 -5 -18 5 -12 13c78 110 106 237 121 237s42 -125 120 -237c1 -2 2 -4 2 -5c0 -31 -60 29 -91 29c-8 0 -13 -5 -13 -18v-212l35 13c2 1 4 1 6 1c10 0 18 -8 18 -18v-62
c0 -8 -5 -15 -12 -17l-47 -17v-162l35 13c2 0 4 1 6 1c10 0 18 -8 18 -18v-63c0 -7 -5 -14 -12 -17l-47 -17v-160zM180 96l-85 -30v-162l85 30v162z" />
    <glyph glyph-name="accidentals.sharp.arrowdown" unicode="&#xe110;" horiz-adv-x="276" 
d="M216 -314c0 -10 -8 -18 -18 -18s-18 8 -18 18v148l-85 -31v-224c0 -13 5 -18 14 -18c17 0 48 21 77 37c8 5 18 -5 12 -13c-78 -110 -106 -237 -121 -237s-42 125 -120 237c-1 2 -2 4 -2 5c0 31 60 -29 91 -29c8 0 13 5 13 18v212l-35 -13c-2 -1 -4 -1 -6 -1
c-10 0 -18 8 -18 18v62c0 8 5 15 12 17l47 17v162l-35 -13c-2 0 -4 -1 -6 -1c-10 0 -18 8 -18 18v63c0 7 5 14 12 17l47 17v160c0 10 8 18 18 18s18 -8 18 -18v-148l85 31v160c0 10 8 18 18 18s18 -8 18 -18v-148l35 13c2 1 4 1 6 1c10 0 18 -8 18 -18v-62
c0 -8 -5 -15 -12 -17l-47 -17v-162l35 13c2 0 4 1 6 1c10 0 18 -8 18 -18v-63c0 -7 -5 -14 -12 -17l-47 -17v-160zM180 96l-85 -30v-162l85 30v162z" />
    <glyph glyph-name="accidentals.sharp.arrowboth" unicode="&#xe111;" horiz-adv-x="276" 
d="M216 -314c0 -10 -8 -18 -18 -18s-18 8 -18 18v148l-85 -31v-224c0 -13 5 -18 14 -18c17 0 48 21 77 37c8 5 18 -5 12 -13c-78 -110 -106 -237 -121 -237s-42 125 -120 237c-1 2 -2 4 -2 5c0 31 60 -29 91 -29c8 0 13 5 13 18v212l-35 -13c-2 -1 -4 -1 -6 -1
c-10 0 -18 8 -18 18v62c0 8 5 15 12 17l47 17v162l-35 -13c-2 0 -4 -1 -6 -1c-10 0 -18 8 -18 18v63c0 7 5 14 12 17l47 17v160c0 10 8 18 18 18s18 -8 18 -18v-148l85 31v224c0 13 -5 18 -14 18c-17 0 -48 -21 -77 -37c-8 -5 -18 5 -12 13c78 110 106 237 121 237
s42 -125 120 -237c1 -2 2 -4 2 -5c0 -31 -60 29 -91 29c-8 0 -13 -5 -13 -18v-212l35 13c2 1 4 1 6 1c10 0 18 -8 18 -18v-62c0 -8 -5 -15 -12 -17l-47 -17v-162l35 13c2 0 4 1 6 1c10 0 18 -8 18 -18v-63c0 -7 -5 -14 -12 -17l-47 -17v-160zM180 96l-85 -30v-162l85 30v162
z" />
    <glyph glyph-name="accidentals.sharp.slashslash.stem" unicode="&#xe112;" horiz-adv-x="175" 
d="M105 -319c0 -10 -8 -18 -18 -18c-9 0 -17 8 -17 18v126l-43 -24c-3 -2 -6 -2 -9 -2c-9 0 -18 7 -18 17v63c0 6 3 12 9 15l61 34v160l-43 -25c-3 -1 -6 -2 -9 -2c-9 0 -18 7 -18 18v62c0 7 3 13 9 16l61 34v146c0 10 8 18 17 18c10 0 18 -8 18 -18v-126l43 24c3 2 6 2 9 2
c9 0 18 -7 18 -17v-63c0 -6 -3 -12 -9 -15l-61 -34v-160l43 25c3 1 6 2 9 2c9 0 18 -7 18 -18v-62c0 -7 -3 -13 -9 -16l-61 -34v-146z" />
    <glyph glyph-name="accidentals.sharp.slashslashslash.stemstem" unicode="&#xe113;" horiz-adv-x="276" 
d="M216 -318c0 -10 -8 -18 -18 -18s-18 8 -18 18v142l-85 -28v-153c0 -10 -8 -18 -18 -18s-18 8 -18 18v142l-19 -7h-6c-9 0 -18 7 -18 17v43c0 8 5 15 13 17l30 10v64l-36 -11c-2 -1 -3 -1 -5 -1c-10 0 -18 8 -18 18v53c0 8 5 15 12 17l47 15v65l-19 -7h-6
c-9 0 -18 7 -18 17v43c0 8 5 15 13 17l30 10v153c0 10 8 18 18 18s18 -8 18 -18v-142l85 28v153c0 10 8 18 18 18s18 -8 18 -18v-142l19 7h6c9 0 17 -7 17 -17v-43c0 -8 -4 -15 -12 -17l-30 -10v-64l36 11c2 1 3 1 5 1c10 0 18 -8 18 -18v-53c0 -8 -5 -15 -12 -17l-47 -15
v-65l19 7h6c9 0 17 -7 17 -17v-43c0 -8 -4 -15 -12 -17l-30 -10v-153zM180 -32l-85 -27v-65l85 28v64zM180 59v65l-85 -28v-64z" />
    <glyph glyph-name="accidentals.sharp.slashslashslash.stem" unicode="&#xe114;" horiz-adv-x="238" 
d="M137 -305c0 -10 -8 -18 -18 -18s-18 8 -18 18v107l-53 -22c-2 0 -4 -1 -6 -1c-10 0 -18 8 -18 18v43c0 7 4 13 11 16l66 27v59l-76 -31c-3 -1 -5 -1 -7 -1c-10 0 -18 7 -18 17v63c0 7 4 13 11 16l90 37v59l-53 -22c-2 0 -4 -1 -6 -1c-10 0 -18 8 -18 18v43
c0 7 4 13 11 16l66 27v122c0 10 8 18 18 18s18 -8 18 -18v-107l52 22c2 0 5 1 7 1c9 0 18 -8 18 -18v-43c0 -7 -5 -13 -11 -16l-66 -27v-59l76 31c2 1 4 1 7 1c9 0 17 -7 17 -17v-63c0 -7 -4 -13 -11 -16l-89 -37v-59l52 22c2 0 5 1 7 1c9 0 18 -8 18 -18v-43
c0 -7 -5 -13 -11 -16l-66 -27v-122z" />
    <glyph glyph-name="accidentals.sharp.slashslash.stemstemstem" unicode="&#xe115;" horiz-adv-x="401" 
d="M330 -302c0 -10 -8 -18 -18 -18c-9 0 -17 8 -17 18v144l-77 -18v-154c0 -9 -8 -17 -18 -17s-18 8 -18 17v145l-77 -19v-153c0 -10 -8 -18 -17 -18c-10 0 -18 8 -18 18v144l-48 -12h-4c-10 0 -18 8 -18 18v62c0 9 6 16 14 18l56 13v164l-48 -12c-1 0 -3 -1 -4 -1
c-10 0 -18 8 -18 18v63c0 8 6 15 14 17l56 14v153c0 10 8 18 18 18c9 0 17 -8 17 -18v-144l77 18v154c0 9 8 17 18 17s18 -8 18 -17v-145l77 19v153c0 10 8 18 17 18c10 0 18 -8 18 -18v-144l48 12h4c10 0 18 -8 18 -18v-62c0 -9 -6 -16 -14 -18l-56 -13v-164l48 12
c1 0 3 1 4 1c10 0 18 -8 18 -18v-63c0 -8 -6 -15 -14 -17l-56 -14v-153zM295 105l-77 -19v-163l77 19v163zM182 77l-77 -19v-163l77 19v163z" />
    <glyph glyph-name="accidentals.natural" unicode="&#xe116;" horiz-adv-x="167" 
d="M-7 375c7 4 16 6 24 6s17 -2 24 -6l-2 -179l108 19h3c9 0 17 -7 17 -17l7 -573c-8 -4 -16 -6 -24 -6c-9 0 -17 2 -24 6l2 179l-108 -19h-3c-9 0 -17 7 -17 17zM129 -97l3 210l-94 -16l-3 -210z" />
    <glyph glyph-name="accidentals.natural.arrowup" unicode="&#xe117;" horiz-adv-x="167" 
d="M-17 440c-31 0 -92 -64 -92 -29c0 16 31 21 118 236c1 4 5 6 8 6c16 0 39 -114 125 -236c6 -9 -5 -21 -15 -15c-28 16 -59 38 -76 38c-8 0 -13 -5 -13 -18l-2 -226l111 19h3c9 0 17 -7 17 -17l7 -573c-8 -4 -16 -6 -24 -6c-9 0 -17 2 -24 6l2 179l-108 -19h-3
c-9 0 -17 7 -17 17l-4 620c0 13 -5 18 -13 18zM129 -97l3 210l-96 -16l-1 -210z" />
    <glyph glyph-name="accidentals.natural.arrowdown" unicode="&#xe118;" horiz-adv-x="167" 
d="M184 -440c31 0 92 64 92 29c0 -16 -31 -21 -118 -236c-2 -4 -5 -6 -8 -6c-16 0 -40 114 -125 236c-6 9 4 21 14 15c28 -16 59 -38 77 -38c8 0 13 5 13 18l1 226l-110 -19h-3c-9 0 -17 7 -17 17l-7 573c7 4 16 6 24 6s17 -2 24 -6l-2 -179l108 19h3c9 0 17 -7 17 -17
l3 -620c0 -13 5 -18 14 -18zM131 -97l1 210l-94 -16l-3 -210z" />
    <glyph glyph-name="accidentals.natural.arrowboth" unicode="&#xe119;" horiz-adv-x="167" 
d="M-17 440c-31 0 -92 -64 -92 -29c0 16 31 21 118 236c1 4 5 6 8 6c16 0 39 -114 125 -236c6 -9 -5 -21 -15 -15c-28 16 -59 38 -76 38c-8 0 -13 -5 -13 -18l-2 -226l111 19h3c9 0 17 -7 17 -17l3 -620c0 -13 5 -18 14 -18c31 0 92 64 92 29c0 -16 -31 -21 -118 -236
c-2 -4 -5 -6 -8 -6c-16 0 -40 114 -125 236c-6 9 4 21 14 15c28 -16 59 -38 77 -38c8 0 13 5 13 18l1 226l-110 -19h-3c-9 0 -17 7 -17 17l-4 620c0 13 -5 18 -13 18zM131 -97l1 210l-96 -16l-1 -210z" />
    <glyph glyph-name="accidentals.flat" unicode="&#xe11a;" 
d="M26 43l-1 -68v-11c0 -22 1 -44 3 -66c46 38 95 80 95 139c0 34 -14 68 -44 68c-31 0 -52 -29 -53 -62zM-14 -137l-12 598c8 4 17 6 26 6s18 -2 26 -6l-7 -348c26 21 57 32 90 32c52 0 91 -47 91 -101c0 -81 -88 -118 -150 -169c-15 -12 -23 -35 -42 -35
c-13 0 -22 11 -22 23z" />
    <glyph glyph-name="accidentals.flat.arrowup" unicode="&#xe11b;" 
d="M26 43l-1 -68v-11c0 -22 1 -44 3 -66c46 38 95 80 95 139c0 34 -14 68 -44 68c-31 0 -52 -29 -53 -62zM-35 440c-31 0 -92 -64 -92 -29c0 16 33 25 119 236c1 4 5 6 8 6c16 0 39 -113 125 -236c7 -9 -4 -21 -14 -15c-28 16 -59 38 -76 38c-9 0 -14 -5 -14 -18l-3 -309
c26 21 58 32 91 32c52 0 91 -47 91 -101c0 -81 -88 -118 -150 -169c-15 -12 -23 -35 -42 -35c-13 0 -22 11 -22 23l-7 559c0 13 -5 18 -14 18z" />
    <glyph glyph-name="accidentals.flat.arrowdown" unicode="&#xe11c;" 
d="M26 43l-1 -68v-11c0 -22 1 -44 3 -66c46 38 95 80 95 139c0 34 -14 68 -44 68c-31 0 -52 -29 -53 -62zM200 44c0 -111 -183 -154 -183 -215v-124c0 -13 6 -18 14 -18c18 0 49 20 77 37c8 4 16 -5 11 -12c-73 -105 -104 -239 -118 -239s-43 133 -117 239c-1 1 -2 3 -2 5
c0 27 58 -30 89 -30c9 0 15 5 15 18v158l-12 598c8 4 17 6 26 6s18 -2 26 -6l-7 -348c26 21 57 32 90 32c52 0 91 -47 91 -101z" />
    <glyph glyph-name="accidentals.flat.arrowboth" unicode="&#xe11d;" 
d="M26 43l-1 -68v-11c0 -22 1 -44 3 -66c46 38 95 80 95 139c0 34 -14 68 -44 68c-31 0 -52 -29 -53 -62zM200 44c0 -111 -183 -154 -183 -215v-124c0 -13 6 -18 14 -18c18 0 49 20 77 37c8 4 16 -5 11 -12c-73 -105 -104 -239 -118 -239s-43 133 -117 239c-5 7 3 16 11 12
c28 -17 59 -37 76 -37c9 0 15 5 15 18v158l-7 559c0 13 -5 18 -14 18c-31 0 -92 -64 -92 -29c0 16 33 25 119 236c1 4 5 6 8 6c16 0 39 -113 125 -236c7 -9 -4 -21 -14 -15c-28 16 -59 38 -76 38c-9 0 -14 -5 -14 -18l-3 -309c26 21 58 32 91 32c52 0 91 -47 91 -101z" />
    <glyph glyph-name="accidentals.flat.slash" unicode="&#xe11e;" 
d="M26 43l-1 -68v-11c0 -22 1 -44 3 -66c46 38 95 80 95 139c0 34 -14 68 -44 68c-31 0 -52 -29 -53 -62zM-22 246l-4 215c8 4 17 6 26 6s18 -2 26 -6l-4 -193l70 35c20 10 37 -21 16 -31l-86 -43l-3 -116c26 21 57 32 90 32c52 0 91 -47 91 -101c0 -81 -88 -118 -150 -169
c-15 -12 -23 -35 -42 -35c-13 0 -22 11 -22 23l-7 344l-71 -35c-11 -6 -25 2 -25 15c0 7 3 13 9 16z" />
    <glyph glyph-name="accidentals.flat.slashslash" unicode="&#xe11f;" 
d="M26 43l-1 -68v-11c0 -22 1 -44 3 -66c46 38 95 80 95 139c0 34 -14 68 -44 68c-31 0 -52 -29 -53 -62zM-23 324l-3 137c8 4 17 6 26 6s18 -2 26 -6l-2 -113l68 34c20 10 37 -20 16 -31l-85 -42l-2 -81l71 35c20 10 37 -20 16 -31l-87 -43l-2 -76c26 21 57 32 90 32
c52 0 91 -47 91 -101c0 -81 -88 -118 -150 -169c-15 -12 -23 -35 -42 -35c-13 0 -22 11 -22 23l-6 305l-72 -36c-11 -5 -25 2 -25 16c0 6 3 12 9 15l87 44l-2 79l-69 -35c-11 -5 -25 2 -25 16c0 6 3 12 9 15z" />
    <glyph glyph-name="accidentals.mirroredflat.flat" unicode="&#xe120;" horiz-adv-x="401" 
d="M208 -160h-16c-19 0 -27 23 -42 35c-62 51 -150 88 -150 169c0 54 39 101 91 101c33 0 64 -11 90 -32l-7 348c8 4 17 7 26 7s18 -3 26 -7l-7 -348c26 21 57 32 90 32c52 0 91 -47 91 -101c0 -81 -88 -118 -150 -169c-15 -12 -23 -35 -42 -35zM174 43c-1 33 -22 62 -53 62
c-30 0 -44 -34 -44 -68c0 -59 49 -101 95 -139c2 22 3 44 3 66v11zM226 43l-1 -68v-11c0 -22 1 -44 3 -66c46 38 95 80 95 139c0 34 -14 68 -44 68c-31 0 -52 -29 -53 -62z" />
    <glyph glyph-name="accidentals.mirroredflat" unicode="&#xe121;" 
d="M146 43c-1 33 -22 62 -53 62c-30 0 -44 -34 -44 -68c0 -59 49 -101 95 -139c2 22 4 44 4 66c0 4 -1 7 -1 11zM187 -137c0 -12 -10 -23 -23 -23c-19 0 -27 23 -41 35c-62 51 -151 88 -151 169c0 54 39 101 91 101c33 0 64 -11 90 -32l-7 348c8 4 17 6 26 6s18 -2 26 -6z
" />
    <glyph glyph-name="accidentals.mirroredflat.backslash" unicode="&#xe122;" 
d="M74 43c-1 33 -22 62 -53 62c-30 0 -44 -34 -44 -68c0 -59 49 -101 95 -139c2 22 3 44 3 66v11zM122 246l86 -43c6 -3 9 -9 9 -16c0 -13 -14 -21 -25 -15l-71 35l-7 -344c0 -12 -9 -23 -22 -23c-19 0 -27 23 -42 35c-62 51 -150 88 -150 169c0 54 39 101 91 101
c33 0 64 -11 90 -32l-3 116l-86 43c-21 10 -4 41 16 31l70 -35l-4 193c8 4 17 6 26 6s18 -2 26 -6z" />
    <glyph glyph-name="accidentals.flatflat" unicode="&#xe123;" horiz-adv-x="363" 
d="M189 43l-2 -68v-11c0 -22 1 -44 4 -66c45 37 88 82 88 139c0 34 -11 68 -40 68c-31 0 -50 -30 -50 -62zM148 -137l-2 106c-27 -34 -69 -62 -102 -94c-13 -12 -18 -35 -36 -35c-13 0 -22 11 -22 23l-12 598c8 4 17 6 26 6s18 -2 26 -6l-7 -348c18 20 43 32 69 32
c22 0 40 -9 55 -22l-6 338c8 4 17 6 25 6c9 0 18 -2 26 -6l-6 -348c24 21 55 32 86 32c53 0 94 -46 94 -100c0 -81 -88 -118 -150 -170c-14 -12 -22 -35 -42 -35c-12 0 -22 11 -22 23zM18 43l-1 -68v-11c0 -23 1 -46 4 -68c40 38 71 86 71 141c0 33 -6 68 -33 68
c-28 0 -40 -31 -41 -62z" />
    <glyph glyph-name="accidentals.flatflat.slash" unicode="&#xe124;" horiz-adv-x="363" 
d="M189 43l-2 -68v-11c0 -22 1 -44 4 -66c45 37 88 82 88 139c0 34 -11 68 -40 68c-31 0 -50 -30 -50 -62zM-118 114c-12 0 -24 10 -24 23c0 9 4 16 12 21l109 62l-5 241c8 4 17 6 26 6s18 -2 26 -6l-4 -216l117 68l-2 148c8 4 17 6 25 6c9 0 18 -2 26 -6l-2 -121l74 43
c4 2 8 3 12 3c11 0 23 -10 23 -23c0 -9 -4 -16 -12 -21l-98 -56l-3 -173c24 21 55 32 86 32c53 0 94 -46 94 -100c0 -81 -88 -118 -150 -170c-14 -12 -22 -35 -42 -35c-12 0 -22 11 -22 23l-2 106c-27 -34 -69 -62 -102 -94c-13 -12 -18 -35 -36 -35c-13 0 -22 11 -22 23
l-6 304l-87 -50c-4 -2 -8 -3 -11 -3zM140 260l-119 -69l-2 -78c18 20 43 32 69 32c22 0 40 -9 55 -22zM18 43l-1 -68v-11c0 -23 1 -46 4 -68c40 38 71 86 71 141c0 33 -6 68 -33 68c-28 0 -40 -31 -41 -62z" />
    <glyph glyph-name="accidentals.doublesharp" unicode="&#xe125;" horiz-adv-x="250" 
d="M151 0c23 -23 57 -28 90 -28c5 0 9 -4 9 -9l9 -88c0 -5 -3 -9 -8 -9h-1l-88 9c-5 0 -9 4 -9 9c0 33 -5 67 -28 90c-23 -23 -28 -57 -28 -90c0 -5 -4 -9 -9 -9l-88 -9h-1c-5 0 -8 4 -8 9l9 88c0 5 4 9 9 9c33 0 67 5 90 28c-23 23 -57 28 -90 28c-5 0 -9 4 -9 9l-9 88
c0 5 3 9 8 9h1l88 -9c5 0 9 -4 9 -9c0 -33 5 -67 28 -90c23 23 28 57 28 90c0 5 4 9 9 9l88 9h1c5 0 8 -4 8 -9l-9 -88c0 -5 -4 -9 -9 -9c-33 0 -67 -5 -90 -28z" />
    <glyph glyph-name="accidentals.rightparen" unicode="&#xe126;" horiz-adv-x="148" 
d="M38 -250c0 13 63 61 63 250s-63 237 -63 250c0 7 6 12 12 12c14 0 99 -129 99 -262c0 -135 -86 -262 -99 -262c-6 0 -12 5 -12 12z" />
    <glyph glyph-name="accidentals.leftparen" unicode="&#xe127;" horiz-adv-x="0" 
d="M-38 -250c0 -7 -6 -12 -12 -12c-13 0 -99 127 -99 262c0 133 85 262 99 262c6 0 12 -5 12 -12c0 -13 -63 -61 -63 -250s63 -237 63 -250z" />
    <glyph glyph-name="arrowheads.open.01" unicode="&#xe128;" horiz-adv-x="18" 
d="M-231 125c20 0 78 -106 231 -106c12 0 19 -10 19 -19s-7 -19 -19 -19c-84 0 -163 -36 -217 -100c-4 -4 -9 -6 -14 -6c-10 0 -19 7 -19 19c0 17 64 78 142 106c-81 29 -142 91 -142 106c0 12 9 19 19 19z" />
    <glyph glyph-name="arrowheads.open.0M1" unicode="&#xe129;" horiz-adv-x="250" 
d="M231 -125c-20 0 -78 106 -231 106c-12 0 -19 10 -19 19s7 19 19 19c153 0 211 106 231 106c10 0 19 -7 19 -19c0 -15 -61 -77 -142 -106c78 -28 142 -89 142 -106c0 -12 -9 -19 -19 -19z" />
    <glyph glyph-name="arrowheads.open.11" unicode="&#xe12a;" horiz-adv-x="125" 
d="M-125 -231c0 20 106 78 106 231c0 12 10 19 19 19s19 -7 19 -19c0 -84 36 -163 100 -217c4 -4 6 -9 6 -14c0 -10 -7 -19 -19 -19c-17 0 -78 64 -106 142c-29 -81 -91 -142 -106 -142c-12 0 -19 9 -19 19z" />
    <glyph glyph-name="arrowheads.open.1M1" unicode="&#xe12b;" horiz-adv-x="125" 
d="M125 231c0 -20 -106 -78 -106 -231c0 -12 -10 -19 -19 -19s-19 7 -19 19c0 153 -106 211 -106 231c0 10 7 19 19 19c15 0 77 -61 106 -142c28 78 89 142 106 142c12 0 19 -9 19 -19z" />
    <glyph glyph-name="arrowheads.close.01" unicode="&#xe12c;" horiz-adv-x="0" 
d="M-250 -116c0 3 12 54 12 116s-12 113 -12 116c0 5 4 9 9 9c3 0 5 -1 7 -3c38 -48 173 -113 234 -113c6 0 9 -5 9 -9s-3 -9 -9 -9c-61 0 -196 -65 -234 -113c-2 -2 -4 -3 -7 -3s-9 2 -9 9z" />
    <glyph glyph-name="arrowheads.close.0M1" unicode="&#xe12d;" horiz-adv-x="250" 
d="M250 -116c0 -7 -6 -9 -9 -9s-5 1 -7 3c-38 48 -173 113 -234 113c-6 0 -9 5 -9 9s3 9 9 9c61 0 196 65 234 113c2 2 4 3 7 3c5 0 9 -4 9 -9c0 -3 -12 -54 -12 -116s12 -113 12 -116z" />
    <glyph glyph-name="arrowheads.close.11" unicode="&#xe12e;" horiz-adv-x="125" 
d="M116 -250c-3 0 -54 12 -116 12s-113 -12 -116 -12c-5 0 -9 4 -9 9c0 3 1 5 3 7c48 38 113 173 113 234c0 6 5 9 9 9s9 -3 9 -9c0 -61 65 -196 113 -234c2 -2 3 -4 3 -7s-2 -9 -9 -9z" />
    <glyph glyph-name="arrowheads.close.1M1" unicode="&#xe12f;" horiz-adv-x="125" 
d="M-116 250c3 0 54 -12 116 -12s113 12 116 12c5 0 9 -4 9 -9c0 -3 -1 -5 -3 -7c-48 -38 -113 -173 -113 -234c0 -6 -5 -9 -9 -9s-9 3 -9 9c0 61 -65 196 -113 234c-2 2 -3 4 -3 7s2 9 9 9z" />
    <glyph glyph-name="dots.dot" unicode="&#xe130;" horiz-adv-x="113" 
d="M0 0c0 31 25 57 57 57c31 0 56 -26 56 -57s-25 -57 -56 -57c-32 0 -57 26 -57 57z" />
    <glyph glyph-name="noteheads.uM2" unicode="&#xe131;" horiz-adv-x="493" 
d="M246 137c150 0 219 -65 237 -100v826c0 13 10 24 23 24s23 -11 23 -24v-976c0 -13 -10 -24 -23 -24s-23 11 -23 24v76c-18 -35 -87 -100 -237 -100s-220 65 -237 100v-76c0 -13 -10 -24 -23 -24s-24 11 -24 24v226c0 13 11 24 24 24s23 -11 23 -24v-76
c17 35 87 100 237 100zM213 113c-48 0 -69 -38 -69 -88c0 -100 86 -138 135 -138c48 0 69 38 69 88c0 100 -86 138 -135 138z" />
    <glyph glyph-name="noteheads.dM2" unicode="&#xe132;" horiz-adv-x="493" 
d="M246 137c150 0 219 -65 237 -100v76c0 13 10 24 23 24s23 -11 23 -24v-226c0 -13 -10 -24 -23 -24s-23 11 -23 24v76c-18 -35 -87 -100 -237 -100s-220 65 -237 100v-826c0 -13 -10 -24 -23 -24s-24 11 -24 24v976c0 13 11 24 24 24s23 -11 23 -24v-76
c17 35 87 100 237 100zM213 113c-48 0 -69 -38 -69 -88c0 -100 86 -138 135 -138c48 0 69 38 69 88c0 100 -86 138 -135 138z" />
    <glyph glyph-name="noteheads.sM1" unicode="&#xe133;" horiz-adv-x="493" 
d="M246 137c150 0 219 -65 237 -100v76c0 13 10 24 23 24s23 -11 23 -24v-226c0 -13 -10 -24 -23 -24s-23 11 -23 24v76c-18 -35 -87 -100 -237 -100s-220 65 -237 100v-76c0 -13 -10 -24 -23 -24s-24 11 -24 24v226c0 13 11 24 24 24s23 -11 23 -24v-76
c17 35 87 100 237 100zM213 113c-48 0 -69 -38 -69 -88c0 -100 86 -138 135 -138c48 0 69 38 69 88c0 100 -86 138 -135 138z" />
    <glyph glyph-name="noteheads.s0" unicode="&#xe134;" horiz-adv-x="500" 
d="M216 113c-48 0 -70 -36 -70 -87c0 -102 87 -139 137 -139c47 0 69 36 69 87c0 102 -87 139 -136 139zM249 137c129 0 249 -55 249 -137s-120 -137 -249 -137c-128 0 -249 55 -249 137s121 137 249 137z" />
    <glyph glyph-name="noteheads.s1" unicode="&#xe135;" horiz-adv-x="347" 
d="M316 66c0 24 -18 42 -42 42c-41 0 -207 -115 -233 -146c-7 -8 -11 -18 -11 -28c0 -24 19 -42 42 -42c41 0 208 115 234 146c7 8 10 18 10 28zM266 137c63 0 81 -34 81 -70c0 -37 -24 -117 -76 -152c-62 -42 -140 -52 -190 -52c-64 0 -81 34 -81 70c0 37 24 117 76 152
c61 42 140 52 190 52z" />
    <glyph glyph-name="noteheads.s2" unicode="&#xe136;" horiz-adv-x="330" 
d="M222 137c64 0 107 -36 107 -89c0 -90 -116 -185 -222 -185c-64 0 -107 36 -107 89c0 90 116 185 222 185z" />
    <glyph glyph-name="noteheads.s0diamond" unicode="&#xe137;" horiz-adv-x="493" 
d="M209 75c-16 0 -27 -6 -27 -74c0 -47 18 -54 61 -67c13 -4 28 -9 40 -9c16 0 27 6 27 74c0 47 -18 54 -61 67c-13 4 -28 9 -40 9zM492 0c0 -57 -80 -43 -124 -68c-42 -23 -73 -69 -122 -69s-80 46 -122 69c-45 25 -124 11 -124 68s79 43 124 68c42 23 73 69 122 69
s80 -46 122 -69c44 -25 124 -11 124 -68z" />
    <glyph glyph-name="noteheads.s1diamond" unicode="&#xe138;" horiz-adv-x="363" 
d="M292 55c0 12 -9 27 -29 27c-35 0 -163 -89 -183 -113c-6 -7 -10 -16 -10 -24c0 -12 9 -27 29 -27c35 0 162 89 183 113c6 7 10 16 10 24zM321 137c24 0 41 -22 41 -40c0 -28 -33 -56 -42 -86c-15 -46 12 -121 -82 -121c-25 0 -52 6 -78 6c-48 0 -83 -33 -119 -33
c-25 0 -41 22 -41 40c0 28 33 56 42 86c14 46 -12 121 82 121c25 0 52 -6 78 -6c47 0 83 33 119 33z" />
    <glyph glyph-name="noteheads.s2diamond" unicode="&#xe139;" horiz-adv-x="367" 
d="M329 137c30 0 37 -29 37 -39c0 -36 -62 -63 -85 -101c-26 -44 -43 -133 -102 -133c-23 0 -47 12 -72 12c-23 0 -49 -13 -70 -13c-30 0 -37 29 -37 39c0 36 62 63 85 101c27 44 44 133 102 133c23 0 48 -12 73 -12c23 0 48 13 69 13z" />
    <glyph glyph-name="noteheads.s0triangle" unicode="&#xe13a;" horiz-adv-x="574" 
d="M127 84c26 -45 46 -106 46 -177v-18c64 54 139 99 223 130c-97 12 -187 35 -269 65zM0 159c0 18 28 22 41 22c16 0 199 -121 492 -121h6c17 0 34 -8 34 -23c0 -44 -203 -19 -423 -249c-4 -4 -9 -5 -14 -5c-17 0 -44 6 -44 23c0 0 11 41 11 88c0 48 -10 149 -88 243
c-6 7 -15 11 -15 22z" />
    <glyph glyph-name="noteheads.d1triangle" unicode="&#xe13b;" horiz-adv-x="415" 
d="M99 70c19 -46 32 -98 32 -159c42 42 91 78 146 105c-65 11 -124 30 -178 54zM0 141c0 13 15 23 31 23c21 0 135 -108 355 -108c15 0 28 -10 28 -23c0 -42 -158 -28 -297 -220c-5 -6 -13 -8 -21 -8c-16 0 -30 9 -30 23c0 8 7 32 7 79c0 143 -73 217 -73 234z" />
    <glyph glyph-name="noteheads.u1triangle" unicode="&#xe13c;" horiz-adv-x="415" 
d="M99 70c19 -46 32 -98 32 -159c42 42 91 78 146 105c-65 11 -124 30 -178 54zM0 141c0 13 15 23 31 23c21 0 135 -108 355 -108c15 0 28 -10 28 -23c0 -42 -158 -28 -297 -220c-5 -6 -13 -8 -21 -8c-16 0 -30 9 -30 23c0 8 7 32 7 79c0 143 -73 217 -73 234z" />
    <glyph glyph-name="noteheads.u2triangle" unicode="&#xe13d;" horiz-adv-x="345" 
d="M61 -93c0 139 -61 217 -61 233c0 13 11 24 24 24c21 0 113 -108 297 -108c13 0 24 -11 24 -24c0 -34 -51 -19 -148 -100c-92 -77 -89 -127 -118 -127c-13 0 -24 10 -24 24c0 7 6 31 6 78z" />
    <glyph glyph-name="noteheads.d2triangle" unicode="&#xe13e;" horiz-adv-x="345" 
d="M61 -93c0 139 -61 217 -61 233c0 13 11 24 24 24c21 0 113 -108 297 -108c13 0 24 -11 24 -24c0 -34 -51 -19 -148 -100c-92 -77 -89 -127 -118 -127c-13 0 -24 10 -24 24c0 7 6 31 6 78z" />
    <glyph glyph-name="noteheads.s0slash" unicode="&#xe13f;" horiz-adv-x="755" 
d="M120 -191h281l232 382h-281zM9 -262c-5 0 -9 5 -9 9c0 2 0 3 1 5l308 505c2 3 5 5 8 5h427c5 0 9 -5 9 -9c0 -2 -1 -3 -2 -5l-307 -505c-2 -3 -5 -5 -8 -5h-427z" />
    <glyph glyph-name="noteheads.s1slash" unicode="&#xe140;" horiz-adv-x="587" 
d="M120 -191h114l232 382h-114zM9 -262c-5 0 -9 5 -9 9c0 2 0 3 1 5l308 505c2 3 5 5 8 5h259c6 0 9 -5 9 -9c0 -2 0 -3 -1 -5l-308 -505c-1 -3 -4 -5 -7 -5h-260z" />
    <glyph glyph-name="noteheads.s2slash" unicode="&#xe141;" horiz-adv-x="429" 
d="M9 -262c-5 0 -9 5 -9 9c0 2 0 3 1 5l308 505c2 3 5 5 8 5h102c5 0 9 -5 9 -9c0 -2 -1 -3 -2 -5l-307 -505c-2 -3 -5 -5 -8 -5h-102z" />
    <glyph glyph-name="noteheads.s0cross" unicode="&#xe142;" horiz-adv-x="423" 
d="M219 41c-3 -1 -5 -2 -8 -2s-6 1 -8 2l-112 76l-52 -35l103 -70c3 -3 6 -7 6 -12s-3 -9 -6 -12l-103 -70l52 -35l112 76c2 1 5 2 8 2s5 -1 8 -2l112 -76l52 35l-103 70c-3 3 -6 7 -6 12s3 9 6 12l103 70l-52 35zM211 70l112 76c2 1 5 2 8 2s5 -1 8 -2l77 -53
c4 -2 6 -7 6 -11c0 -5 -2 -9 -6 -12l-103 -70l103 -70c4 -3 6 -7 6 -12c0 -4 -2 -9 -6 -11l-77 -53c-3 -1 -5 -2 -8 -2s-6 1 -8 2l-112 76l-112 -76c-2 -1 -5 -2 -8 -2s-5 1 -8 2l-77 53c-4 2 -6 7 -6 11c0 5 2 9 6 12l103 70l-103 70c-4 3 -6 7 -6 12c0 4 2 9 6 11l77 53
c3 1 5 2 8 2s6 -1 8 -2z" />
    <glyph glyph-name="noteheads.s1cross" unicode="&#xe143;" horiz-adv-x="376" 
d="M196 32c-2 -2 -5 -3 -8 -3s-6 1 -9 3l-107 79l-35 -26l100 -74c4 -2 6 -7 6 -11s-2 -9 -6 -11l-100 -74l35 -26l107 79c3 2 6 3 9 3s6 -1 8 -3l107 -79l35 26l-100 74c-4 2 -6 7 -6 11s2 9 6 11l100 74l-35 26zM188 61l107 79c2 1 5 2 8 2s6 -1 8 -2l59 -44
c3 -2 6 -6 6 -11c0 -4 -3 -8 -6 -11l-100 -74l100 -74c3 -3 6 -7 6 -11c0 -5 -3 -9 -6 -11l-59 -44c-2 -1 -5 -2 -8 -2s-6 1 -8 2l-107 79l-107 -79c-3 -1 -6 -2 -9 -2c-2 0 -5 1 -8 2l-58 44c-4 2 -6 6 -6 11c0 4 2 8 6 11l100 74l-100 74c-4 3 -6 7 -6 11c0 5 2 9 6 11
l58 44c3 1 6 2 8 2c3 0 6 -1 9 -2z" />
    <glyph glyph-name="noteheads.s2cross" unicode="&#xe144;" horiz-adv-x="330" 
d="M165 33l123 100c2 2 6 4 9 4s6 -2 9 -4l18 -14c3 -3 5 -7 5 -11s-2 -8 -5 -11l-119 -97l119 -97c3 -3 5 -7 5 -11s-2 -8 -5 -11l-18 -14c-3 -2 -6 -4 -9 -4s-7 2 -9 4l-123 100l-124 -100c-2 -2 -5 -4 -9 -4c-3 0 -6 2 -8 4l-19 14c-3 3 -5 7 -5 11s2 8 5 11l119 97
l-119 97c-3 3 -5 7 -5 11s2 8 5 11l19 14c2 2 5 4 8 4c4 0 7 -2 9 -4z" />
    <glyph glyph-name="noteheads.s2xcircle" unicode="&#xe145;" horiz-adv-x="392" 
d="M196 171c106 0 195 -75 195 -171s-89 -171 -195 -171c-107 0 -196 75 -196 171s89 171 196 171zM196 22l99 86c-28 19 -63 29 -99 29c-37 0 -72 -10 -100 -29zM170 0l-100 86c-24 -24 -36 -54 -36 -86s12 -62 36 -86zM221 0l101 -86c23 24 36 54 36 86s-13 62 -36 86z
M196 -22l-100 -86c28 -19 63 -29 100 -29c36 0 71 10 99 29z" />
    <glyph glyph-name="noteheads.s0do" unicode="&#xe146;" horiz-adv-x="500" 
d="M77 -73h344l-172 140zM20 -113c-11 0 -20 9 -20 20c0 6 3 12 7 16l229 186c4 3 8 4 13 4s9 -1 13 -4l229 -186c5 -4 7 -10 7 -16c0 -11 -9 -20 -20 -20h-458z" />
    <glyph glyph-name="noteheads.d1do" unicode="&#xe147;" horiz-adv-x="347" 
d="M63 -73h220l-110 134zM20 -113c-11 0 -20 9 -20 20c0 5 2 9 5 13l153 186c3 5 9 7 15 7s12 -2 16 -7l153 -186c3 -4 5 -8 5 -13c0 -11 -9 -20 -21 -20h-306z" />
    <glyph glyph-name="noteheads.u1do" unicode="&#xe148;" horiz-adv-x="347" 
d="M63 -73h220l-110 134zM20 -113c-11 0 -20 9 -20 20c0 5 2 9 5 13l153 186c3 5 9 7 15 7s12 -2 16 -7l153 -186c3 -4 5 -8 5 -13c0 -11 -9 -20 -21 -20h-306z" />
    <glyph glyph-name="noteheads.d2do" unicode="&#xe149;" horiz-adv-x="330" 
d="M20 -113c-11 0 -20 9 -20 20c0 4 1 9 4 12l144 187c4 4 10 7 17 7c6 0 12 -3 16 -7l144 -187c3 -3 4 -8 4 -12c0 -11 -9 -20 -20 -20h-289z" />
    <glyph glyph-name="noteheads.u2do" unicode="&#xe14a;" horiz-adv-x="330" 
d="M20 -113c-11 0 -20 9 -20 20c0 4 1 9 4 12l144 187c4 4 10 7 17 7c6 0 12 -3 16 -7l144 -187c3 -3 4 -8 4 -12c0 -11 -9 -20 -20 -20h-289z" />
    <glyph glyph-name="noteheads.s0re" unicode="&#xe14b;" horiz-adv-x="500" 
d="M41 73v-36c0 -86 108 -110 208 -110c101 0 209 24 209 110v36h-417zM0 93c0 11 9 20 20 20h458c11 0 20 -9 20 -20v-56c0 -107 -126 -150 -249 -150s-249 43 -249 150v56z" />
    <glyph glyph-name="noteheads.u1re" unicode="&#xe14c;" horiz-adv-x="347" 
d="M41 73v-36c0 -65 63 -110 132 -110c70 0 133 45 133 110v36h-265zM0 93c0 11 9 20 20 20h306c12 0 21 -9 21 -20v-56c0 -87 -82 -150 -174 -150s-173 63 -173 150v56z" />
    <glyph glyph-name="noteheads.d1re" unicode="&#xe14d;" horiz-adv-x="347" 
d="M41 73v-36c0 -65 63 -110 132 -110c70 0 133 45 133 110v36h-265zM0 93c0 11 9 20 20 20h306c12 0 21 -9 21 -20v-56c0 -87 -82 -150 -174 -150s-173 63 -173 150v56z" />
    <glyph glyph-name="noteheads.u2re" unicode="&#xe14e;" horiz-adv-x="330" 
d="M0 93c0 11 9 20 20 20h289c11 0 20 -9 20 -20v-56c0 -86 -76 -150 -164 -150c-89 0 -165 64 -165 150v56z" />
    <glyph glyph-name="noteheads.d2re" unicode="&#xe14f;" horiz-adv-x="330" 
d="M0 93c0 11 9 20 20 20h289c11 0 20 -9 20 -20v-56c0 -86 -76 -150 -164 -150c-89 0 -165 64 -165 150v56z" />
    <glyph glyph-name="noteheads.s0mi" unicode="&#xe150;" horiz-adv-x="500" 
d="M88 5l175 -71l148 61l-175 71zM13 -19c-8 3 -13 11 -13 19s5 16 13 19l228 93c3 1 6 1 8 1c3 0 5 0 8 -1l229 -93c7 -3 12 -11 12 -19s-5 -16 -12 -19l-229 -93c-3 -1 -5 -1 -8 -1c-2 0 -5 0 -8 1z" />
    <glyph glyph-name="noteheads.s1mi" unicode="&#xe151;" horiz-adv-x="330" 
d="M67 6l107 -69l88 57l-107 69zM9 -17c-5 4 -9 10 -9 17s4 13 9 17l145 93c3 2 7 3 11 3c3 0 7 -1 11 -3l144 -93c6 -4 9 -10 9 -17s-3 -13 -9 -17l-144 -93c-4 -2 -8 -3 -11 -3c-4 0 -8 1 -11 3z" />
    <glyph glyph-name="noteheads.s2mi" unicode="&#xe152;" horiz-adv-x="330" 
d="M9 -17c-5 4 -9 10 -9 17s4 13 9 17l145 93c3 2 7 3 11 3c3 0 7 -1 11 -3l144 -93c6 -4 9 -10 9 -17s-3 -13 -9 -17l-144 -93c-4 -2 -8 -3 -11 -3c-4 0 -8 1 -11 3z" />
    <glyph glyph-name="noteheads.u0fa" unicode="&#xe153;" horiz-adv-x="500" 
d="M124 73l334 -136v136h-334zM0 93c0 11 9 20 20 20h458c11 0 20 -9 20 -20v-186c0 -11 -9 -20 -20 -20c-3 0 -5 0 -8 1l-457 186c-8 3 -13 11 -13 19z" />
    <glyph glyph-name="noteheads.d0fa" unicode="&#xe154;" horiz-adv-x="500" 
d="M374 -73l-333 136v-136h333zM498 -93c0 -11 -9 -20 -20 -20h-458c-11 0 -20 9 -20 20v186c0 11 9 20 20 20c3 0 6 0 8 -1l458 -186c7 -3 12 -11 12 -19z" />
    <glyph glyph-name="noteheads.u1fa" unicode="&#xe155;" horiz-adv-x="347" 
d="M93 73l213 -130v130h-213zM0 93c0 11 9 20 20 20h306c12 0 21 -9 21 -20v-186c0 -11 -9 -20 -21 -20c-3 0 -7 1 -10 3l-306 186c-6 3 -10 10 -10 17z" />
    <glyph glyph-name="noteheads.d1fa" unicode="&#xe156;" horiz-adv-x="347" 
d="M254 -73l-213 130v-130h213zM347 -93c0 -11 -9 -20 -21 -20h-306c-11 0 -20 9 -20 20v186c0 11 9 20 20 20c4 0 8 -1 11 -3l306 -186c6 -3 10 -10 10 -17z" />
    <glyph glyph-name="noteheads.u2fa" unicode="&#xe157;" horiz-adv-x="330" 
d="M0 93c0 11 9 20 20 20h289c11 0 20 -9 20 -20v-186c0 -11 -9 -20 -20 -20c-4 0 -8 1 -11 3l-289 186c-5 4 -9 10 -9 17z" />
    <glyph glyph-name="noteheads.d2fa" unicode="&#xe158;" horiz-adv-x="330" 
d="M329 -93c0 -11 -9 -20 -20 -20h-289c-11 0 -20 9 -20 20v186c0 11 9 20 20 20c4 0 8 -1 11 -3l289 -186c6 -4 9 -10 9 -17z" />
    <glyph glyph-name="noteheads.s0la" unicode="&#xe159;" horiz-adv-x="500" 
d="M41 73v-146h417v146h-417zM20 113h458c11 0 20 -9 20 -20v-186c0 -11 -9 -20 -20 -20h-458c-11 0 -20 9 -20 20v186c0 11 9 20 20 20z" />
    <glyph glyph-name="noteheads.s1la" unicode="&#xe15a;" horiz-adv-x="347" 
d="M41 73v-146h265v146h-265zM20 113h306c12 0 21 -9 21 -20v-186c0 -11 -9 -20 -21 -20h-306c-11 0 -20 9 -20 20v186c0 11 9 20 20 20z" />
    <glyph glyph-name="noteheads.s2la" unicode="&#xe15b;" horiz-adv-x="330" 
d="M20 113h289c11 0 20 -9 20 -20v-186c0 -11 -9 -20 -20 -20h-289c-11 0 -20 9 -20 20v186c0 11 9 20 20 20z" />
    <glyph glyph-name="noteheads.s0ti" unicode="&#xe15c;" horiz-adv-x="500" 
d="M249 -70l187 97c-58 30 -122 46 -187 46s-129 -16 -187 -46zM249 113c123 0 249 -61 249 -87c0 -8 -4 -15 -11 -18l-228 -119c-3 -2 -7 -2 -10 -2s-6 0 -9 2l-229 119c-7 3 -11 10 -11 18c0 28 129 87 249 87z" />
    <glyph glyph-name="noteheads.u1ti" unicode="&#xe15d;" horiz-adv-x="347" 
d="M173 -67l123 95c-35 29 -78 45 -123 45c-44 0 -88 -16 -122 -45zM173 113c104 0 174 -70 174 -88c0 -6 -3 -12 -8 -15l-153 -119c-4 -3 -8 -4 -13 -4c-4 0 -9 1 -12 4l-153 119c-5 3 -8 9 -8 15c0 19 71 88 173 88z" />
    <glyph glyph-name="noteheads.d1ti" unicode="&#xe15e;" horiz-adv-x="347" 
d="M173 -67l123 95c-35 29 -78 45 -123 45c-44 0 -88 -16 -122 -45zM173 113c104 0 174 -70 174 -88c0 -6 -3 -12 -8 -15l-153 -119c-4 -3 -8 -4 -13 -4c-4 0 -9 1 -12 4l-153 119c-5 3 -8 9 -8 15c0 19 71 88 173 88z" />
    <glyph glyph-name="noteheads.u2ti" unicode="&#xe15f;" horiz-adv-x="330" 
d="M165 113c98 0 164 -70 164 -88c0 -6 -3 -11 -7 -15l-145 -119c-3 -3 -8 -4 -12 -4c-5 0 -10 1 -13 4l-145 119c-4 4 -7 9 -7 15c0 19 67 88 165 88z" />
    <glyph glyph-name="noteheads.d2ti" unicode="&#xe160;" horiz-adv-x="330" 
d="M165 113c98 0 164 -70 164 -88c0 -6 -3 -11 -7 -15l-145 -119c-3 -3 -8 -4 -12 -4c-5 0 -10 1 -13 4l-145 119c-4 4 -7 9 -7 15c0 19 67 88 165 88z" />
    <glyph glyph-name="scripts.ufermata" unicode="&#xe161;" horiz-adv-x="331" 
d="M-65 47c0 36 29 65 65 65s65 -29 65 -65c0 -35 -29 -64 -65 -64s-65 29 -65 64zM0 361c258 0 330 -335 330 -364c0 -8 -8 -14 -17 -14c-8 0 -16 5 -18 17c-26 148 -147 264 -295 264s-269 -116 -295 -264c-2 -12 -10 -17 -18 -17c-9 0 -17 6 -17 14c0 29 72 364 330 364z
" />
    <glyph glyph-name="scripts.dfermata" unicode="&#xe162;" horiz-adv-x="331" 
d="M-65 -47c0 35 29 64 65 64s65 -29 65 -64c0 -36 -29 -65 -65 -65s-65 29 -65 65zM0 -361c-258 0 -330 335 -330 364c0 8 8 14 17 14c8 0 16 -5 18 -17c26 -148 147 -264 295 -264s269 116 295 264c2 12 10 17 18 17c9 0 17 -6 17 -14c0 -29 -72 -364 -330 -364z" />
    <glyph glyph-name="scripts.ushortfermata" unicode="&#xe163;" horiz-adv-x="250" 
d="M-89 64c0 36 29 64 64 64c36 0 64 -28 64 -64c0 -35 -28 -64 -64 -64c-35 0 -64 29 -64 64zM-233 0c-10 0 -17 8 -17 17c0 3 0 5 2 8l232 515c3 6 9 10 16 10s13 -4 16 -10l232 -515c2 -3 2 -5 2 -8c0 -9 -7 -17 -17 -17h-50c-7 0 -13 4 -16 10l-193 424l-191 -424
c-3 -6 -9 -10 -16 -10z" />
    <glyph glyph-name="scripts.dshortfermata" unicode="&#xe164;" horiz-adv-x="250" 
d="M89 -64c0 -36 -29 -64 -64 -64c-36 0 -64 28 -64 64c0 35 28 64 64 64c35 0 64 -29 64 -64zM233 0c10 0 17 -8 17 -17c0 -3 0 -5 -2 -8l-232 -515c-3 -6 -9 -10 -16 -10s-13 4 -16 10l-232 515c-2 3 -2 5 -2 8c0 9 7 17 17 17h50c7 0 13 -4 16 -10l193 -424l191 424
c3 6 9 10 16 10z" />
    <glyph glyph-name="scripts.ulongfermata" unicode="&#xe165;" horiz-adv-x="313" 
d="M-64 64c0 36 29 64 64 64s64 -28 64 -64c0 -35 -29 -64 -64 -64s-64 29 -64 64zM-304 375h608c5 0 9 -4 9 -9v-349c0 -9 -8 -17 -18 -17s-17 8 -17 17v260h-556v-260c0 -9 -7 -17 -17 -17s-17 8 -17 17v349c0 5 3 9 8 9z" />
    <glyph glyph-name="scripts.dlongfermata" unicode="&#xe166;" horiz-adv-x="313" 
d="M-64 -64c0 35 29 64 64 64s64 -29 64 -64c0 -36 -29 -64 -64 -64s-64 28 -64 64zM-304 -375c-5 0 -8 4 -8 9v349c0 9 7 17 17 17s17 -8 17 -17v-260h556v260c0 9 7 17 17 17s18 -8 18 -17v-349c0 -5 -4 -9 -9 -9h-608z" />
    <glyph glyph-name="scripts.uverylongfermata" unicode="&#xe167;" horiz-adv-x="376" 
d="M-60 60c0 33 27 60 60 60s60 -27 60 -60s-27 -60 -60 -60s-60 27 -60 60zM-241 225h482c5 0 9 -4 9 -9v-199c0 -9 -8 -17 -17 -17c-10 0 -18 8 -18 17v133h-430v-133c0 -9 -8 -17 -18 -17c-9 0 -17 8 -17 17v199c0 5 4 9 9 9zM-366 400h732c5 0 9 -4 9 -9v-374
c0 -9 -8 -17 -17 -17c-10 0 -18 8 -18 17v258h-680v-258c0 -9 -8 -17 -18 -17c-9 0 -17 8 -17 17v374c0 5 4 9 9 9z" />
    <glyph glyph-name="scripts.dverylongfermata" unicode="&#xe168;" horiz-adv-x="376" 
d="M-60 -60c0 33 27 60 60 60s60 -27 60 -60s-27 -60 -60 -60s-60 27 -60 60zM-241 -225c-5 0 -9 4 -9 9v199c0 9 8 17 17 17c10 0 18 -8 18 -17v-133h430v133c0 9 8 17 18 17c9 0 17 -8 17 -17v-199c0 -5 -4 -9 -9 -9h-482zM-366 -400c-5 0 -9 4 -9 9v374c0 9 8 17 17 17
c10 0 18 -8 18 -17v-258h680v258c0 9 8 17 18 17c9 0 17 -8 17 -17v-374c0 -5 -4 -9 -9 -9h-732z" />
    <glyph glyph-name="scripts.thumb" unicode="&#xe169;" horiz-adv-x="100" 
d="M20 -125l3 -52c1 -13 -10 -23 -23 -23s-24 10 -23 23l3 52v2c-49 12 -80 66 -80 123c0 65 40 125 100 125s100 -60 100 -125c0 -57 -31 -111 -80 -123v-2zM48 0c0 46 -8 96 -48 96s-48 -50 -48 -96s8 -96 48 -96s48 50 48 96z" />
    <glyph glyph-name="scripts.sforzato" unicode="&#xe16a;" horiz-adv-x="225" 
d="M-212 90c-7 2 -13 9 -13 17c0 10 8 18 18 18c1 0 3 0 4 -1l410 -106c12 0 18 -6 18 -18s-6 -18 -18 -18l-410 -106c-1 -1 -3 -1 -4 -1c-10 0 -18 8 -18 18c0 8 6 15 13 17l254 66l140 24l-140 24z" />
    <glyph glyph-name="scripts.espr" unicode="&#xe16b;" horiz-adv-x="476" 
d="M-43 90l-251 -66l-142 -24l142 -24l251 -66c8 -2 13 -9 13 -17c0 -10 -8 -18 -18 -18c-1 0 -3 0 -4 1l-405 106c-12 0 -18 6 -18 18s6 18 18 18l405 106c1 1 3 1 4 1c10 0 18 -8 18 -18c0 -8 -5 -15 -13 -17zM43 90c-8 2 -13 9 -13 17c0 10 8 18 18 18c1 0 3 0 4 -1
l405 -106c12 0 18 -6 18 -18s-6 -18 -18 -18l-405 -106c-1 -1 -3 -1 -4 -1c-10 0 -18 8 -18 18c0 8 5 15 13 17l251 66l142 24l-142 24z" />
    <glyph glyph-name="scripts.staccato" unicode="&#xe16c;" horiz-adv-x="50" 
d="M-50 0c0 28 22 50 50 50s50 -22 50 -50s-22 -50 -50 -50s-50 22 -50 50z" />
    <glyph glyph-name="scripts.ustaccatissimo" unicode="&#xe16d;" horiz-adv-x="48" 
d="M-12 0l-36 200c-1 2 -1 4 -1 7c0 23 23 41 49 41s49 -18 49 -41c0 -3 0 -5 -1 -7l-36 -200c-2 -6 -6 -12 -12 -12s-10 6 -12 12z" />
    <glyph glyph-name="scripts.dstaccatissimo" unicode="&#xe16e;" horiz-adv-x="48" 
d="M-12 0c2 6 6 12 12 12s10 -6 12 -12l36 -200c1 -2 1 -4 1 -7c0 -23 -23 -41 -49 -41s-49 18 -49 41c0 3 0 5 1 7z" />
    <glyph glyph-name="scripts.tenuto" unicode="&#xe16f;" horiz-adv-x="150" 
d="M131 -19h-262c-11 0 -19 9 -19 19s8 19 19 19h262c11 0 19 -9 19 -19s-8 -19 -19 -19z" />
    <glyph glyph-name="scripts.uportato" unicode="&#xe170;" horiz-adv-x="150" 
d="M-38 163c0 21 17 38 38 38s38 -17 38 -38s-17 -38 -38 -38s-38 17 -38 38zM134 -16h-268c-9 0 -16 7 -16 16s7 16 16 16h268c9 0 16 -7 16 -16s-7 -16 -16 -16z" />
    <glyph glyph-name="scripts.dportato" unicode="&#xe171;" horiz-adv-x="150" 
d="M-38 -163c0 21 17 38 38 38s38 -17 38 -38s-17 -38 -38 -38s-38 17 -38 38zM134 16c9 0 16 -7 16 -16s-7 -16 -16 -16h-268c-9 0 -16 7 -16 16s7 16 16 16h268z" />
    <glyph glyph-name="scripts.umarcato" unicode="&#xe172;" horiz-adv-x="125" 
d="M-113 0c-7 0 -12 5 -12 12c0 1 0 3 1 4l113 252c2 4 6 7 11 7s9 -3 11 -7l113 -252c1 -1 1 -3 1 -4c0 -7 -5 -12 -12 -12h-67c-4 0 -9 3 -10 7l-70 153l-69 -153c-2 -4 -6 -7 -10 -7z" />
    <glyph glyph-name="scripts.dmarcato" unicode="&#xe173;" horiz-adv-x="125" 
d="M113 0c7 0 12 -5 12 -12c0 -1 0 -3 -1 -4l-113 -252c-2 -4 -6 -7 -11 -7s-9 3 -11 7l-113 252c-1 1 -1 3 -1 4c0 7 5 12 12 12h67c4 0 9 -3 10 -7l70 -153l69 153c2 4 6 7 10 7z" />
    <glyph glyph-name="scripts.open" unicode="&#xe174;" horiz-adv-x="100" 
d="M100 0c0 -65 -40 -125 -100 -125s-100 60 -100 125s40 125 100 125s100 -60 100 -125zM58 0c0 47 -17 96 -58 96s-58 -49 -58 -96s17 -96 58 -96s58 49 58 96z" />
    <glyph glyph-name="scripts.stopped" unicode="&#xe175;" horiz-adv-x="138" 
d="M0 -138c-13 0 -23 11 -23 24v91h-91c-13 0 -23 10 -23 23s10 23 23 23h91v91c0 13 10 23 23 23s23 -10 23 -23v-91h91c13 0 24 -10 24 -23s-11 -23 -24 -23h-91v-91c0 -13 -10 -24 -23 -24z" />
    <glyph glyph-name="scripts.upbow" unicode="&#xe176;" horiz-adv-x="163" 
d="M131 508c2 7 8 12 15 12c9 0 16 -7 17 -16c0 -2 -1 -3 -1 -5l-146 -483c0 -11 -5 -16 -16 -16s-16 5 -16 16l-146 483v5c0 9 7 16 16 16c7 0 13 -5 15 -12l90 -297l41 -166l41 166z" />
    <glyph glyph-name="scripts.downbow" unicode="&#xe177;" horiz-adv-x="188" 
d="M-179 333h358c5 0 9 -4 9 -9v-310c0 -8 -7 -14 -14 -14c-8 0 -14 6 -14 14v186h-320v-186c0 -8 -6 -14 -14 -14c-7 0 -13 6 -13 14v310c0 5 3 9 8 9z" />
    <glyph glyph-name="scripts.reverseturn" unicode="&#xe178;" horiz-adv-x="274" 
d="M139 132c74 0 134 -58 134 -132c0 -70 -47 -132 -114 -132c-35 0 -67 20 -67 52c0 31 24 52 53 52c19 0 38 -10 47 -31c28 4 52 28 52 59c0 32 -30 56 -63 56c-117 0 -185 -188 -320 -188c-74 0 -134 58 -134 132c0 70 47 132 114 132c35 0 67 -20 67 -52
c0 -31 -24 -52 -53 -52c-19 0 -38 10 -47 31c-28 -4 -52 -28 -52 -59c0 -32 30 -56 63 -56c117 0 185 188 320 188z" />
    <glyph glyph-name="scripts.turn" unicode="&#xe179;" horiz-adv-x="274" 
d="M139 -132c-135 0 -203 188 -320 188c-33 0 -63 -24 -63 -56c0 -31 24 -55 52 -59c9 21 28 31 47 31c29 0 53 -21 53 -52c0 -32 -32 -52 -67 -52c-67 0 -114 62 -114 132c0 74 60 132 134 132c135 0 203 -188 320 -188c33 0 63 24 63 56c0 31 -24 55 -52 59
c-9 -21 -28 -31 -47 -31c-29 0 -53 21 -53 52c0 32 32 52 67 52c67 0 114 -62 114 -132c0 -74 -60 -132 -134 -132z" />
    <glyph glyph-name="scripts.trill" unicode="&#xe17a;" horiz-adv-x="213" 
d="M-322 223c0 31 25 79 95 79c31 0 58 -10 82 -25l47 233c6 -3 13 -5 20 -5c22 0 48 15 68 35l-54 -267l66 36c25 14 51 21 74 21c29 0 52 -11 63 -30c18 21 45 31 70 31c35 0 68 -21 68 -67c0 -44 -27 -89 -65 -89c-25 0 -37 21 -37 47c0 51 39 64 60 64h3
c-8 14 -22 21 -37 21c-25 0 -51 -17 -57 -45l-53 -269c-12 7 -25 11 -39 11s-29 -4 -43 -11l53 269c1 3 1 5 1 7c0 16 -13 27 -30 27c-7 0 -15 -2 -23 -7l-79 -44l-7 -33c27 -31 50 -66 50 -108c0 -58 -46 -114 -98 -114c-40 0 -56 43 -56 90c0 13 2 28 4 41l16 77
c-48 -20 -82 -25 -103 -25c-50 0 -59 30 -59 50zM-299 227c0 -12 5 -31 41 -31c30 0 70 13 103 28l5 26c-23 17 -51 29 -82 29c-52 0 -67 -31 -67 -52zM-85 39c23 0 35 34 35 61c0 30 -14 56 -32 79l-6 -28c-4 -18 -12 -55 -12 -82c0 -17 4 -30 15 -30z" />
    <glyph glyph-name="scripts.upedalheel" unicode="&#xe17b;" horiz-adv-x="125" 
d="M0 -90c50 0 90 40 90 90v149c0 10 8 18 18 18c9 0 17 -8 17 -18v-149c0 -69 -56 -125 -125 -125s-125 56 -125 125v149c0 10 8 18 17 18c10 0 18 -8 18 -18v-149c0 -50 40 -90 90 -90z" />
    <glyph glyph-name="scripts.dpedalheel" unicode="&#xe17c;" horiz-adv-x="125" 
d="M0 90c-50 0 -90 -40 -90 -90v-149c0 -10 -8 -18 -18 -18c-9 0 -17 8 -17 18v149c0 69 56 125 125 125s125 -56 125 -125v-149c0 -10 -8 -18 -17 -18c-10 0 -18 8 -18 18v149c0 50 -40 90 -90 90z" />
    <glyph glyph-name="scripts.upedaltoe" unicode="&#xe17d;" horiz-adv-x="125" 
d="M91 363c2 7 9 12 17 12c9 0 17 -8 17 -18c0 -1 0 -3 -1 -5l-107 -335c0 -12 -5 -17 -17 -17s-17 5 -17 17l-107 335c-1 2 -1 4 -1 5c0 10 8 18 17 18c8 0 15 -5 17 -12l66 -210l25 -104l25 104z" />
    <glyph glyph-name="scripts.dpedaltoe" unicode="&#xe17e;" horiz-adv-x="125" 
d="M91 -363l-66 210l-25 104l-25 -104l-66 -210c-2 -7 -9 -12 -17 -12c-9 0 -17 8 -17 18c0 1 0 3 1 5l107 335c0 12 5 17 17 17s17 -5 17 -17l107 -335c1 -2 1 -4 1 -5c0 -10 -8 -18 -17 -18c-8 0 -15 5 -17 12z" />
    <glyph glyph-name="scripts.flageolet" unicode="&#xe17f;" horiz-adv-x="133" 
d="M0 133c74 0 133 -59 133 -133s-59 -133 -133 -133s-133 59 -133 133s59 133 133 133zM0 116c-64 0 -116 -52 -116 -116s52 -116 116 -116s116 52 116 116s-52 116 -116 116z" />
    <glyph glyph-name="scripts.segno" unicode="&#xe180;" horiz-adv-x="250" 
d="M-203 -46c0 16 13 29 29 29s29 -13 29 -29c0 -17 -13 -30 -29 -30s-29 13 -29 30zM145 46c0 17 13 30 29 30s29 -13 29 -30c0 -16 -13 -29 -29 -29s-29 13 -29 29zM-34 -227c0 27 10 58 53 58c39 0 56 -30 56 -61c0 -27 -13 -54 -39 -63c9 -30 36 -53 70 -53
c39 0 68 36 68 77c0 100 -84 168 -174 219l-191 -325h-59l205 349c-104 58 -205 132 -205 245c0 85 63 156 144 156c79 0 140 -68 140 -148c0 -27 -10 -58 -53 -58c-39 0 -56 30 -56 61c0 27 13 54 39 63c-9 30 -36 53 -70 53c-39 0 -68 -36 -68 -77
c0 -100 84 -168 174 -219l191 325h59l-205 -349c104 -58 205 -132 205 -245c0 -85 -63 -156 -144 -156c-79 0 -140 68 -140 148z" />
    <glyph glyph-name="scripts.coda" unicode="&#xe181;" horiz-adv-x="255" 
d="M14 -337c0 -8 -6 -14 -14 -14s-14 6 -14 14v88c-98 9 -149 120 -152 235h-88c-8 0 -14 6 -14 14s6 14 14 14h88c3 115 54 226 152 235v88c0 8 6 14 14 14s14 -6 14 -14v-88c98 -9 149 -120 152 -235h88c8 0 14 -6 14 -14s-6 -14 -14 -14h-88c-3 -115 -54 -226 -152 -235
v-88zM14 14h79c0 94 -7 196 -79 207v-207zM14 -14v-207c72 11 79 113 79 207h-79zM-14 14v207c-72 -11 -79 -113 -79 -207h79zM-14 -14h-79c0 -94 7 -196 79 -207v207z" />
    <glyph glyph-name="scripts.varcoda" unicode="&#xe182;" horiz-adv-x="253" 
d="M14 -336c0 -7 -6 -14 -14 -14s-14 7 -14 14v86h-144c-5 0 -9 4 -9 9v227h-85c-8 0 -14 6 -14 14s6 14 14 14h85v227c0 5 4 9 9 9h144v86c0 7 6 14 14 14s14 -7 14 -14v-86h144c5 0 9 -4 9 -9v-227h85c8 0 14 -6 14 -14s-6 -14 -14 -14h-85v-227c0 -5 -4 -9 -9 -9h-68h-76
v-86zM14 14h67v208h-67v-208zM14 -14v-208h67v208h-67zM-14 14v208h-67v-208h67zM-14 -14h-67v-208h67v208z" />
    <glyph glyph-name="scripts.rcomma" unicode="&#xe183;" horiz-adv-x="125" 
d="M50 12c0 69 -33 85 -33 109c0 20 15 35 34 35c33 0 55 -54 55 -100c0 -67 -39 -140 -83 -203c-3 -3 -7 -6 -12 -6c-7 0 -14 6 -14 14c0 11 53 68 53 151z" />
    <glyph glyph-name="scripts.lcomma" unicode="&#xe184;" horiz-adv-x="0" 
d="M-50 -12c0 -69 33 -85 33 -109c0 -20 -15 -35 -34 -35c-33 0 -55 54 -55 100c0 67 39 140 83 203c3 3 7 6 12 6c7 0 14 -6 14 -14c0 -11 -53 -68 -53 -151z" />
    <glyph glyph-name="scripts.rvarcomma" unicode="&#xe185;" horiz-adv-x="62" 
d="M-63 -164c-8 0 -13 7 -13 14c0 2 0 4 1 5l105 308c5 14 18 22 32 22c21 0 36 -17 36 -35c0 -4 -1 -9 -3 -13l-145 -292c-2 -6 -7 -9 -13 -9z" />
    <glyph glyph-name="scripts.lvarcomma" unicode="&#xe186;" horiz-adv-x="62" 
d="M63 164c8 0 13 -7 13 -14c0 -2 0 -4 -1 -5l-105 -308c-5 -14 -18 -22 -32 -22c-21 0 -36 17 -36 35c0 4 1 9 3 13l145 292c2 6 7 9 13 9z" />
    <glyph glyph-name="scripts.arpeggio" unicode="&#xe187;" 
d="M-1 75c0 42 91 65 91 131c0 17 -5 34 -17 48l-31 25c-4 3 -6 7 -6 11c0 8 8 16 16 16c3 0 7 -1 10 -4l128 -107c8 -6 11 -13 11 -20c0 -42 -91 -65 -91 -131c0 -17 5 -34 17 -48l31 -25c4 -3 5 -7 5 -11c0 -8 -7 -16 -15 -16c-3 0 -7 2 -10 4l-128 107
c-8 6 -11 13 -11 20z" />
    <glyph glyph-name="scripts.trill_element" unicode="&#xe188;" horiz-adv-x="250" 
d="M175 -1c-42 0 -65 91 -131 91c-17 0 -34 -5 -48 -17l-25 -31c-3 -4 -7 -6 -11 -6c-8 0 -16 8 -16 16c0 3 1 7 4 10l107 128c6 8 13 11 20 11c42 0 65 -91 131 -91c17 0 34 5 48 17l25 31c3 4 7 5 11 5c8 0 16 -7 16 -15c0 -3 -2 -7 -4 -10l-107 -128
c-6 -8 -13 -11 -20 -11z" />
    <glyph glyph-name="scripts.arpeggio.arrow.M1" unicode="&#xe189;" 
d="M42 279c-4 3 -6 8 -6 12c0 8 7 16 16 16c3 0 7 -2 10 -5l86 -92c11 -12 17 -27 20 -43l79 38c12 6 13 -2 13 -5c0 -19 -121 -105 -154 -197c-1 -1 -2 -3 -7 -3c-2 0 -3 0 -4 2c-34 92 -155 179 -155 198c0 7 6 9 12 6l94 -45c17 22 43 44 43 66c0 9 -5 18 -16 27z" />
    <glyph glyph-name="scripts.arpeggio.arrow.1" unicode="&#xe18a;" 
d="M158 -29c4 -3 6 -8 6 -12c0 -8 -7 -16 -16 -16c-3 0 -7 2 -10 5l-86 92c-11 12 -17 27 -20 43l-79 -38c-11 -6 -13 2 -13 5c0 19 121 105 154 197c1 1 2 3 7 3c2 0 3 0 4 -2c34 -92 155 -179 155 -198c0 -7 -6 -9 -12 -6l-94 45c-17 -22 -43 -44 -43 -66
c0 -9 5 -18 16 -27z" />
    <glyph glyph-name="scripts.trilelement" unicode="&#xe18b;" horiz-adv-x="104" 
d="M-80 1l-8 -12l-32 22l70 105c4 6 10 9 16 9s11 -3 15 -7l99 -119l8 12l32 -22l-70 -105c-4 -6 -10 -9 -16 -9s-11 3 -15 7z" />
    <glyph glyph-name="scripts.prall" unicode="&#xe18c;" horiz-adv-x="209" 
d="M215 45c4 6 10 9 16 9c11 0 20 -9 20 -19c0 -4 -1 -8 -3 -11l-94 -140c-3 -6 -10 -9 -16 -9s-11 3 -15 7l-99 119l-78 -117c-4 -6 -10 -9 -16 -9s-12 3 -15 7l-99 119l-31 -46c-4 -6 -10 -9 -16 -9c-11 0 -20 9 -20 19c0 4 1 8 3 11l94 140c3 6 10 9 16 9s11 -3 15 -7
l99 -119l78 117c4 6 10 9 16 9s12 -3 15 -7l99 -119z" />
    <glyph glyph-name="scripts.mordent" unicode="&#xe18d;" horiz-adv-x="209" 
d="M19 -147c0 -11 -8 -20 -19 -20s-19 9 -19 20v83l-35 -52c-4 -6 -10 -9 -16 -9s-12 3 -15 7l-99 119l-31 -46c-4 -6 -10 -9 -16 -9c-11 0 -20 9 -20 19c0 4 1 8 3 11l94 140c3 6 10 9 16 9s11 -3 15 -7l99 -119l5 7v141c0 11 8 20 19 20s19 -9 19 -20v-83l35 52
c4 6 10 9 16 9s12 -3 15 -7l99 -119l31 46c4 6 10 9 16 9c11 0 20 -9 20 -19c0 -4 -1 -8 -3 -11l-94 -140c-3 -6 -10 -9 -16 -9s-11 3 -15 7l-99 119l-5 -7v-141z" />
    <glyph glyph-name="scripts.prallprall" unicode="&#xe18e;" horiz-adv-x="313" 
d="M319 45c4 6 10 9 17 9c10 0 19 -9 19 -19c0 -4 -1 -8 -3 -11l-94 -140c-3 -6 -9 -9 -16 -9c-6 0 -11 3 -15 7l-99 119l-78 -117c-4 -6 -10 -9 -16 -9s-11 3 -15 7l-99 119l-78 -117c-4 -6 -10 -9 -17 -9c-5 0 -11 3 -15 7l-98 119l-31 -46c-4 -6 -10 -9 -17 -9
c-10 0 -19 9 -19 19c0 4 1 8 3 11l94 140c3 6 9 9 16 9c6 0 11 -3 15 -7l99 -119l78 117c4 6 10 9 16 9s11 -3 15 -7l99 -119l78 117c4 6 10 9 17 9c5 0 11 -3 15 -7l98 -119z" />
    <glyph glyph-name="scripts.prallmordent" unicode="&#xe18f;" horiz-adv-x="313" 
d="M124 -147c0 -11 -9 -20 -20 -20s-19 9 -19 20v83l-35 -52c-4 -6 -10 -9 -16 -9s-11 3 -15 7l-99 119l-78 -117c-4 -6 -10 -9 -17 -9c-5 0 -11 3 -15 7l-98 119l-31 -46c-4 -6 -10 -9 -17 -9c-10 0 -19 9 -19 19c0 4 1 8 3 11l94 140c3 6 9 9 16 9c6 0 11 -3 15 -7
l99 -119l78 117c4 6 10 9 16 9s11 -3 15 -7l99 -119l5 7v141c0 11 8 20 19 20s20 -9 20 -20v-83l34 52c4 6 10 9 17 9c5 0 11 -3 15 -7l98 -119l31 46c4 6 10 9 17 9c10 0 19 -9 19 -19c0 -4 -1 -8 -3 -11l-94 -140c-3 -6 -9 -9 -16 -9c-6 0 -11 3 -15 7l-99 119l-4 -7v-141
z" />
    <glyph glyph-name="scripts.upprall" unicode="&#xe190;" horiz-adv-x="313" 
d="M-336 -304c-24 0 -57 81 -57 144c0 48 14 95 41 136l94 140c3 6 9 9 16 9c6 0 11 -3 15 -7l99 -119l78 117c4 6 10 9 16 9s11 -3 15 -7l99 -119l78 117c4 6 10 9 17 9c5 0 11 -3 15 -7l98 -119l31 46c4 6 10 9 17 9c10 0 19 -9 19 -19c0 -4 -1 -8 -3 -11l-94 -140
c-3 -6 -9 -9 -16 -9c-6 0 -11 3 -15 7l-99 119l-78 -117c-4 -6 -10 -9 -16 -9s-11 3 -15 7l-99 119l-78 -117c-4 -6 -10 -9 -17 -9c-5 0 -11 3 -15 7l-98 119l-31 -46c-23 -35 -35 -75 -35 -115c0 -76 38 -111 38 -125c0 -10 -9 -19 -20 -19z" />
    <glyph glyph-name="scripts.upmordent" unicode="&#xe191;" horiz-adv-x="313" 
d="M-336 -304c-24 0 -57 81 -57 144c0 48 14 95 41 136l94 140c3 6 9 9 16 9c6 0 11 -3 15 -7l99 -119l78 117c4 6 10 9 16 9s11 -3 15 -7l99 -119l5 7v141c0 11 8 20 19 20s20 -9 20 -20v-83l34 52c4 6 10 9 17 9c5 0 11 -3 15 -7l98 -119l31 46c4 6 10 9 17 9
c10 0 19 -9 19 -19c0 -4 -1 -8 -3 -11l-94 -140c-3 -6 -9 -9 -16 -9c-6 0 -11 3 -15 7l-99 119l-4 -7v-141c0 -11 -9 -20 -20 -20s-19 9 -19 20v83l-35 -52c-4 -6 -10 -9 -16 -9s-11 3 -15 7l-99 119l-78 -117c-4 -6 -10 -9 -17 -9c-5 0 -11 3 -15 7l-98 119l-31 -46
c-23 -35 -35 -75 -35 -115c0 -76 38 -111 38 -125c0 -10 -9 -19 -20 -19z" />
    <glyph glyph-name="scripts.pralldown" unicode="&#xe192;" horiz-adv-x="313" 
d="M336 -304c-11 0 -20 9 -20 19c0 14 38 49 38 125c0 40 -12 80 -35 115l-31 46l-98 -119c-4 -4 -10 -7 -15 -7c-7 0 -13 3 -17 9l-78 117l-99 -119c-4 -4 -9 -7 -15 -7s-12 3 -16 9l-78 117l-99 -119c-4 -4 -9 -7 -15 -7c-7 0 -13 3 -16 9l-94 140c-2 3 -3 7 -3 11
c0 10 9 19 19 19c7 0 13 -3 17 -9l31 -46l98 119c4 4 10 7 15 7c7 0 13 -3 17 -9l78 -117l99 119c4 4 9 7 15 7s12 -3 16 -9l78 -117l99 119c4 4 9 7 15 7c7 0 13 -3 16 -9l94 -140c27 -41 41 -88 41 -136c0 -63 -33 -144 -57 -144z" />
    <glyph glyph-name="scripts.downprall" unicode="&#xe193;" horiz-adv-x="313" 
d="M-393 90c0 68 34 145 57 145c15 0 26 -17 17 -30c-23 -35 -35 -75 -35 -115c0 -30 7 -60 20 -88l76 114c3 6 9 9 16 9c6 0 11 -3 15 -7l99 -119l78 117c4 6 10 9 16 9s11 -3 15 -7l99 -119l78 117c4 6 10 9 17 9c5 0 11 -3 15 -7l98 -119l31 46c4 6 10 9 17 9
c10 0 19 -9 19 -19c0 -4 -1 -8 -3 -11l-94 -140c-3 -6 -9 -9 -16 -9c-6 0 -11 3 -15 7l-99 119l-78 -117c-4 -6 -10 -9 -16 -9s-11 3 -15 7l-99 119l-78 -117c-4 -6 -10 -9 -17 -9c-5 0 -11 3 -15 7l-98 119l-31 -46c-4 -6 -10 -9 -17 -9c-26 0 -57 85 -57 144z" />
    <glyph glyph-name="scripts.downmordent" unicode="&#xe194;" horiz-adv-x="313" 
d="M-393 90c0 68 34 145 57 145c15 0 26 -17 17 -30c-23 -35 -35 -75 -35 -115c0 -30 7 -60 20 -88l76 114c3 6 9 9 16 9c6 0 11 -3 15 -7l99 -119l78 117c4 6 10 9 16 9s11 -3 15 -7l99 -119l5 7v141c0 11 8 20 19 20s20 -9 20 -20v-83l34 52c4 6 10 9 17 9
c5 0 11 -3 15 -7l98 -119l31 46c4 6 10 9 17 9c10 0 19 -9 19 -19c0 -4 -1 -8 -3 -11l-94 -140c-3 -6 -9 -9 -16 -9c-6 0 -11 3 -15 7l-99 119l-4 -7v-141c0 -11 -9 -20 -20 -20s-19 9 -19 20v83l-35 -52c-4 -6 -10 -9 -16 -9s-11 3 -15 7l-99 119l-78 -117
c-4 -6 -10 -9 -17 -9c-5 0 -11 3 -15 7l-98 119l-31 -46c-4 -6 -10 -9 -17 -9c-26 0 -57 85 -57 144z" />
    <glyph glyph-name="scripts.prallup" unicode="&#xe195;" horiz-adv-x="313" 
d="M393 90c0 -59 -31 -144 -57 -144c-7 0 -13 3 -17 9l-31 46l-98 -119c-4 -4 -10 -7 -15 -7c-7 0 -13 3 -17 9l-78 117l-99 -119c-4 -4 -9 -7 -15 -7s-12 3 -16 9l-78 117l-99 -119c-4 -4 -9 -7 -15 -7c-7 0 -13 3 -16 9l-94 140c-2 3 -3 7 -3 11c0 10 9 19 19 19
c7 0 13 -3 17 -9l31 -46l98 119c4 4 10 7 15 7c7 0 13 -3 17 -9l78 -117l99 119c4 4 9 7 15 7s12 -3 16 -9l78 -117l99 119c4 4 9 7 15 7c7 0 13 -3 16 -9l76 -114c13 28 20 58 20 88c0 40 -12 80 -35 115c-9 13 2 30 17 30c23 0 57 -77 57 -145z" />
    <glyph glyph-name="scripts.lineprall" unicode="&#xe196;" horiz-adv-x="313" 
d="M319 45c4 6 10 9 17 9c10 0 19 -9 19 -19c0 -4 -1 -8 -3 -11l-94 -140c-3 -6 -9 -9 -16 -9c-6 0 -11 3 -15 7l-99 119l-78 -117c-4 -6 -10 -9 -16 -9s-11 3 -15 7l-99 119l-78 -117c-4 -6 -10 -9 -17 -9c-5 0 -11 3 -15 7l-98 119l-31 -46c-4 -6 -10 -9 -17 -9
c-10 0 -19 9 -19 19v500c0 11 9 20 19 20c11 0 20 -9 20 -20v-435l58 86c3 6 9 9 16 9c6 0 11 -3 15 -7l99 -119l78 117c4 6 10 9 16 9s11 -3 15 -7l99 -119l78 117c4 6 10 9 17 9c5 0 11 -3 15 -7l98 -119z" />
    <glyph glyph-name="scripts.caesura.curved" unicode="&#xe197;" horiz-adv-x="501" 
d="M283 312c17 0 29 -14 29 -29c0 -95 -44 -281 -129 -473c-3 -6 -9 -10 -16 -10c-13 0 -20 14 -16 24c65 145 92 303 103 461c1 15 14 27 29 27zM17 -200c-10 0 -17 9 -17 17c0 20 82 142 104 468c1 15 14 27 29 27c17 0 29 -14 29 -29c0 -95 -44 -281 -129 -473
c-3 -6 -9 -10 -16 -10z" />
    <glyph glyph-name="scripts.caesura.straight" unicode="&#xe198;" horiz-adv-x="501" 
d="M148 -184l234 468c5 10 15 16 26 16h31c6 0 11 -5 11 -11c0 -2 0 -3 -1 -5l-234 -468c-5 -10 -15 -16 -26 -16h-31c-8 0 -14 9 -10 16zM8 -184l234 468c5 10 15 16 26 16h31c6 0 11 -5 11 -11c0 -2 0 -3 -1 -5l-234 -468c-5 -10 -15 -16 -26 -16h-31c-7 0 -11 5 -11 11
c0 2 0 3 1 5z" />
    <glyph glyph-name="flags.u3" unicode="&#xe199;" horiz-adv-x="224" 
d="M-15 -250v250h15c0 -198 209 -336 209 -534c0 -71 -16 -141 -42 -207c-4 -8 -11 -11 -19 -11c-12 0 -24 10 -21 26c26 61 41 126 41 192c0 105 -95 209 -168 284h-15z" />
    <glyph glyph-name="flags.u4" unicode="&#xe19a;" horiz-adv-x="224" 
d="M0 0c0 -178 202 -293 202 -471c0 -33 -8 -65 -23 -95c18 -36 30 -75 30 -117c0 -63 -16 -125 -42 -183c-4 -8 -11 -11 -19 -11c-12 0 -24 10 -21 26c26 52 41 109 41 168c0 98 -95 192 -168 258v-75h-15v500h15zM154 -520c5 16 8 33 8 49c0 97 -92 191 -162 259
c0 -119 92 -209 154 -308z" />
    <glyph glyph-name="flags.u5" unicode="&#xe19b;" horiz-adv-x="209" 
d="M0 -213v-4c0 -114 87 -199 147 -292c3 11 5 23 5 35c0 95 -87 192 -152 261zM0 0c0 -177 192 -297 192 -474c0 -29 -7 -56 -18 -82c17 -35 29 -73 29 -113c0 -36 -9 -71 -24 -104c18 -35 30 -73 30 -114c0 -61 -16 -120 -42 -175c-4 -8 -11 -11 -19 -11
c-12 0 -24 10 -21 25c26 50 41 105 41 161c0 94 -95 179 -168 240v-103h-15v750h15zM0 -430v-5c0 -115 90 -199 152 -292c7 18 10 38 10 58c0 92 -92 178 -162 239z" />
    <glyph glyph-name="flags.u6" unicode="&#xe19c;" horiz-adv-x="209" 
d="M0 -212v-13c0 -114 87 -201 147 -296c3 13 5 26 5 39c0 97 -86 197 -152 270zM0 0c0 -179 192 -303 192 -482c0 -30 -7 -60 -18 -87c17 -36 28 -74 28 -115c0 -39 -10 -76 -28 -111c17 -35 28 -73 28 -114c0 -33 -13 -64 -34 -89c24 -42 41 -86 41 -136
c0 -62 -16 -122 -42 -178c-4 -8 -11 -11 -19 -11c-12 0 -24 10 -21 25c26 51 41 107 41 164c0 95 -95 184 -168 247v-113h-15v1000h15zM0 -437v-13c0 -116 89 -203 149 -300c8 21 13 43 13 66c0 94 -92 183 -162 247zM0 -662v-13c0 -112 84 -196 146 -287c10 15 16 34 16 53
c0 94 -92 183 -162 247z" />
    <glyph glyph-name="flags.d3" unicode="&#xe19d;" horiz-adv-x="269" 
d="M197 723c29 0 72 -122 72 -210c0 -205 -269 -308 -269 -513h-15v250h15c99 60 229 150 229 263c0 65 -21 129 -54 185c-3 15 9 25 22 25z" />
    <glyph glyph-name="flags.ugrace" unicode="&#xe19e;" horiz-adv-x="209" 
d="M-165 -522l360 290c3 3 8 5 13 5c13 0 23 -11 23 -23c0 -7 -3 -13 -8 -18l-359 -290c-4 -3 -9 -5 -14 -5c-13 1 -23 11 -23 23c0 7 3 13 8 18z" />
    <glyph glyph-name="flags.dgrace" unicode="&#xe19f;" horiz-adv-x="269" 
d="M-205 493c-7 4 -11 12 -11 20c0 12 10 23 23 23c4 0 7 -1 11 -3l462 -266c7 -4 12 -11 12 -19c-1 -13 -11 -23 -23 -23c-4 0 -8 1 -11 3z" />
    <glyph glyph-name="flags.d4" unicode="&#xe1a0;" horiz-adv-x="269" 
d="M0 200c93 53 215 135 215 239c0 24 -5 49 -14 72c-80 -90 -201 -162 -201 -286v-25zM269 664c0 -45 -15 -82 -39 -116c16 -34 26 -71 26 -109c0 -182 -256 -257 -256 -439h-15v500h15v-75c99 51 229 131 229 239c0 21 -6 42 -14 62c-3 16 10 26 22 26c31 0 32 -81 32 -88
z" />
    <glyph glyph-name="flags.d5" unicode="&#xe1a1;" horiz-adv-x="269" 
d="M0 210c89 57 207 143 207 247c0 19 -4 37 -11 53c-77 -90 -196 -162 -196 -285v-15zM269 886c0 -44 -15 -81 -38 -115c19 -34 30 -72 30 -110c0 -44 -15 -80 -37 -114c15 -28 24 -58 24 -90c0 -184 -248 -272 -248 -457h-15v750h15v-90c99 46 229 121 229 226
c0 21 -6 42 -14 62c-3 15 10 25 22 25c31 0 32 -80 32 -87zM0 435c95 47 220 123 220 226c0 26 -6 51 -17 74c-80 -89 -203 -160 -203 -285v-15z" />
    <glyph glyph-name="flags.d6" unicode="&#xe1a2;" horiz-adv-x="269" 
d="M269 1026c0 -28 -7 -51 -20 -72c8 -27 12 -55 12 -83c0 -30 -7 -56 -19 -81c7 -33 11 -68 11 -102c0 -37 -10 -70 -26 -101c2 -32 3 -64 3 -97c0 -188 -230 -297 -230 -486v-4h-15v1000h15v-125c99 15 229 60 229 151c0 27 -6 44 -6 51c0 13 11 21 22 21
c14 0 24 -6 24 -72zM0 204c82 74 190 177 190 286c0 13 0 26 -1 38c-75 -96 -189 -177 -189 -303v-21zM0 425c92 62 213 154 213 263c0 17 -2 35 -4 52c-77 -94 -209 -163 -209 -290v-25zM0 650c95 45 220 119 220 221c0 14 -1 28 -4 42c-78 -76 -216 -120 -216 -238v-25z
" />
    <glyph glyph-name="clefs.C" unicode="&#xe1a3;" horiz-adv-x="680" 
d="M315 0c0 -37 8 -74 45 -74c30 0 57 31 88 31c123 0 230 -88 230 -207c0 -170 -93 -250 -267 -250c-82 0 -153 62 -153 143c0 42 34 76 77 76c42 0 76 -34 76 -76c0 -40 -50 -37 -50 -77c0 -24 24 -39 50 -39c117 0 140 90 140 223c0 106 -11 180 -103 180
c-73 0 -120 -73 -120 -151c0 -9 -7 -14 -13 -14c-7 0 -14 5 -14 14c0 76 -30 149 -83 203v-473c0 -5 -4 -9 -9 -9h-22c-5 0 -9 4 -9 9v982c0 5 4 9 9 9h22c5 0 9 -4 9 -9v-473c53 54 83 127 83 203c0 9 7 14 14 14c6 0 13 -5 13 -14c0 -78 47 -151 120 -151
c92 0 103 74 103 180c0 133 -23 223 -140 223c-26 0 -50 -15 -50 -39c0 -40 50 -37 50 -77c0 -42 -34 -76 -76 -76c-43 0 -77 34 -77 76c0 81 71 143 153 143c174 0 267 -80 267 -250c0 -119 -107 -207 -230 -207c-31 0 -58 31 -88 31c-37 0 -45 -37 -45 -74zM129 -500h-120
c-5 0 -9 4 -9 9v982c0 5 4 9 9 9h120c5 0 9 -4 9 -9v-982c0 -5 -4 -9 -9 -9z" />
    <glyph glyph-name="clefs.C_change" unicode="&#xe1a4;" horiz-adv-x="549" 
d="M261 0c0 -28 5 -58 35 -58c23 0 44 27 69 27c98 0 182 -73 182 -169c0 -134 -71 -200 -207 -200c-66 0 -122 49 -122 113c0 34 27 61 61 61c33 0 61 -27 61 -61c0 -31 -38 -30 -38 -61c0 -17 18 -28 38 -28c91 0 109 71 109 176c0 85 -10 145 -84 145
c-56 0 -92 -56 -92 -117c0 -8 -6 -12 -12 -12s-12 4 -12 12c0 59 -24 116 -66 157v-376c0 -5 -4 -9 -9 -9h-18c-5 0 -9 4 -9 9v782c0 5 4 9 9 9h18c5 0 9 -4 9 -9v-376c42 41 66 98 66 157c0 8 6 12 12 12s12 -4 12 -12c0 -61 36 -117 92 -117c74 0 84 60 84 145
c0 105 -18 176 -109 176c-20 0 -38 -11 -38 -28c0 -31 38 -30 38 -61c0 -34 -28 -61 -61 -61c-34 0 -61 27 -61 61c0 64 56 113 122 113c136 0 207 -66 207 -200c0 -96 -84 -169 -182 -169c-25 0 -46 27 -69 27c-29 0 -35 -29 -35 -58zM103 -400h-94c-5 0 -9 4 -9 9v782
c0 5 4 9 9 9h94c5 0 9 -4 9 -9v-782c0 -5 -4 -9 -9 -9z" />
    <glyph glyph-name="clefs.F" unicode="&#xe1a5;" horiz-adv-x="673" 
d="M557 -125c0 28 23 52 51 52c29 0 52 -24 52 -52s-23 -52 -52 -52c-28 0 -51 24 -51 52zM557 125c0 28 23 52 51 52c29 0 52 -24 52 -52s-23 -52 -52 -52c-28 0 -51 24 -51 52zM232 262c172 0 293 -87 293 -250c0 -263 -264 -414 -517 -520c-2 -3 -5 -4 -8 -4
c-6 0 -12 6 -12 12c0 3 1 6 4 8c202 118 413 265 413 494c0 120 -64 236 -173 236c-76 0 -133 -55 -159 -129c12 6 26 10 39 10c56 0 100 -45 100 -100c0 -58 -43 -106 -100 -106c-59 0 -112 47 -112 106c0 132 102 243 232 243z" />
    <glyph glyph-name="clefs.F_change" unicode="&#xe1a6;" horiz-adv-x="538" 
d="M445 -100c0 23 19 41 42 41c22 0 41 -18 41 -41s-19 -41 -41 -41c-23 0 -42 18 -42 41zM445 100c0 23 19 41 42 41c22 0 41 -18 41 -41s-19 -41 -41 -41c-23 0 -42 18 -42 41zM180 212c140 0 240 -68 240 -199c0 -212 -210 -334 -412 -421c-2 -3 -5 -4 -8 -4
c-6 0 -12 6 -12 12c0 3 1 6 4 8c151 98 308 217 308 394c0 93 -38 186 -120 186c-54 0 -91 -39 -110 -92c7 2 13 3 20 3c44 0 80 -36 80 -80c0 -46 -35 -85 -80 -85c-48 0 -90 38 -90 85c0 104 78 193 180 193z" />
    <glyph glyph-name="clefs.G" unicode="&#xe1a7;" horiz-adv-x="643" 
d="M637 -3c0 -122 -82 -212 -172 -242c1 -20 1 -40 1 -61c0 -38 -1 -77 -5 -116c-10 -122 -88 -233 -203 -233s-213 87 -213 200c0 58 53 104 113 104c54 0 95 -48 95 -104c0 -53 -43 -95 -95 -95c-11 0 -22 2 -32 7c28 -43 77 -70 132 -70c94 0 154 94 162 196
c4 37 5 75 5 112c0 17 0 33 -1 50c-24 -5 -49 -7 -74 -7c-194 0 -350 160 -350 354c0 185 126 325 240 470c-36 115 -65 220 -65 366c0 196 136 321 151 321c28 0 162 -205 162 -374c0 -152 -85 -274 -179 -393c24 -73 47 -146 67 -220c159 -1 261 -131 261 -265zM463 -204
c58 22 111 82 111 165c0 90 -66 179 -170 193c27 -110 51 -236 59 -358zM302 -129c-16 0 -138 57 -138 189c0 91 61 180 170 198c-17 62 -36 124 -56 185c-104 -131 -207 -262 -207 -429c0 -129 142 -234 279 -234c24 0 49 1 72 5c-7 127 -32 257 -60 371
c-87 -6 -135 -62 -135 -123c0 -46 28 -95 89 -126c5 -4 7 -10 7 -15c0 -11 -9 -21 -21 -21zM378 1106c-96 -62 -154 -169 -154 -284c0 -44 13 -113 47 -220c80 106 147 217 147 351c0 67 -7 95 -40 153z" />
    <glyph glyph-name="clefs.G_change" unicode="&#xe1a8;" horiz-adv-x="514" 
d="M512 -2c0 -97 -64 -169 -135 -195c0 -11 1 -23 1 -35c0 -35 -2 -71 -5 -106c-9 -100 -74 -190 -169 -190c-93 0 -172 71 -172 163c0 46 43 83 90 83c43 0 76 -39 76 -83c0 -42 -34 -76 -76 -76c-4 0 -7 0 -11 1c22 -28 55 -47 93 -47c74 0 121 74 128 154
c3 33 5 66 5 100c0 9 -1 17 -1 26c-18 -3 -37 -5 -56 -5c-156 0 -280 129 -280 286c0 145 96 258 185 373c-44 112 -65 179 -65 298c0 159 117 254 131 254c27 0 137 -165 137 -299c0 -119 -65 -216 -137 -311c22 -59 41 -118 59 -178c123 -5 202 -107 202 -213zM375 -154
c42 18 79 64 79 125c0 66 -46 132 -120 148c16 -67 35 -164 41 -273zM241 -107c-16 0 -113 48 -113 155c0 74 51 147 140 161c-14 48 -29 95 -46 142c-81 -105 -162 -211 -162 -344c0 -99 113 -177 220 -177c18 0 37 1 55 4c-5 98 -23 200 -44 288c-68 -4 -106 -48 -106 -95
c0 -36 22 -74 70 -98c5 -4 7 -10 7 -15c0 -11 -9 -21 -21 -21zM295 878c-80 -46 -129 -131 -129 -223c0 -33 18 -87 49 -168c62 85 114 173 114 280c0 49 -7 70 -34 111z" />
    <glyph glyph-name="clefs.percussion" unicode="&#xe1a9;" horiz-adv-x="501" 
d="M491 -250h-95c-5 0 -9 4 -9 9v482c0 5 4 9 9 9h95c5 0 9 -4 9 -9v-482c0 -5 -4 -9 -9 -9zM271 -250h-95c-5 0 -9 4 -9 9v482c0 5 4 9 9 9h95c5 0 9 -4 9 -9v-482c0 -5 -4 -9 -9 -9z" />
    <glyph glyph-name="clefs.percussion_change" unicode="&#xe1aa;" horiz-adv-x="401" 
d="M391 -200h-72c-5 0 -9 4 -9 9v382c0 5 4 9 9 9h72c5 0 9 -4 9 -9v-382c0 -5 -4 -9 -9 -9zM215 -200h-72c-5 0 -9 4 -9 9v382c0 5 4 9 9 9h72c5 0 9 -4 9 -9v-382c0 -5 -4 -9 -9 -9z" />
    <glyph glyph-name="clefs.tab" unicode="&#xe1ab;" horiz-adv-x="702" 
d="M267 -425c0 -10 -1 -27 -43 -27s-84 29 -84 75c0 82 118 130 234 130c100 0 215 -21 215 -103c0 -44 -27 -84 -69 -110c58 -11 102 -36 102 -91c0 -81 -86 -158 -179 -158c-71 0 -111 49 -111 60c0 12 16 25 28 25c14 0 16 -25 54 -25c44 0 95 39 95 93
c0 46 -49 64 -101 64c-5 0 -8 7 -8 15c0 11 5 25 18 25c37 0 69 38 69 76c0 20 -7 62 -80 76c-10 -63 -30 -173 -40 -220c-19 -102 -84 -202 -159 -202c-42 0 -66 33 -96 53c-3 2 -4 5 -4 9c0 11 12 26 24 26c16 0 35 -37 72 -37c66 0 89 99 89 195v8c0 35 9 109 18 163
c-39 -13 -70 -40 -70 -70c0 -32 26 -27 26 -50zM70 -119c11 0 34 -20 57 -20c37 0 74 36 91 54c100 102 175 219 214 336c9 27 33 37 57 37c28 0 57 -14 57 -31c0 -2 -18 -365 -18 -365c0 -16 3 -30 21 -30c17 0 47 20 55 20c5 0 9 -9 9 -17s-3 -16 -12 -19
c-31 -10 -57 -34 -87 -34c-32 0 -45 29 -53 58c-16 61 -26 125 -31 191c-26 -35 -55 -69 -87 -101c12 -21 34 -33 64 -33c7 0 11 1 12 1c4 0 8 -7 8 -15c0 -9 -4 -19 -13 -22c-15 -4 -30 -7 -43 -7c-32 0 -56 12 -70 33l-39 -35c-42 -36 -90 -70 -134 -70
c-34 0 -52 21 -78 32c-3 1 -5 5 -5 9c0 11 11 28 25 28zM288 540c0 -14 -9 -24 -42 -24c-48 0 -91 37 -91 84c0 96 131 120 232 120c46 0 121 -41 171 -41c71 0 107 44 119 44c11 0 23 -11 23 -19c0 -7 -64 -75 -150 -75c-17 0 -31 3 -44 6c-8 -58 -25 -152 -35 -193
c-21 -96 -88 -185 -163 -185c-50 0 -75 38 -115 64c-3 2 -4 5 -4 9c0 11 11 26 23 26c17 0 43 -48 82 -48c56 0 83 77 85 150c2 45 13 150 22 208c-12 3 -23 5 -32 5c-63 0 -113 -28 -113 -70c0 -40 32 -35 32 -61z" />
    <glyph glyph-name="clefs.tab_change" unicode="&#xe1ac;" horiz-adv-x="562" 
d="M213 -340c0 -8 0 -21 -33 -21c-35 0 -68 23 -68 59c0 66 95 104 187 104c82 0 173 -17 173 -82c0 -35 -24 -68 -56 -88c46 -9 82 -29 82 -73c0 -64 -69 -126 -144 -126c-56 0 -88 38 -88 48c0 9 13 20 22 20c12 0 12 -20 44 -20c34 0 76 31 76 74c0 37 -40 51 -81 51
c-5 0 -7 6 -7 12c0 9 4 20 15 20c29 0 55 31 55 62c0 15 -6 49 -64 60l-32 -176c-16 -82 -68 -161 -127 -161c-34 0 -54 26 -77 42c-3 2 -4 4 -4 7c0 9 10 21 19 21c13 0 29 -30 59 -30c52 0 71 80 71 156v7c0 28 6 87 14 130c-32 -11 -56 -32 -56 -56c0 -25 20 -22 20 -40z
M56 -95c9 0 28 -16 46 -16c55 0 193 160 243 312c8 22 27 29 46 29c23 0 45 -11 45 -24c0 -2 -14 -292 -14 -292c0 -13 3 -25 17 -25c13 0 37 16 44 16c4 0 7 -6 7 -13c0 -6 -2 -13 -9 -15c-25 -8 -46 -28 -70 -28c-26 0 -54 28 -67 200c-21 -28 -44 -55 -69 -81
c16 -29 47 -26 60 -26c4 0 6 -6 6 -12c0 -20 -30 -23 -45 -23c-25 0 -44 10 -55 27l-31 -28c-34 -29 -72 -56 -108 -56c-27 0 -41 16 -62 25c-3 1 -4 4 -4 7c0 9 9 23 20 23zM230 432c0 -11 -7 -19 -33 -19c-39 0 -73 29 -73 67c0 77 105 96 186 96c37 0 95 -33 136 -33
c57 0 86 35 95 35s19 -9 19 -15s-51 -60 -120 -60c-14 0 -25 2 -35 5c-7 -47 -20 -122 -28 -155c-17 -76 -71 -148 -130 -148c-40 0 -60 31 -92 52c-3 2 -4 4 -4 7c0 9 9 21 18 21c14 0 36 -39 66 -39c78 0 65 150 86 287c-10 2 -19 4 -26 4c-49 0 -90 -23 -90 -56
c0 -32 25 -28 25 -49z" />
    <glyph glyph-name="timesig.C44" unicode="&#xe1ad;" horiz-adv-x="428" 
d="M360 26c-26 0 -76 20 -76 76c0 39 28 78 73 78c5 0 11 -1 16 -2c-29 37 -74 60 -123 60c-106 0 -113 -73 -113 -185c0 -17 1 -35 1 -53s-1 -36 -1 -53c0 -112 7 -185 113 -185c81 0 142 69 161 151c2 6 6 9 11 9c6 0 12 -4 12 -11c0 -20 -49 -173 -184 -173
c-122 0 -250 65 -250 262c0 196 128 262 250 262c118 0 178 -106 178 -163c0 -40 -31 -73 -68 -73z" />
    <glyph glyph-name="timesig.C22" unicode="&#xe1ae;" horiz-adv-x="428" 
d="M360 26c-26 0 -76 20 -76 76c0 39 28 78 73 78c5 0 11 -1 16 -2c-29 37 -74 60 -123 60h-11v-476h11c81 0 142 69 161 151c2 6 6 9 11 9c6 0 12 -4 12 -11c0 -20 -49 -173 -184 -173c-4 0 -7 0 -11 1v-80c0 -5 -4 -9 -9 -9h-18c-5 0 -9 4 -9 9v83
c-146 21 -203 132 -203 258c0 125 57 237 203 258v83c0 5 4 9 9 9h18c5 0 9 -4 9 -9v-80c4 1 7 1 11 1c118 0 178 -106 178 -163c0 -40 -31 -73 -68 -73zM203 -232v464c-61 -20 -66 -87 -66 -179c0 -17 1 -35 1 -53s-1 -36 -1 -53c0 -92 5 -159 66 -179z" />
    <glyph glyph-name="pedal.*" unicode="&#xe1af;" horiz-adv-x="390" 
d="M166 306c0 -16 13 -29 28 -29c16 0 29 13 29 29c0 15 -13 28 -29 28c-15 0 -28 -13 -28 -28zM92 458c9 0 43 -5 43 -43c0 -5 -1 -12 -1 -17c0 -50 51 -37 51 -11c0 27 -39 37 -39 64c0 33 24 49 48 49c25 0 49 -16 49 -49c0 -27 -39 -37 -39 -64c0 -25 51 -41 51 11
c0 5 -1 12 -1 17c0 38 34 43 43 43c26 0 50 -24 50 -50c0 -9 -5 -43 -43 -43c-6 0 -12 1 -18 1c-49 0 -37 -51 -10 -51s37 39 64 39c33 0 49 -24 49 -48c0 -25 -16 -49 -49 -49c-27 0 -37 39 -64 39c-25 0 -41 -51 10 -51c6 0 12 1 18 1c38 0 43 -34 43 -43
c0 -26 -24 -50 -50 -50c-9 0 -43 5 -43 43c0 6 1 12 1 18c0 49 -51 37 -51 10s39 -37 39 -64c0 -33 -24 -49 -49 -49c-24 0 -48 16 -48 49c0 27 39 37 39 64c0 25 -51 41 -51 -10c0 -6 1 -12 1 -18c0 -38 -34 -43 -43 -43c-26 0 -50 24 -50 50c0 9 5 43 43 43
c5 0 12 -1 17 -1c50 0 37 51 11 51c-27 0 -37 -39 -64 -39c-33 0 -49 24 -49 49c0 24 16 48 49 48c27 0 37 -39 64 -39c25 0 41 51 -11 51c-5 0 -12 -1 -17 -1c-38 0 -43 34 -43 43c0 26 24 50 50 50z" />
    <glyph glyph-name="pedal.M" unicode="&#xe1b0;" horiz-adv-x="203" 
d="M0 157l34 58c12 11 30 13 49 13c23 0 48 -3 70 -3c20 0 37 2 49 13l-33 -59c-13 -10 -30 -13 -49 -13c-23 0 -48 4 -71 4c-19 0 -37 -3 -49 -13z" />
    <glyph glyph-name="pedal.." unicode="&#xe1b1;" horiz-adv-x="67" 
d="M0 34c0 18 15 33 34 33c18 0 33 -15 33 -33c0 -19 -15 -34 -33 -34c-19 0 -34 15 -34 34z" />
    <glyph glyph-name="pedal.P" unicode="&#xe1b2;" horiz-adv-x="418" 
d="M43 341c0 -31 23 -48 39 -48c22 0 44 27 44 57c0 7 16 7 16 0c0 -61 -40 -120 -81 -120c-24 0 -60 24 -60 75c0 81 90 195 249 195c107 0 165 -81 165 -143c0 -45 -31 -66 -52 -66c-34 0 -66 47 -85 87c-3 6 12 13 15 7c8 -18 28 -32 45 -32c20 0 33 17 33 37
c0 39 -44 94 -121 94h-6c-12 -22 -41 -99 -41 -111c0 -46 100 -113 100 -163c0 -14 -12 -33 -59 -90c29 -4 83 -31 103 -47c5 -5 13 -1 19 3l40 30c4 3 12 -4 12 -9c0 -3 -111 -108 -129 -93c-20 16 -29 91 -59 99c-28 -34 -84 -103 -120 -103c-6 0 -12 5 -12 11
c0 28 86 104 123 109c31 35 31 40 31 50c0 47 -87 111 -87 150c0 18 42 133 62 163c-115 -10 -184 -88 -184 -142z" />
    <glyph glyph-name="pedal.d" unicode="&#xe1b3;" horiz-adv-x="334" 
d="M2 438c59 0 333 -114 333 -297c0 -69 -50 -141 -113 -141c-62 0 -111 76 -111 143c0 55 47 113 99 138c-52 71 -130 126 -210 140c-3 1 -4 4 -4 7c0 5 2 10 6 10zM219 267c-38 -21 -57 -78 -57 -124c0 -49 18 -111 60 -111c34 0 47 42 47 85c0 30 -7 86 -50 150z" />
    <glyph glyph-name="pedal.e" unicode="&#xe1b4;" 
d="M73 1c-25 0 -43 19 -62 87c-5 -4 -13 3 -13 8c0 4 4 5 8 9c-5 20 -7 34 -7 49c0 61 34 132 96 132c29 0 49 -20 49 -45c0 -37 -45 -79 -82 -110l-10 -8c27 -51 47 -81 65 -71c33 16 84 77 84 45c0 0 -89 -96 -128 -96zM76 255c-18 0 -45 -13 -45 -58c0 -20 6 -42 14 -59
c26 22 65 55 65 85c0 19 -15 32 -34 32z" />
    <glyph glyph-name="pedal.Ped" unicode="&#xe1b5;" horiz-adv-x="800" 
d="M43 341c0 -31 23 -48 39 -48c22 0 44 27 44 57c0 7 16 7 16 0c0 -61 -40 -120 -81 -120c-24 0 -60 24 -60 75c0 81 90 195 249 195c107 0 165 -81 165 -143c0 -45 -31 -66 -52 -66c-34 0 -66 47 -85 87c-3 6 12 13 15 7c8 -18 28 -32 45 -32c20 0 33 17 33 37
c0 39 -44 94 -121 94h-6c-12 -22 -41 -99 -41 -111c0 -46 100 -113 100 -163c0 -14 -12 -33 -59 -90c29 -4 83 -31 103 -47c5 -5 13 -1 19 3l40 30c-5 19 -7 34 -7 48c0 61 33 132 96 132c29 0 48 -20 48 -45c0 -37 -45 -79 -81 -110l-10 -8c50 -94 53 -89 130 -23
c-4 14 -6 29 -6 43c0 55 46 113 99 138c-52 71 -130 126 -210 140c-7 2 -5 18 2 16c185 -32 333 -177 333 -296c0 -69 -50 -141 -113 -141c-43 0 -81 37 -99 83c-89 -82 -99 -82 -116 -82c-24 0 -42 19 -62 87c-39 -37 -108 -95 -121 -84c-20 16 -29 91 -59 99
c-28 -34 -84 -103 -120 -103c-6 0 -12 5 -12 11c0 28 86 104 123 109c31 35 31 40 31 50c0 47 -87 111 -87 150c0 18 42 133 62 163c-115 -10 -184 -88 -184 -142zM475 255c-18 0 -44 -13 -44 -58c0 -20 5 -42 13 -59c27 22 66 55 66 85c0 19 -16 32 -35 32zM684 267
c-39 -21 -58 -78 -58 -124c0 -49 19 -111 61 -111c33 0 47 42 47 85c0 30 -8 86 -50 150z" />
    <glyph glyph-name="brackettips.up" unicode="&#xe1b6;" horiz-adv-x="476" 
d="M452 333c8 0 14 -6 14 -14c0 -3 -1 -6 -2 -9c-101 -144 -219 -366 -394 -366h-70v89c0 13 10 23 23 23h47c161 0 276 136 370 271c3 4 7 6 12 6z" />
    <glyph glyph-name="brackettips.down" unicode="&#xe1b7;" horiz-adv-x="476" 
d="M466 -319c0 -7 -6 -14 -14 -14c-5 0 -9 2 -12 6c-94 135 -209 271 -370 271h-47c-13 0 -23 10 -23 23v89h70c175 0 293 -222 394 -366c1 -3 2 -6 2 -9z" />
    <glyph glyph-name="accordion.accDiscant" unicode="&#xe1b8;" horiz-adv-x="391" 
d="M390 386c0 -214 -175 -386 -390 -386s-390 172 -390 386c0 213 175 385 390 385s390 -172 390 -385zM334 250h-668c53 -134 182 -229 334 -229s281 95 334 229zM342 271c12 36 18 75 18 115c0 39 -6 78 -18 114h-684c-12 -36 -18 -75 -18 -114c0 -40 6 -79 18 -115h684z
M-334 521h668c-53 134 -182 229 -334 229s-281 -95 -334 -229z" />
    <glyph glyph-name="accordion.accDot" unicode="&#xe1b9;" horiz-adv-x="62" 
d="M-62 0c0 35 27 62 62 62s62 -27 62 -62s-27 -62 -62 -62s-62 27 -62 62z" />
    <glyph glyph-name="accordion.accFreebase" unicode="&#xe1ba;" horiz-adv-x="266" 
d="M265 261c0 -145 -119 -261 -265 -261s-265 116 -265 261c0 144 119 260 265 260s265 -116 265 -260zM235 250h-470c6 -127 108 -229 235 -229s229 102 235 229zM-235 271h470c-6 127 -108 229 -235 229s-229 -102 -235 -229z" />
    <glyph glyph-name="accordion.accStdbase" unicode="&#xe1bb;" horiz-adv-x="517" 
d="M515 511c0 -283 -231 -511 -515 -511s-515 228 -515 511c0 282 231 510 515 510s515 -228 515 -510zM411 250h-822c86 -137 238 -229 411 -229s325 92 411 229zM423 271c38 68 60 146 62 229h-970c2 -83 24 -161 62 -229h846zM-423 750c-38 -68 -60 -146 -62 -229h970
c-2 83 -24 161 -62 229h-846zM-411 771h822c-86 137 -238 229 -411 229s-325 -92 -411 -229z" />
    <glyph glyph-name="accordion.accBayanbase" unicode="&#xe1bc;" horiz-adv-x="266" 
d="M250 780c8 0 15 -7 15 -15v-750c0 -8 -7 -15 -15 -15h-500c-8 0 -15 7 -15 15v750c0 8 7 15 15 15h500zM235 750h-470v-220h470v220zM235 500h-470v-220h470v220zM235 250h-470v-220h470v220z" />
    <glyph glyph-name="accordion.accOldEE" unicode="&#xe1bd;" horiz-adv-x="266" 
d="M235 261c0 131 -104 239 -235 239s-235 -108 -235 -239c0 -132 104 -240 235 -240s235 108 235 240zM265 261c0 -145 -119 -261 -265 -261s-265 116 -265 261c0 144 119 260 265 260s265 -116 265 -260zM59 367c0 26 21 47 47 47s47 -21 47 -47s-21 -48 -47 -48
c-7 0 -13 2 -19 4l-53 -45l3 -6l69 6c7 17 24 30 44 30c26 0 47 -21 47 -47c0 -27 -21 -48 -47 -48c-20 0 -37 13 -44 30l-69 6l-3 -6l53 -45c6 2 12 4 19 4c26 0 47 -21 47 -48c0 -26 -21 -47 -47 -47s-47 21 -47 47c0 7 1 14 4 19l-46 53c-1 -1 -3 -1 -5 -2l5 -69
c18 -7 30 -24 30 -44c0 -27 -21 -48 -47 -48s-47 21 -47 48c0 20 12 37 30 44l5 69c-2 1 -4 1 -5 2l-46 -53c3 -5 4 -12 4 -19c0 -26 -21 -47 -47 -47s-47 21 -47 47c0 27 21 48 47 48c7 0 13 -2 19 -4l53 45l-3 6l-69 -6c-7 -17 -24 -30 -44 -30c-26 0 -47 21 -47 48
c0 26 21 47 47 47c20 0 37 -13 44 -30l69 -6l3 6l-53 45c-6 -2 -12 -4 -19 -4c-26 0 -47 22 -47 48s21 47 47 47s47 -21 47 -47c0 -7 -1 -13 -4 -19l46 -53c1 1 3 1 5 2l-5 70c-18 7 -30 24 -30 44c0 26 21 47 47 47s47 -21 47 -47c0 -20 -12 -37 -30 -44l-5 -70
c2 -1 4 -1 5 -2l46 53c-3 6 -4 12 -4 19z" />
    <glyph glyph-name="rests.M3neomensural" unicode="&#xe1be;" horiz-adv-x="301" 
d="M291 -250h-82c-5 0 -9 4 -9 9v482c0 5 4 9 9 9h82c5 0 9 -4 9 -9v-482c0 -5 -4 -9 -9 -9zM91 -250h-82c-5 0 -9 4 -9 9v482c0 5 4 9 9 9h82c5 0 9 -4 9 -9v-482c0 -5 -4 -9 -9 -9z" />
    <glyph glyph-name="rests.M2neomensural" unicode="&#xe1bf;" horiz-adv-x="100" 
d="M91 -250h-82c-5 0 -9 4 -9 9v482c0 5 4 9 9 9h82c5 0 9 -4 9 -9v-482c0 -5 -4 -9 -9 -9z" />
    <glyph glyph-name="rests.M1neomensural" unicode="&#xe1c0;" horiz-adv-x="100" 
d="M91 0h-82c-5 0 -9 4 -9 9v232c0 5 4 9 9 9h82c5 0 9 -4 9 -9v-232c0 -5 -4 -9 -9 -9z" />
    <glyph glyph-name="rests.0neomensural" unicode="&#xe1c1;" horiz-adv-x="100" 
d="M91 -156h-82c-5 0 -9 4 -9 9v138c0 5 4 9 9 9h82c5 0 9 -4 9 -9v-138c0 -5 -4 -9 -9 -9z" />
    <glyph glyph-name="rests.1neomensural" unicode="&#xe1c2;" horiz-adv-x="100" 
d="M91 0h-82c-5 0 -9 4 -9 9v138c0 5 4 9 9 9h82c5 0 9 -4 9 -9v-138c0 -5 -4 -9 -9 -9z" />
    <glyph glyph-name="rests.2neomensural" unicode="&#xe1c3;" 
d="M200 123c0 -14 -11 -23 -23 -23c-3 0 -5 0 -8 1l-123 43v-121c0 -13 -10 -23 -23 -23s-23 10 -23 23v154c0 13 11 23 23 23c3 0 5 0 8 -1l153 -54c10 -3 16 -12 16 -22z" />
    <glyph glyph-name="rests.3neomensural" unicode="&#xe1c4;" 
d="M23 100c-12 0 -23 9 -23 23c0 10 6 19 16 22l153 54c3 1 5 1 8 1c12 0 23 -10 23 -23v-154c0 -13 -10 -23 -23 -23s-23 10 -23 23v121l-123 -43c-3 -1 -5 -1 -8 -1z" />
    <glyph glyph-name="rests.4neomensural" unicode="&#xe1c5;" 
d="M23 125c-11 0 -23 10 -23 23c0 9 5 17 13 21l153 78c4 2 7 3 11 3c12 0 23 -10 23 -23v-204c0 -13 -10 -23 -23 -23s-23 10 -23 23v72l-120 -61c-4 -2 -7 -3 -11 -3c-11 0 -23 10 -23 23c0 9 5 17 13 21l141 72v42l-120 -61c-4 -2 -7 -3 -11 -3z" />
    <glyph glyph-name="rests.M3mensural" unicode="&#xe1c6;" horiz-adv-x="75" 
d="M74 510v-750l-73 -20v750z" />
    <glyph glyph-name="rests.M2mensural" unicode="&#xe1c7;" horiz-adv-x="75" 
d="M74 260v-500l-73 -20v500z" />
    <glyph glyph-name="rests.M1mensural" unicode="&#xe1c8;" horiz-adv-x="75" 
d="M74 260v-250l-73 -20v250z" />
    <glyph glyph-name="rests.0mensural" unicode="&#xe1c9;" horiz-adv-x="75" 
d="M1 -166v156l73 20v-157z" />
    <glyph glyph-name="rests.1mensural" unicode="&#xe1ca;" horiz-adv-x="75" 
d="M74 166v-156l-73 -20v157z" />
    <glyph glyph-name="rests.2mensural" unicode="&#xe1cb;" 
d="M40 187l160 -50l-65 -37l-70 22v-103l-65 -38v106l-25 63z" />
    <glyph glyph-name="rests.3mensural" unicode="&#xe1cc;" 
d="M135 -19v106l-73 49l-62 -36l40 50l65 37l95 -62v-106z" />
    <glyph glyph-name="rests.4mensural" unicode="&#xe1cd;" 
d="M105 147l30 -22v9l-67 49l-3 -5l-65 -37l40 62l65 38l95 -69v-153l-65 -38v60l-67 48l-3 -5l-65 -37l40 62z" />
    <glyph glyph-name="noteheads.slneomensural" unicode="&#xe1ce;" horiz-adv-x="501" 
d="M56 -35h388c13 0 24 11 24 23v24c0 12 -11 23 -24 23h-388c-13 0 -24 -11 -24 -23v-24c0 -12 11 -23 24 -23zM444 -137h-388c-16 0 -24 -17 -24 -34v-563c0 -9 -7 -16 -16 -16s-16 7 -16 16v905c0 11 8 17 16 17s16 -6 16 -17c0 -17 8 -34 24 -34h388c16 0 24 17 24 34
c0 11 8 17 16 17s16 -6 16 -17v-342c0 -11 -8 -17 -16 -17s-16 6 -16 17c0 17 -8 34 -24 34z" />
    <glyph glyph-name="noteheads.sM3neomensural" unicode="&#xe1cf;" horiz-adv-x="652" 
d="M56 -35h538c13 0 24 11 24 23v24c0 12 -11 23 -24 23h-538c-13 0 -24 -11 -24 -23v-24c0 -12 11 -23 24 -23zM594 -137h-538c-16 0 -24 -17 -24 -34c0 -11 -8 -17 -16 -17s-16 6 -16 17v342c0 11 8 17 16 17s16 -6 16 -17c0 -17 8 -34 24 -34h538c16 0 24 17 24 34
c0 11 8 17 16 17s16 -6 16 -17v-342c8 -84 20 -242 20 -251c0 -12 -10 -19 -20 -19c-9 0 -19 6 -19 18l-13 250v2c0 17 -8 34 -24 34z" />
    <glyph glyph-name="noteheads.sM2neomensural" unicode="&#xe1d0;" horiz-adv-x="501" 
d="M56 -35h388c13 0 24 11 24 23v24c0 12 -11 23 -24 23h-388c-13 0 -24 -11 -24 -23v-24c0 -12 11 -23 24 -23zM444 -137h-388c-16 0 -24 -17 -24 -34c0 -11 -8 -17 -16 -17s-16 6 -16 17v342c0 11 8 17 16 17s16 -6 16 -17c0 -17 8 -34 24 -34h388c16 0 24 17 24 34
c0 11 8 17 16 17s16 -6 16 -17v-342c8 -84 20 -242 20 -251c0 -12 -10 -19 -20 -19c-9 0 -19 6 -19 18l-13 250v2c0 17 -8 34 -24 34z" />
    <glyph glyph-name="noteheads.sM1neomensural" unicode="&#xe1d1;" horiz-adv-x="501" 
d="M56 -35h388c13 0 24 11 24 23v24c0 12 -11 23 -24 23h-388c-13 0 -24 -11 -24 -23v-24c0 -12 11 -23 24 -23zM444 -137h-388c-16 0 -24 -17 -24 -34c0 -11 -8 -17 -16 -17s-16 6 -16 17v342c0 11 8 17 16 17s16 -6 16 -17c0 -17 8 -34 24 -34h388c16 0 24 17 24 34
c0 11 8 17 16 17s16 -6 16 -17v-342c0 -11 -8 -17 -16 -17s-16 6 -16 17c0 17 -8 34 -24 34z" />
    <glyph glyph-name="noteheads.s0harmonic" unicode="&#xe1d2;" horiz-adv-x="326" 
d="M72 38l125 -138l56 62l-125 138zM2 -6c-1 2 -2 4 -2 6s1 4 2 6l154 169c2 2 4 3 7 3c2 0 4 -1 6 -3l154 -169c1 -2 2 -4 2 -6s-1 -4 -2 -6l-154 -169c-2 -2 -4 -3 -6 -3c-3 0 -5 1 -7 3z" />
    <glyph glyph-name="noteheads.s2harmonic" unicode="&#xe1d3;" horiz-adv-x="326" 
d="M2 -6c-1 2 -2 4 -2 6s1 4 2 6l154 169c2 2 4 3 7 3c2 0 4 -1 6 -3l154 -169c1 -2 2 -4 2 -6s-1 -4 -2 -6l-154 -169c-2 -2 -4 -3 -6 -3c-3 0 -5 1 -7 3z" />
    <glyph glyph-name="noteheads.s0neomensural" unicode="&#xe1d4;" horiz-adv-x="250" 
d="M59 24l88 -96l44 48l-88 96zM2 -6c-1 2 -2 4 -2 6s1 4 2 6l116 128c2 2 4 3 7 3s5 -1 7 -3l116 -128c1 -2 2 -4 2 -6s-1 -4 -2 -6l-116 -128c-2 -2 -4 -3 -7 -3s-5 1 -7 3z" />
    <glyph glyph-name="noteheads.s1neomensural" unicode="&#xe1d5;" horiz-adv-x="250" 
d="M59 24l88 -96l44 48l-88 96zM2 -6c-1 2 -2 4 -2 6s1 4 2 6l116 128c2 2 4 3 7 3s5 -1 7 -3l116 -128c1 -2 2 -4 2 -6s-1 -4 -2 -6l-116 -128c-2 -2 -4 -3 -7 -3s-5 1 -7 3z" />
    <glyph glyph-name="noteheads.s2neomensural" unicode="&#xe1d6;" horiz-adv-x="250" 
d="M2 -6c-1 2 -2 4 -2 6s1 4 2 6l116 128c2 2 4 3 7 3s5 -1 7 -3l116 -128c1 -2 2 -4 2 -6s-1 -4 -2 -6l-116 -128c-2 -2 -4 -3 -7 -3s-5 1 -7 3z" />
    <glyph glyph-name="noteheads.slmensural" unicode="&#xe1d7;" horiz-adv-x="250" 
d="M56 -35h138c13 0 24 11 24 23v24c0 12 -11 23 -24 23h-138c-13 0 -24 -11 -24 -23v-24c0 -12 11 -23 24 -23zM194 -137h-138c-16 0 -24 -17 -24 -34v-563c0 -9 -7 -16 -16 -16s-16 7 -16 16v905c0 11 8 17 16 17s16 -6 16 -17c0 -17 8 -34 24 -34h138c16 0 24 17 24 34
c0 11 8 17 16 17s16 -6 16 -17v-342c0 -11 -8 -17 -16 -17s-16 6 -16 17c0 17 -8 34 -24 34z" />
    <glyph glyph-name="noteheads.sM3mensural" unicode="&#xe1d8;" horiz-adv-x="501" 
d="M56 -35h388c13 0 24 11 24 23v24c0 12 -11 23 -24 23h-388c-13 0 -24 -11 -24 -23v-24c0 -12 11 -23 24 -23zM444 -137h-388c-16 0 -24 -17 -24 -34c0 -11 -8 -17 -16 -17s-16 6 -16 17v342c0 11 8 17 16 17s16 -6 16 -17c0 -17 8 -34 24 -34h388c16 0 24 17 24 34
c0 11 8 17 16 17s16 -6 16 -17v-905c0 -9 -7 -16 -16 -16s-16 7 -16 16v563c0 17 -8 34 -24 34z" />
    <glyph glyph-name="noteheads.sM2mensural" unicode="&#xe1d9;" horiz-adv-x="250" 
d="M56 -35h138c13 0 24 11 24 23v24c0 12 -11 23 -24 23h-138c-13 0 -24 -11 -24 -23v-24c0 -12 11 -23 24 -23zM194 -137h-138c-16 0 -24 -17 -24 -34c0 -11 -8 -17 -16 -17s-16 6 -16 17v342c0 11 8 17 16 17s16 -6 16 -17c0 -17 8 -34 24 -34h138c16 0 24 17 24 34
c0 11 8 17 16 17s16 -6 16 -17v-905c0 -9 -7 -16 -16 -16s-16 7 -16 16v563c0 17 -8 34 -24 34z" />
    <glyph glyph-name="noteheads.sM1mensural" unicode="&#xe1da;" horiz-adv-x="250" 
d="M56 -35h138c13 0 24 11 24 23v24c0 12 -11 23 -24 23h-138c-13 0 -24 -11 -24 -23v-24c0 -12 11 -23 24 -23zM194 -137h-138c-16 0 -24 -17 -24 -34c0 -11 -8 -17 -16 -17s-16 6 -16 17v342c0 11 8 17 16 17s16 -6 16 -17c0 -17 8 -34 24 -34h138c16 0 24 17 24 34
c0 11 8 17 16 17s16 -6 16 -17v-342c0 -11 -8 -17 -16 -17s-16 6 -16 17c0 17 -8 34 -24 34z" />
    <glyph glyph-name="noteheads.s0mensural" unicode="&#xe1db;" horiz-adv-x="144" 
d="M67 74l-35 -65l45 -83l36 65zM1 -16c-1 1 -1 3 -1 5c0 6 2 12 4 16l59 106c4 7 11 14 17 14c3 0 4 -1 5 -3l58 -106c1 -1 1 -3 1 -5c0 -6 -2 -12 -4 -16l-58 -106c-4 -7 -11 -14 -18 -14c-2 0 -4 1 -5 3z" />
    <glyph glyph-name="noteheads.s1mensural" unicode="&#xe1dc;" horiz-adv-x="144" 
d="M67 74l-35 -65l45 -83l36 65zM1 -16c-1 1 -1 3 -1 5c0 6 2 12 4 16l59 106c4 7 11 14 17 14c3 0 4 -1 5 -3l58 -106c1 -1 1 -3 1 -5c0 -6 -2 -12 -4 -16l-58 -106c-4 -7 -11 -14 -18 -14c-2 0 -4 1 -5 3z" />
    <glyph glyph-name="noteheads.s2mensural" unicode="&#xe1dd;" horiz-adv-x="144" 
d="M1 -16c-1 1 -1 3 -1 5c0 6 2 12 4 16l59 106c4 7 11 14 17 14c3 0 4 -1 5 -3l58 -106c1 -1 1 -3 1 -5c0 -6 -2 -12 -4 -16l-58 -106c-4 -7 -11 -14 -18 -14c-2 0 -4 1 -5 3z" />
    <glyph glyph-name="noteheads.s0petrucci" unicode="&#xe1de;" horiz-adv-x="250" 
d="M56 50l96 -179l42 79l-96 179zM1 -4c-1 1 -1 3 -1 4s0 3 1 4l116 216c2 3 5 5 8 5s6 -2 8 -5l116 -216c1 -1 1 -3 1 -4s0 -3 -1 -4l-116 -216c-2 -3 -5 -5 -8 -5s-6 2 -8 5z" />
    <glyph glyph-name="noteheads.s1petrucci" unicode="&#xe1df;" horiz-adv-x="250" 
d="M56 50l96 -179l42 79l-96 179zM1 -4c-1 1 -1 3 -1 4s0 3 1 4l116 216c2 3 5 5 8 5s6 -2 8 -5l116 -216c1 -1 1 -3 1 -4s0 -3 -1 -4l-116 -216c-2 -3 -5 -5 -8 -5s-6 2 -8 5z" />
    <glyph glyph-name="noteheads.s2petrucci" unicode="&#xe1e0;" horiz-adv-x="250" 
d="M1 -4c-1 1 -1 3 -1 4s0 3 1 4l116 216c2 3 5 5 8 5s6 -2 8 -5l116 -216c1 -1 1 -3 1 -4s0 -3 -1 -4l-116 -216c-2 -3 -5 -5 -8 -5s-6 2 -8 5z" />
    <glyph glyph-name="noteheads.svaticana.punctum" unicode="&#xe1e1;" horiz-adv-x="138" 
d="M12 -79c-7 0 -12 5 -12 11v129c0 16 46 25 69 25c20 0 69 -8 69 -25v-129c0 -6 -6 -11 -12 -11c-7 0 -23 13 -57 13c-35 0 -50 -13 -57 -13z" />
    <glyph glyph-name="noteheads.svaticana.punctum.cavum" unicode="&#xe1e2;" horiz-adv-x="138" 
d="M23 -50c15 5 30 8 46 8s31 -3 46 -8v103c-15 7 -30 10 -46 10s-31 -3 -46 -10v-103zM12 -79c-7 0 -12 5 -12 11v129c0 16 46 25 69 25c20 0 69 -8 69 -25v-129c0 -6 -6 -11 -12 -11c-7 0 -23 13 -57 13c-35 0 -50 -13 -57 -13z" />
    <glyph glyph-name="noteheads.svaticana.linea.punctum" unicode="&#xe1e3;" horiz-adv-x="218" 
d="M217 -89c0 -4 -3 -7 -7 -7c-3 0 -7 3 -7 7v178c0 4 4 7 7 7c4 0 7 -3 7 -7v-178zM14 -89c0 -4 -3 -7 -7 -7s-7 3 -7 7v178c0 4 3 7 7 7s7 -3 7 -7v-178zM51 -79c-6 0 -11 5 -11 11v129c0 16 46 25 69 25c20 0 69 -8 69 -25v-129c0 -6 -6 -11 -12 -11c-7 0 -23 13 -57 13
c-35 0 -51 -13 -58 -13z" />
    <glyph glyph-name="noteheads.svaticana.linea.punctum.cavum" unicode="&#xe1e4;" horiz-adv-x="218" 
d="M217 -89c0 -4 -3 -7 -7 -7c-3 0 -7 3 -7 7v178c0 4 4 7 7 7c4 0 7 -3 7 -7v-178zM14 -89c0 -4 -3 -7 -7 -7s-7 3 -7 7v178c0 4 3 7 7 7s7 -3 7 -7v-178zM63 -50c15 5 30 8 46 8c15 0 31 -3 45 -8v103c-14 7 -30 10 -45 10c-16 0 -32 -3 -46 -10v-103zM51 -79
c-6 0 -11 5 -11 11v129c0 16 46 25 69 25c20 0 69 -8 69 -25v-129c0 -6 -6 -11 -12 -11c-7 0 -23 13 -57 13c-35 0 -51 -13 -58 -13z" />
    <glyph glyph-name="noteheads.svaticana.inclinatum" unicode="&#xe1e5;" horiz-adv-x="153" 
d="M2 -5c-2 2 -2 4 -2 5c0 2 1 3 2 5l67 100c2 3 5 4 8 4c2 0 5 -1 7 -4l68 -100c1 -2 1 -4 1 -5c0 -2 0 -3 -1 -5l-68 -100c-2 -3 -5 -4 -7 -4c-3 0 -6 1 -8 4z" />
    <glyph glyph-name="noteheads.svaticana.lpes" unicode="&#xe1e6;" horiz-adv-x="138" 
d="M138 -64c0 -11 -9 -14 -69 -14s-69 3 -69 14v129c0 6 5 11 12 11c5 0 23 -2 57 -2s51 2 57 2s12 -5 12 -11v-129z" />
    <glyph glyph-name="noteheads.svaticana.vlpes" unicode="&#xe1e7;" horiz-adv-x="138" 
d="M138 -94c0 -11 -9 -14 -69 -14s-69 3 -69 14v129c0 6 5 11 12 11c5 0 23 -2 57 -2s51 2 57 2s12 -5 12 -11v-129z" />
    <glyph glyph-name="noteheads.svaticana.upes" unicode="&#xe1e8;" horiz-adv-x="138" 
d="M12 -76c-7 0 -12 5 -12 11v129c0 11 9 14 69 14s69 -3 69 -14v-129c0 -6 -6 -11 -12 -11s-23 2 -57 2s-52 -2 -57 -2z" />
    <glyph glyph-name="noteheads.svaticana.vupes" unicode="&#xe1e9;" horiz-adv-x="138" 
d="M12 -55c-7 0 -12 6 -12 12v128c0 12 9 15 69 15s69 -3 69 -15v-128c0 -6 -6 -12 -12 -12s-23 3 -57 3s-52 -3 -57 -3z" />
    <glyph glyph-name="noteheads.svaticana.plica" unicode="&#xe1ea;" horiz-adv-x="82" 
d="M12 -52c-7 0 -12 5 -12 11v77c0 16 34 20 41 20c8 0 42 -4 42 -20v-77c0 -6 -6 -11 -12 -11c-7 0 -13 8 -30 8c-16 0 -22 -8 -29 -8z" />
    <glyph glyph-name="noteheads.svaticana.vplica" unicode="&#xe1eb;" horiz-adv-x="82" 
d="M12 -72c-7 0 -12 5 -12 11v77c0 12 20 28 41 28c18 0 27 4 30 4c6 0 12 -6 12 -12v-77c0 -9 -8 -15 -42 -15c-19 0 -17 -16 -29 -16z" />
    <glyph glyph-name="noteheads.svaticana.epiphonus" unicode="&#xe1ec;" horiz-adv-x="138" 
d="M20 -92c-16 0 -20 42 -20 65v129c0 6 5 11 12 11c6 0 11 -5 11 -11c0 -14 2 -28 5 -42c62 3 89 33 98 33c6 0 12 -6 12 -12v-128c0 -15 -62 -45 -118 -45z" />
    <glyph glyph-name="noteheads.svaticana.vepiphonus" unicode="&#xe1ed;" horiz-adv-x="138" 
d="M20 -122c-16 0 -20 42 -20 65v129c0 6 5 11 12 11c6 0 11 -5 11 -11c0 -14 2 -28 5 -42c62 3 89 33 98 33c6 0 12 -6 12 -12v-128c0 -15 -62 -45 -118 -45z" />
    <glyph glyph-name="noteheads.svaticana.reverse.plica" unicode="&#xe1ee;" horiz-adv-x="82" 
d="M83 -36c0 -16 -34 -20 -42 -20c-7 0 -41 4 -41 20v77c0 6 5 11 12 11s13 -8 29 -8c17 0 23 8 30 8c6 0 12 -5 12 -11v-77z" />
    <glyph glyph-name="noteheads.svaticana.reverse.vplica" unicode="&#xe1ef;" horiz-adv-x="82" 
d="M41 -80c-27 0 -41 22 -41 28v77c0 6 5 11 12 11c12 0 10 -16 29 -16c34 0 42 -6 42 -15v-77c0 -6 -6 -12 -12 -12c-3 0 -12 4 -30 4z" />
    <glyph glyph-name="noteheads.svaticana.inner.cephalicus" unicode="&#xe1f0;" horiz-adv-x="138" 
d="M12 -113c-7 0 -12 5 -12 11v129c0 23 4 65 20 65c57 0 118 -30 118 -45v-128c0 -6 -6 -12 -12 -12c-9 0 -36 30 -98 33c-3 -14 -5 -28 -5 -42c0 -6 -5 -11 -11 -11z" />
    <glyph glyph-name="noteheads.svaticana.cephalicus" unicode="&#xe1f1;" horiz-adv-x="138" 
d="M23 -102c0 -5 -4 -10 -9 -11v-192c0 -4 -3 -7 -7 -7s-7 3 -7 7v332c0 23 4 65 20 65c57 0 118 -30 118 -45v-128c0 -6 -6 -12 -12 -12c-9 0 -36 30 -98 33c-3 -14 -5 -28 -5 -42z" />
    <glyph glyph-name="noteheads.svaticana.quilisma" unicode="&#xe1f2;" horiz-adv-x="138" 
d="M47 -58c-1 -13 -4 -40 -11 -40c-1 0 -1 0 -2 1l-24 21c-7 7 -10 41 -10 60c0 13 2 60 12 60c0 0 1 -1 2 -1l15 -13c0 13 4 38 10 38h2l30 -24c1 14 5 38 11 38c1 0 1 0 2 -1l25 -18c2 22 6 35 11 35c3 0 7 -10 9 -26l7 -49c1 -10 2 -22 2 -34c0 -13 -3 -60 -12 -60
c0 0 -1 0 -1 1l-32 23c-1 -12 -5 -38 -11 -38c-1 0 -1 1 -2 1z" />
    <glyph glyph-name="noteheads.ssolesmes.incl.parvum" unicode="&#xe1f3;" horiz-adv-x="96" 
d="M1 -5c-1 2 -1 4 -1 5c0 2 1 3 1 5l40 60c1 2 4 3 7 3s6 -1 7 -4l39 -59c1 -2 2 -4 2 -5c0 -2 -1 -3 -2 -5l-39 -60c-2 -2 -4 -3 -7 -3s-6 1 -8 4z" />
    <glyph glyph-name="noteheads.ssolesmes.auct.asc" unicode="&#xe1f4;" horiz-adv-x="138" 
d="M69 -82c-26 0 -69 4 -69 20v128c0 6 5 12 12 12c5 0 23 -8 57 -8c29 0 46 32 46 65c0 6 5 11 11 11s12 -5 12 -11v-129c0 -45 -27 -88 -69 -88z" />
    <glyph glyph-name="noteheads.ssolesmes.auct.desc" unicode="&#xe1f5;" horiz-adv-x="138" 
d="M12 -78c-7 0 -12 6 -12 12v128c0 16 43 20 69 20c42 0 69 -43 69 -88v-129c0 -6 -6 -11 -12 -11s-11 5 -11 11c0 33 -17 65 -46 65c-34 0 -52 -8 -57 -8z" />
    <glyph glyph-name="noteheads.ssolesmes.incl.auctum" unicode="&#xe1f6;" horiz-adv-x="153" 
d="M0 -74c12 0 16 -24 44 -24c6 0 12 2 17 4l-59 89c-2 3 -3 7 0 10l67 100c2 3 5 4 8 4c2 0 5 -1 7 -4l68 -100c1 -2 1 -4 1 -5c0 -2 0 -3 -1 -5l-68 -100c-4 -6 -21 -16 -40 -16c-35 0 -56 28 -56 35c0 6 6 12 12 12z" />
    <glyph glyph-name="noteheads.ssolesmes.stropha" unicode="&#xe1f7;" horiz-adv-x="153" 
d="M60 -92c36 4 -11 104 -55 103l64 94c2 3 5 4 8 4c2 0 5 -1 7 -4l68 -100c1 -2 1 -4 1 -5c0 -2 0 -4 -1 -5l-68 -100c-2 -3 -5 -4 -7 -4c-3 0 -6 1 -8 4z" />
    <glyph glyph-name="noteheads.ssolesmes.stropha.aucta" unicode="&#xe1f8;" horiz-adv-x="153" 
d="M0 -74c12 0 16 -24 44 -24c66 0 2 110 -39 109l64 94c2 3 5 4 8 4c2 0 5 -1 7 -4l68 -100c1 -2 1 -4 1 -5c0 -2 0 -3 -1 -5l-68 -100c-9 -13 -23 -19 -37 -19c-35 0 -59 30 -59 38c0 6 6 12 12 12z" />
    <glyph glyph-name="noteheads.ssolesmes.oriscus" unicode="&#xe1f9;" horiz-adv-x="164" 
d="M0 -14c0 56 7 96 48 96c28 0 42 -29 70 -29c31 0 34 29 37 29c7 0 9 -53 9 -68c0 -56 -7 -96 -48 -96c-28 0 -42 29 -70 29c-31 0 -34 -29 -37 -29c-7 0 -9 53 -9 68z" />
    <glyph glyph-name="noteheads.smedicaea.inclinatum" unicode="&#xe1fa;" horiz-adv-x="210" 
d="M2 -5c-2 2 -2 3 -2 5s1 4 2 5l96 141c1 3 4 4 7 4s6 -1 7 -4l97 -141c1 -2 1 -3 1 -5s0 -4 -1 -5l-97 -141c-1 -3 -4 -4 -7 -4s-6 1 -7 4z" />
    <glyph glyph-name="noteheads.smedicaea.punctum" unicode="&#xe1fb;" 
d="M9 -125c-7 0 -9 99 -9 125s2 125 9 125h182c7 0 9 -99 9 -125s-2 -125 -9 -125h-182z" />
    <glyph glyph-name="noteheads.smedicaea.rvirga" unicode="&#xe1fc;" 
d="M9 -125c-7 0 -9 99 -9 125v613c0 7 5 12 12 12c6 0 11 -5 11 -12v-488h168c7 0 9 -99 9 -125s-2 -125 -9 -125h-182z" />
    <glyph glyph-name="noteheads.smedicaea.virga" unicode="&#xe1fd;" 
d="M0 0c0 26 2 125 9 125h182c7 0 9 -99 9 -125s-2 -125 -9 -125h-168v-488c0 -7 -5 -12 -11 -12c-7 0 -12 5 -12 12v613z" />
    <glyph glyph-name="noteheads.shufnagel.punctum" unicode="&#xe1fe;" horiz-adv-x="358" 
d="M4 -7c-3 1 -4 4 -4 7s1 6 4 7l169 116c2 1 4 2 6 2c1 0 3 0 5 -2l169 -116c3 -1 4 -4 4 -7s-1 -6 -4 -7l-169 -116c-2 -1 -4 -2 -5 -2c-2 0 -4 0 -6 2z" />
    <glyph glyph-name="noteheads.shufnagel.virga" unicode="&#xe1ff;" horiz-adv-x="358" 
d="M108 -375c-1 0 -1 0 -1 1v296l-103 71c-3 1 -4 4 -4 7s1 6 4 7l169 116c2 1 4 2 6 2c1 0 3 0 5 -2l169 -116c3 -1 4 -4 4 -7s-1 -6 -4 -7l-103 -71v-197c0 -12 -123 -100 -142 -100z" />
    <glyph glyph-name="noteheads.shufnagel.lpes" unicode="&#xe200;" horiz-adv-x="501" 
d="M488 99c7 0 12 -5 12 -12c0 -2 -1 -4 -2 -6l-123 -175c-2 -3 -5 -5 -9 -5h-354c-7 0 -12 5 -12 12c0 2 1 4 2 6l123 175c2 3 5 5 9 5h354z" />
    <glyph glyph-name="clefs.vaticana.do" unicode="&#xe201;" horiz-adv-x="125" 
d="M76 50c-32 0 -62 -21 -62 -50s30 -50 62 -50c28 0 40 14 42 14c6 0 7 -59 7 -75c0 -27 -1 -71 -6 -75c-13 -9 -27 -14 -42 -14c-43 0 -71 36 -75 78c-1 14 -2 34 -2 53v138c0 28 -7 131 77 131c15 0 29 -5 42 -14c4 -4 6 -49 6 -75c0 -16 -1 -75 -7 -75
c-2 0 -14 14 -42 14z" />
    <glyph glyph-name="clefs.vaticana.do_change" unicode="&#xe202;" horiz-adv-x="125" 
d="M76 50c-32 0 -62 -21 -62 -50s30 -50 62 -50c28 0 40 14 42 14c6 0 7 -59 7 -75c0 -27 -1 -71 -6 -75c-13 -9 -27 -14 -42 -14c-43 0 -71 36 -75 78c-1 14 -2 34 -2 53v138c0 28 -7 131 77 131c15 0 29 -5 42 -14c4 -4 6 -49 6 -75c0 -16 -1 -75 -7 -75
c-2 0 -14 14 -42 14z" />
    <glyph glyph-name="clefs.vaticana.fa" unicode="&#xe203;" horiz-adv-x="263" 
d="M213 50c-31 0 -62 -21 -62 -50s31 -50 62 -50c28 0 41 14 43 14c5 0 6 -59 6 -75c0 -27 -1 -71 -6 -75c-12 -9 -27 -14 -42 -14c-31 0 -69 23 -74 78c-2 14 -3 34 -3 53v138c0 28 -6 131 77 131c15 0 30 -5 42 -14c5 -4 6 -49 6 -75c0 -16 -1 -75 -6 -75
c-2 0 -15 14 -43 14zM7 -62c-6 0 -7 49 -7 62c0 6 0 59 7 62c14 9 30 13 47 13c23 0 46 -8 65 -25c4 -5 6 -40 6 -62v-356c0 -4 -3 -7 -7 -7s-7 3 -7 7v299c-22 17 -45 19 -57 19c-28 0 -42 -12 -47 -12z" />
    <glyph glyph-name="clefs.vaticana.fa_change" unicode="&#xe204;" horiz-adv-x="263" 
d="M213 50c-31 0 -62 -21 -62 -50s31 -50 62 -50c28 0 41 14 43 14c5 0 6 -59 6 -75c0 -27 -1 -71 -6 -75c-12 -9 -27 -14 -42 -14c-31 0 -69 23 -74 78c-2 14 -3 34 -3 53v138c0 28 -6 131 77 131c15 0 30 -5 42 -14c5 -4 6 -49 6 -75c0 -16 -1 -75 -6 -75
c-2 0 -15 14 -43 14zM7 -62c-6 0 -7 49 -7 62c0 6 0 59 7 62c14 9 30 13 47 13c23 0 46 -8 65 -25c4 -5 6 -40 6 -62v-356c0 -4 -3 -7 -7 -7s-7 3 -7 7v299c-22 17 -45 19 -57 19c-28 0 -42 -12 -47 -12z" />
    <glyph glyph-name="clefs.medicaea.do" unicode="&#xe205;" horiz-adv-x="250" 
d="M250 -187c0 -14 -2 -63 -12 -63h-1l-214 119v-232c0 -7 -5 -12 -11 -12c-7 0 -12 5 -12 12v726c0 7 5 12 12 12c6 0 11 -5 11 -12v-119l217 -119c6 -4 10 -38 10 -63c0 -13 -2 -62 -12 -62h-1l-214 119v-125l217 -119c6 -4 10 -38 10 -62z" />
    <glyph glyph-name="clefs.medicaea.do_change" unicode="&#xe206;" 
d="M200 -175c0 -11 -2 -50 -9 -50h-1l-171 95v-161c0 -5 -5 -9 -10 -9s-9 4 -9 9v582c0 5 4 9 9 9s10 -4 10 -9v-71l173 -95c5 -3 8 -30 8 -50c0 -11 -2 -50 -9 -50h-1l-171 95v-150l173 -95c5 -3 8 -30 8 -50z" />
    <glyph glyph-name="clefs.medicaea.fa" unicode="&#xe207;" horiz-adv-x="426" 
d="M425 -187c0 -14 -2 -63 -12 -63h-1l-214 119v-232c0 -7 -5 -12 -11 -12c-7 0 -12 5 -12 12v726c0 7 5 12 12 12c6 0 11 -5 11 -12v-119l217 -119c6 -4 10 -38 10 -63c0 -13 -2 -62 -12 -62h-1l-214 119v-125l217 -119c6 -4 10 -38 10 -62zM100 125c9 0 12 -99 12 -125
v-363c0 -7 -6 -12 -12 -12s-12 5 -12 12v238h-76c-10 0 -12 99 -12 125s2 125 12 125h88z" />
    <glyph glyph-name="clefs.medicaea.fa_change" unicode="&#xe208;" horiz-adv-x="341" 
d="M340 -175c0 -11 -2 -50 -9 -50h-1l-171 95v-161c0 -5 -5 -9 -10 -9s-9 4 -9 9v582c0 5 4 9 9 9s10 -4 10 -9v-71l173 -95c5 -3 8 -30 8 -50c0 -11 -2 -50 -9 -50h-1l-171 95v-150l173 -95c5 -3 8 -30 8 -50zM80 100c7 0 9 -79 9 -100v-291c0 -5 -4 -9 -9 -9s-9 4 -9 9
v191h-62c-7 0 -9 79 -9 100s2 100 9 100h71z" />
    <glyph glyph-name="clefs.neomensural.c" unicode="&#xe209;" horiz-adv-x="641" 
d="M102 -491c0 -6 -9 -9 -16 -9s-16 3 -16 9v982c0 6 9 9 16 9s16 -3 16 -9v-320c0 -17 8 -34 23 -34h389c15 0 23 17 23 34v320c0 6 9 9 16 9c8 0 17 -3 17 -9v-982c0 -6 -9 -9 -17 -9c-7 0 -16 3 -16 9v320c0 17 -8 34 -23 34h-389c-15 0 -23 -17 -23 -34v-320zM639 -491
c0 -6 -9 -9 -16 -9s-16 3 -16 9v982c0 6 9 9 16 9s16 -3 16 -9v-982zM32 -491c0 -6 -9 -9 -16 -9s-16 3 -16 9v982c0 6 9 9 16 9s16 -3 16 -9v-982zM102 -23c0 -13 11 -23 23 -23h389c13 0 23 10 23 23v46c0 13 -10 23 -23 23h-389c-12 0 -23 -10 -23 -23v-46z" />
    <glyph glyph-name="clefs.neomensural.c_change" unicode="&#xe20a;" horiz-adv-x="513" 
d="M82 -391c0 -6 -7 -9 -13 -9s-13 3 -13 9v782c0 6 7 9 13 9s13 -3 13 -9v-254c0 -14 6 -28 18 -28h311c13 0 19 14 19 28v254c0 6 7 9 13 9s13 -3 13 -9v-782c0 -6 -7 -9 -13 -9s-13 3 -13 9v254c0 14 -6 28 -19 28h-311c-12 0 -18 -14 -18 -28v-254zM511 -391
c0 -6 -6 -9 -13 -9c-6 0 -13 3 -13 9v782c0 6 7 9 13 9c7 0 13 -3 13 -9v-782zM26 -391c0 -6 -7 -9 -13 -9s-13 3 -13 9v782c0 6 7 9 13 9s13 -3 13 -9v-782zM82 -19c0 -10 8 -18 18 -18h311c10 0 19 8 19 18v38c0 10 -9 18 -19 18h-311c-10 0 -18 -8 -18 -18v-38z" />
    <glyph glyph-name="clefs.petrucci.c1" unicode="&#xe20b;" horiz-adv-x="250" 
d="M32 -148c0 -13 11 -23 24 -23h138c13 0 24 10 24 23v46c0 13 -11 23 -24 23h-138c-13 0 -24 -10 -24 -23v-46zM32 102c0 -13 11 -23 24 -23h138c13 0 24 10 24 23v46c0 13 -11 23 -24 23h-138c-13 0 -24 -10 -24 -23v-46zM218 550c0 6 9 9 16 9s16 -3 16 -9v-846
c0 -11 -8 -17 -16 -17s-16 6 -16 17c0 17 -8 34 -24 34h-138c-16 0 -24 -17 -24 -34v-45c0 -6 -9 -9 -16 -9s-16 3 -16 9v1132c0 6 9 9 16 9s16 -3 16 -9v-495c0 -17 8 -34 24 -34h138c16 0 24 17 24 34v254z" />
    <glyph glyph-name="clefs.petrucci.c1_change" unicode="&#xe20c;" 
d="M26 -144c0 -10 8 -18 19 -18h110c11 0 19 8 19 18v38c0 10 -8 18 -19 18h-110c-11 0 -19 -8 -19 -18v-38zM26 106c0 -10 8 -18 19 -18h110c11 0 19 8 19 18v38c0 10 -8 18 -19 18h-110c-11 0 -19 -8 -19 -18v-38zM174 492c0 5 7 9 13 9s13 -4 13 -9v-754
c0 -9 -6 -13 -13 -13c-6 0 -13 4 -13 13c0 14 -6 28 -19 28h-110c-13 0 -19 -14 -19 -28v-42c0 -6 -7 -9 -13 -9s-13 3 -13 9v1011c0 5 7 9 13 9s13 -4 13 -9v-445c0 -14 6 -28 19 -28h110c13 0 19 14 19 28v230z" />
    <glyph glyph-name="clefs.petrucci.c2" unicode="&#xe20d;" horiz-adv-x="250" 
d="M32 -148c0 -13 11 -23 24 -23h138c13 0 24 10 24 23v46c0 13 -11 23 -24 23h-138c-13 0 -24 -10 -24 -23v-46zM32 102c0 -13 11 -23 24 -23h138c13 0 24 10 24 23v46c0 13 -11 23 -24 23h-138c-13 0 -24 -10 -24 -23v-46zM250 -541c0 -6 -9 -9 -16 -9s-16 3 -16 9v245
c0 17 -8 34 -24 34h-138c-16 0 -24 -17 -24 -34v-295c0 -6 -9 -9 -16 -9s-16 3 -16 9v1382c0 6 9 9 16 9s16 -3 16 -9v-495c0 -17 8 -34 24 -34h138c16 0 24 17 24 34v254c0 6 9 9 16 9s16 -3 16 -9v-1091z" />
    <glyph glyph-name="clefs.petrucci.c2_change" unicode="&#xe20e;" 
d="M26 -144c0 -10 8 -18 19 -18h110c11 0 19 8 19 18v38c0 10 -8 18 -19 18h-110c-11 0 -19 -8 -19 -18v-38zM26 106c0 -10 8 -18 19 -18h110c11 0 19 8 19 18v38c0 10 -8 18 -19 18h-110c-11 0 -19 -8 -19 -18v-38zM200 -483c0 -5 -7 -9 -13 -9s-13 4 -13 9v221
c0 14 -6 28 -19 28h-110c-13 0 -19 -14 -19 -28v-266c0 -5 -7 -9 -13 -9s-13 4 -13 9v1235c0 5 7 9 13 9s13 -4 13 -9v-445c0 -14 6 -28 19 -28h110c13 0 19 14 19 28v230c0 5 7 9 13 9s13 -4 13 -9v-975z" />
    <glyph glyph-name="clefs.petrucci.c3" unicode="&#xe20f;" horiz-adv-x="250" 
d="M32 -148c0 -13 11 -23 24 -23h138c13 0 24 10 24 23v46c0 13 -11 23 -24 23h-138c-13 0 -24 -10 -24 -23v-46zM32 102c0 -13 11 -23 24 -23h138c13 0 24 10 24 23v46c0 13 -11 23 -24 23h-138c-13 0 -24 -10 -24 -23v-46zM250 -550c0 -6 -9 -9 -16 -9s-16 3 -16 9v254
c0 17 -8 34 -24 34h-138c-16 0 -24 -17 -24 -34v-495c0 -6 -9 -9 -16 -9s-16 3 -16 9v1582c0 6 9 9 16 9s16 -3 16 -9v-495c0 -17 8 -34 24 -34h138c16 0 24 17 24 34v254c0 6 9 9 16 9s16 -3 16 -9v-1100z" />
    <glyph glyph-name="clefs.petrucci.c3_change" unicode="&#xe210;" 
d="M26 -144c0 -10 8 -18 19 -18h110c11 0 19 8 19 18v38c0 10 -8 18 -19 18h-110c-11 0 -19 -8 -19 -18v-38zM26 106c0 -10 8 -18 19 -18h110c11 0 19 8 19 18v38c0 10 -8 18 -19 18h-110c-11 0 -19 -8 -19 -18v-38zM200 -492c0 -5 -7 -9 -13 -9s-13 4 -13 9v230
c0 14 -6 28 -19 28h-110c-13 0 -19 -14 -19 -28v-445c0 -5 -7 -9 -13 -9s-13 4 -13 9v1414c0 5 7 9 13 9s13 -4 13 -9v-445c0 -14 6 -28 19 -28h110c13 0 19 14 19 28v230c0 5 7 9 13 9s13 -4 13 -9v-984z" />
    <glyph glyph-name="clefs.petrucci.c4" unicode="&#xe211;" horiz-adv-x="250" 
d="M32 -148c0 -13 11 -23 24 -23h138c13 0 24 10 24 23v46c0 13 -11 23 -24 23h-138c-13 0 -24 -10 -24 -23v-46zM32 102c0 -13 11 -23 24 -23h138c13 0 24 10 24 23v46c0 13 -11 23 -24 23h-138c-13 0 -24 -10 -24 -23v-46zM250 -550c0 -6 -9 -9 -16 -9s-16 3 -16 9v254
c0 17 -8 34 -24 34h-138c-16 0 -24 -17 -24 -34v-495c0 -6 -9 -9 -16 -9s-16 3 -16 9v1382c0 6 9 9 16 9s16 -3 16 -9v-295c0 -17 8 -34 24 -34h138c16 0 24 17 24 34v245c0 6 9 9 16 9s16 -3 16 -9v-1091z" />
    </font>
</defs>
</svg>
